<?xml version="1.0" standalone="no"?>
<svg id="SvgjsSvg1001" width="600" height="600" xmlns="http://www.w3.org/2000/svg" version="1.1" xmlns:xlink="http://www.w3.org/1999/xlink" xmlns:svgjs="http://svgjs.com/svgjs" class="svg-paper" viewBox="0 0 600 600"><title id="SvgjsTitle5927">x=(cos((log(abs(sqrt(x*x + y*y)))-y))+cos(max(x,y)*x))|y=cos(y)*sin(y)|dTest=0.0|sd=0.6|sm=0.4|ts=0.01 | generated with FlowLines</title><g id="SvgjsG5928"><polyline id="SvgjsPolyline5929" points="0,521.08 15.46,525.9 28.68,531.61 42.12,539.51 54.22,548.36 57.12,552.87 59.41,561.56 61.06,575.85 60.42,582.38" fill="none" stroke="#000000" stroke-width="1"/><polyline id="SvgjsPolyline5930" points="27.55,488.45 0.55,488.13" fill="none" stroke="#000000" stroke-width="1"/><polyline id="SvgjsPolyline5931" points="0.02,556.15 1.63,560.66 2.17,569.03 3.58,572.95 8.11,577.71 15.62,582.64" fill="none" stroke="#000000" stroke-width="1"/><polyline id="SvgjsPolyline5932" points="27.79,488.74 55.05,507.31 64.83,513.16 77.43,518.76 96.82,525.08 102.79,529.02 106.22,534.61 108.48,542.69 113.73,573.44 114.44,582.38" fill="none" stroke="#000000" stroke-width="1"/><polyline id="SvgjsPolyline5933" points="26.55,488.03 10.61,478.49 7.69,475.49 6.79,472.68 7.59,470.45 10.11,467.9 22.47,460.52 26.15,457.47 28.01,453.76 27.48,449.66 24.36,445.29 18.43,440.23 10.89,435.33 0.3,429.7" fill="none" stroke="#000000" stroke-width="1"/><polyline id="SvgjsPolyline5934" points="22.05,485.1 21.71,484 22.42,483.06 25.65,481.5 49.08,476.37 55.91,474.12 59.13,471.52 59.57,469.79 59.11,467.45 56.87,463.92 52.62,459.69 37.17,448.32 19.58,438 0.12,428.62" fill="none" stroke="#000000" stroke-width="1"/><polyline id="SvgjsPolyline5935" points="133.61,488.25 95.82,487.61 88.13,486.51 55.45,460.19 41.09,450.36 26.69,441.71" fill="none" stroke="#000000" stroke-width="1"/><polyline id="SvgjsPolyline5936" points="133.24,488.8 128.62,508.04 128.58,512.83 129.8,516.19 132.19,518.85 136.28,521.36 162.26,530.59 168.07,533.71 172.67,537.55 176.29,542.32 179.28,548.2 189,576.57 191.81,582.49" fill="none" stroke="#000000" stroke-width="1"/><polyline id="SvgjsPolyline5937" points="128.47,507.26 123.83,527.12 122.18,538.4 122.5,547.36 123.58,550.79 125.19,553.31 128.95,556.24 134.53,558.42 165.75,564.44 176.04,567.67 183.56,572.53 191.4,582.35" fill="none" stroke="#000000" stroke-width="1"/><polyline id="SvgjsPolyline5938" points="133.33,488.47 136.88,473.91 136.61,470.34 135.26,467.68 125.52,458.79 111.59,447.39 88.62,431.05 68.69,420.01 49.63,412.78 28.6,407.91 0.04,404.22" fill="none" stroke="#000000" stroke-width="1"/><polyline id="SvgjsPolyline5939" points="133.25,490.41 161.28,493.21 165.28,494.44 167.83,496.93 169.59,502.01 180.44,546.92 186.93,570.02" fill="none" stroke="#000000" stroke-width="1"/><polyline id="SvgjsPolyline5940" points="234.52,488.28 227.1,496.08 219.02,508 212.53,520.84 208.69,532.19 207.24,541.67 208.03,550 211.3,556.35 216.9,560.8 222.94,563.44 230.44,565.57 256.51,569.66 303.12,573.89 380.96,578.8 392.29,580.09 405.17,582.69" fill="none" stroke="#000000" stroke-width="1"/><polyline id="SvgjsPolyline5941" points="126.2,599.67 130.05,598.04 136.5,596.64 164.51,593.43 175.15,591.57 183.05,588.77 191.94,582.79" fill="none" stroke="#000000" stroke-width="1"/><polyline id="SvgjsPolyline5942" points="135.62,481.64 139.41,478.76 154.3,472.45 157.44,469.69 159.05,466.49 159.53,458.75 157.07,442.14 154.8,435.96 150.17,428.97 143.11,421.62 134.12,414.62 124.36,408.74 113.49,403.66 101.04,399.3 88.8,396.31 76.93,394.62 65.54,394.25" fill="none" stroke="#000000" stroke-width="1"/><polyline id="SvgjsPolyline5943" points="0.03,302.37 28.19,303.95 53.29,306.12 75.9,309.06 92.99,312.32 107.43,316.35 117.9,320.83 124.59,325.84 126.27,328.31 126.97,331.21 126.12,334.67 123.16,338.42 118.35,341.98 111.98,345.33 95.15,351.7 56.22,363.88 42.61,370.13 38.39,373.48 35.62,377.37 34.72,380.84 34.99,388.61 34.16,390.18 32.67,391.17 23.85,392.75 0.46,393.49" fill="none" stroke="#000000" stroke-width="1"/><polyline id="SvgjsPolyline5944" points="235.16,487.75 235.77,486.16 234.27,484.34 225.97,480.98 213.62,478.46 180.39,473.58 173.41,471.83 169,469.95 165.27,466.96 162.51,462.35 160.46,456.08 157.7,443.79" fill="none" stroke="#000000" stroke-width="1"/><polyline id="SvgjsPolyline5945" points="230.34,492.66 229.07,495.37 228.86,497.74 230.86,502.03 236.43,506.55 246.62,511.62 299.12,530.5 362.6,550.65 379.2,557.55 385.88,561.58 391.86,566.57 396.21,571.53 403.86,582.26" fill="none" stroke="#000000" stroke-width="1"/><polyline id="SvgjsPolyline5946" points="219.33,599.88 235.06,596.13 258.3,593.38 304.37,589.98 379.87,586.08 393.6,584.75 403.62,582.84" fill="none" stroke="#000000" stroke-width="1"/><polyline id="SvgjsPolyline5947" points="235.45,487.58 241.6,482.8 244.96,478.6 246.84,473.56 246.98,468.19 245.26,461.83 241.41,455.07 236.19,449.29 229.99,444.58 223.14,440.86 215.34,437.73 173.66,426.46 120.76,405.27 107.69,400.85 95.51,397.6" fill="none" stroke="#000000" stroke-width="1"/><polyline id="SvgjsPolyline5948" points="0.25,284.14 4.89,280.4 6.19,276.5 4.87,272.56 0.28,267.02" fill="none" stroke="#000000" stroke-width="1"/><polyline id="SvgjsPolyline5949" points="0.08,305.44 15.52,307.71 28.34,310.78 35.98,314.22 37.74,315.84 38.57,318.04 38.15,319.78 36.3,322.12 29.75,326.3 18.62,330.79 0.3,336.5" fill="none" stroke="#000000" stroke-width="1"/><polyline id="SvgjsPolyline5950" points="0.4,290.71 13.29,287.9 24.74,284.33 32.33,280.75 37.85,276.18 39.68,272.44 39.63,267.68 37.87,263.23 32.25,253.32 31.36,248.05 32.19,245.18 34.21,242.22 38.29,238.71 42.9,235.89 60.04,228.71 83.05,221.94 121.06,213.19 159.34,205.78" fill="none" stroke="#000000" stroke-width="1"/><polyline id="SvgjsPolyline5951" points="0.32,293.63 25.27,290.09 43.48,286.3 59.55,281.44 71.53,275.92 79.69,269.85 82.37,266.63 84.3,262.91 85.27,255.82 83.47,244.57 83.45,239.79 84.93,235.25 88.65,230.57 97.02,224.79 109.61,219.16 127.28,213.37 147.61,208.1" fill="none" stroke="#000000" stroke-width="1"/><polyline id="SvgjsPolyline5952" points="0.14,296.59 34.85,294.02 66.45,290.5 94.31,286.15 120.75,280.68 142.24,275.14 165.18,268.1 235.65,242.42 267.14,232.58 303.4,224.32 371.93,212.2 384.14,209.11 390.12,206.44" fill="none" stroke="#000000" stroke-width="1"/><polyline id="SvgjsPolyline5953" points="0.26,301.93 36.82,303.67 67.33,306.06 94.72,309.38 117.74,313.56 136.87,318.66 153.02,325.09 163.69,331.75 167.58,335.48 169.93,338.95 171.13,343.55 169.93,348.15 166.04,352.67 160.01,356.57 151.21,360.4 139.21,364.24 90.18,375.88 72.43,381.4 65.52,384.98 61.66,388.71 60.7,390.89 60.69,393.27 61.46,394.12 64.43,394.22" fill="none" stroke="#000000" stroke-width="1"/><polyline id="SvgjsPolyline5954" points="235.01,488.41 283.6,487.21 312.34,485.4 333.08,482.25 339.97,480.16 345.25,477.35 347.82,474.85 349.28,472.24 350.1,468.74 350.12,464.55 348.3,454.52 341.23,427.85 340.18,420.13 340.43,413.54 342.19,407.83 345.64,402.95 350.26,399.15 358.54,394.3" fill="none" stroke="#000000" stroke-width="1"/><polyline id="SvgjsPolyline5955" points="234.52,489.03 279.25,493.8 307.65,498.55 324.59,502.51 339.58,506.84 351.42,511.15 360.64,515.5 371.45,523.02 376.07,527.73 380.75,533.96 388.52,548.16 403.11,581.06" fill="none" stroke="#000000" stroke-width="1"/><polyline id="SvgjsPolyline5956" points="236.24,487.39 252.77,481.95 261.02,478.38 268.47,473.36 273.15,467.93 276.19,461.42 277.79,453.8 278.27,428.02 279.3,419.7 282.27,412.52 287.17,407.3 296.18,402.59 309.52,399.14 325.57,396.97 357.27,394.5" fill="none" stroke="#000000" stroke-width="1"/><polyline id="SvgjsPolyline5957" points="238.06,486.13 248.28,479.87 254.55,473.46 258.03,465.86 259.03,456.34 256.91,442.13 254.17,432.93 250.67,423.99 247.18,417.03 243.84,412.04 240.56,408.55 236.61,405.85 232.19,403.99 226.37,402.53 209.69,400.58 65.24,394.25" fill="none" stroke="#000000" stroke-width="1"/><polyline id="SvgjsPolyline5958" points="0.34,232.99 24.95,227.6 49.73,223.02 146.33,207.75" fill="none" stroke="#000000" stroke-width="1"/><polyline id="SvgjsPolyline5959" points="154.11,111.22 143.11,117.36 118.9,129.3 109.18,135.24 104.02,139.35 100.34,143.29 97.95,147.43 97.35,150.96 98.09,153.84 99.8,156.29 106.68,161.04 116.72,165.02 149.89,175.48 157.53,178.96 163.46,183.02 167.75,188.73 168.67,192.2 168.55,195.79 167.45,199.21 165.48,202.2 162.74,204.51 159.98,205.67" fill="none" stroke="#000000" stroke-width="1"/><polyline id="SvgjsPolyline5960" points="0.09,299.99 295.29,299.47 297.01,299.08 298.49,296.5 300.4,295.07 307.3,293.11 356.23,287.97 375.16,284.83 384.79,281.54 388.39,279.38 391.49,276.56 395.77,269.38 398.72,258.39 400.34,240.48 399.14,224.35 397.01,216.24 393.89,209.09 392.32,206.57 389.5,205.8" fill="none" stroke="#000000" stroke-width="1"/><polyline id="SvgjsPolyline5961" points="0.18,295.72 46.72,290.91 66.27,287.8 85.66,283.8 103.06,279.19 118.43,274.07 132.85,268.13 146.23,261.36 163.42,250.39 179.16,237.44 192.67,222.99 196.82,217.11 198.69,212.71 198.64,210.93 197.67,209.44 192.1,207.41 180.75,206.34 160.36,205.76" fill="none" stroke="#000000" stroke-width="1"/><polyline id="SvgjsPolyline5962" points="110.11,277.27 123.68,272.46 135.83,267.29 147.61,261.36 158.46,254.95 169.34,247.48 179.24,239.69 206.76,214.67 212.31,211.13 217.96,209.14 229.24,207.6 250.22,206.77 388.82,205.76" fill="none" stroke="#000000" stroke-width="1"/><polyline id="SvgjsPolyline5963" points="0.23,298.38 73.95,295.11 136.13,289.84 199.77,281.49 228.16,276.62 253.42,271.38 288.11,261.79 355.47,240.01 373.48,233.37 382.95,228.21 389.58,222.17 391.84,218.64 393.11,215.28 393.24,208.75" fill="none" stroke="#000000" stroke-width="1"/><polyline id="SvgjsPolyline5964" points="433.45,488.11 376.48,486.68 368.78,485.56 365.2,483.45 361.57,477.27 352.57,455.67 346.26,438.81 342.6,426.14 341.51,419.02 341.83,411.85 343.86,406.23 347.58,401.56" fill="none" stroke="#000000" stroke-width="1"/><polyline id="SvgjsPolyline5965" points="433.21,488.76 428.41,502.34 424.07,510.88 418.77,517.38 403.26,532.4 399.81,537.29 397.58,542.2 396.16,549.24 396.41,557.62 398.27,567.03 402.27,578.97" fill="none" stroke="#000000" stroke-width="1"/><polyline id="SvgjsPolyline5966" points="1.06,301.74 48.41,303.9 84.88,306.91 117.59,311.29 145.78,317.15 160.2,321.27 173.76,326.11 186.38,331.67 197.49,337.62 208.09,344.42 218.56,352.45 226.12,359.3 234.99,369.06 239.49,373.02 246.15,377.06 253.34,380.07 271.29,384.91 293.18,388.57 315.25,390.96 358.33,394.06" fill="none" stroke="#000000" stroke-width="1"/><polyline id="SvgjsPolyline5967" points="0.41,197.97 11.01,199.96 32.55,201.51 124.31,204.11 158.47,205.67" fill="none" stroke="#000000" stroke-width="1"/><polyline id="SvgjsPolyline5968" points="154.86,110.75 163.27,104.99 167.49,100.74 169.1,96.92 168.91,95.14 167.75,93.06 164.49,90.44 159.6,88.17 135.97,81.33 128.1,78.43 122.6,74.83 119.82,70.27 119.32,66.12 120.09,60.18 128,32.51 128.15,28.92 126.98,26.22 123.89,24.44 118.61,23.36 73.09,20.78 65.97,19.71 62.91,18.01" fill="none" stroke="#000000" stroke-width="1"/><polyline id="SvgjsPolyline5969" points="144.25,117.15 139.94,120.39 137.81,123.26 137.76,125.61 139.51,128.01 146.26,131.85 168.33,139.62 177.02,143.67 183.48,148.97 185.67,152.54 186.75,155.96 187.15,161.94 186.13,169.06 183.56,177.67 180.23,185.38 176.37,192.15 172.41,197.43 167.63,201.96 162.99,204.71" fill="none" stroke="#000000" stroke-width="1"/><polyline id="SvgjsPolyline5970" points="155.14,110.62 155.66,109.82 154.63,109.22 149.35,108.15 107.55,104.2 101.86,102.39 99.63,99.66 99.57,97.28 100.87,93.29 115.09,63.52 122.97,44.06 125.43,33.58 125,30.63 123.66,28.67 119.95,26.77 113.48,25.5 69.24,21.95 63.58,20.09 62.48,18.7 62.7,17.58" fill="none" stroke="#000000" stroke-width="1"/><polyline id="SvgjsPolyline5971" points="27.39,111.49 22.34,113.41 21.82,114.25 23.92,115.34 29.21,116.4 66.73,120.88 72.42,122.73 75.52,125.45 75.67,128.98 73.57,133.94 57.18,159.06 53.13,167.08 52.27,170.57 52.52,174.13 53.9,176.78 56.55,179.19 64.16,182.68 76.38,185.72 127.41,193.38 143.89,196.61 155.79,200.68 159.26,203.02 160.28,205.09" fill="none" stroke="#000000" stroke-width="1"/><polyline id="SvgjsPolyline5972" points="0.07,301.3 70.21,304.07 101.32,306.36 128.18,309.13 154.33,312.73 177.38,316.76 201.45,321.85 231.17,329.12 320.47,352.83 341.04,359.41 354.87,365.21 360.04,368.24 363.75,371.27 366.28,374.61 367.41,378 367.29,381.59 365.62,386.07 362.95,390.05 359.15,393.87" fill="none" stroke="#000000" stroke-width="1"/><polyline id="SvgjsPolyline5973" points="0.2,300.51 66.19,301.45 122.57,303.02 174.72,305.34 223.82,308.43 259.7,311.38 284.74,314.17 334.48,322.31 353.89,326.2 365.41,329.54 374.07,333.64 379.33,338.49 381.85,344.53 382.17,348.71 381.67,353.48 378.43,364.4 372.12,377.33 364.68,388.21" fill="none" stroke="#000000" stroke-width="1"/><polyline id="SvgjsPolyline5974" points="417.62,299.81 417.12,300.11 417.66,301.16 416.58,302.56 403.83,309.2 400.21,312.34 397.33,316.17 394.31,322.69 382.2,357.22 376.69,369.21 371.74,378.13" fill="none" stroke="#000000" stroke-width="1"/><polyline id="SvgjsPolyline5975" points="416.74,299.35 414.54,293.81 414.92,286.07 417.88,278.89 422.62,273.51 428.17,269.97 435.4,267.04 465.41,258.61 471.18,255.43 474.93,251.58 478.59,243.4 481.18,229.86 482.26,214.91 480.87,206.06" fill="none" stroke="#000000" stroke-width="1"/><polyline id="SvgjsPolyline5976" points="415.08,296.92 412.74,292.07 411.54,286.81 411.44,272.44 412.8,261.12 414.59,252.3 417.03,244.91 419.66,240.2 424.86,235.28 432.48,231.81 441.19,229.57 464.79,225.21 473.31,222.37 476.78,220.03 479.36,216.74 480.97,212.23 481.23,208.06" fill="none" stroke="#000000" stroke-width="1"/><polyline id="SvgjsPolyline5977" points="395.87,111.34 413.91,151.91 418.98,165.38 420.79,174.17 419.62,189.7 419.91,192.68 420.95,194.83 424.45,197.05 432.07,198.68 473.94,201.77 478.52,203.12 480.57,205.23" fill="none" stroke="#000000" stroke-width="1"/><polyline id="SvgjsPolyline5978" points="278.22,111.11 269.99,125.06 259,139.3 246.03,152.62 228.79,167.53 207.77,183.51 191.16,194.26 176.58,201.3 161.58,205.48" fill="none" stroke="#000000" stroke-width="1"/><polyline id="SvgjsPolyline5979" points="270.96,124.14 262.87,140.21 260.9,146.5 260.17,151.84 260.56,156.61 262.48,161.64 265.37,165.46 269.95,169.31 279.44,174.44 292.96,179.38 339.86,192.12 376.04,203.04 387.17,205.49" fill="none" stroke="#000000" stroke-width="1"/><polyline id="SvgjsPolyline5980" points="433.62,487.55 437.93,474.44 439.49,466.81 439.08,460.26 436.38,454.95 432.43,451.3 426.08,447.92 417.58,444.99 384.09,435.58 373.59,431.14 364.89,425.85 356.19,417.63 353.48,413.67 351.54,409.3 350.9,405.76 351.36,402.21 353.03,399.04 356.01,396.11" fill="none" stroke="#000000" stroke-width="1"/><polyline id="SvgjsPolyline5981" points="432.37,492.39 434.3,493.74 437.76,494.73 461.99,498.86 465.8,500.6 468.3,503.14 470.62,510.55 475.01,534.15 482.05,573.73 482.74,582.62" fill="none" stroke="#000000" stroke-width="1"/><polyline id="SvgjsPolyline5982" points="427.79,504.61 424.65,514.94 423.35,522.62 423.86,529.17 426.16,534.02 430.06,537.72 435.33,540.57 463.46,549.05 472.01,553.32 475.43,556.68 478.14,561.33 480.3,567.56 482.16,575.75" fill="none" stroke="#000000" stroke-width="1"/><polyline id="SvgjsPolyline5983" points="0.38,160.32 8.55,164.07 13.91,168.8 15.23,171.48 15.73,174.43 14.7,183.96 15.12,187.51 17.68,190.76 23.67,193.47 34.84,195.72 49.15,197.28 128.8,202.09 145.54,203.55 158,205.36" fill="none" stroke="#000000" stroke-width="1"/><polyline id="SvgjsPolyline5984" points="163.98,104.81 176.16,95.1 183.9,85.96 186.52,81.25 188.29,76.15 188.79,71.99 188.1,67.87 185.14,63.41 178.65,59.15 171.34,56.45 147.09,49.63 142.15,47.46 138.23,44.7 135.75,41.35 134.53,36.73 134.74,30.74 136.71,20.13 136.45,18.39 134.8,17.77 128.81,17.52 63.41,17.27" fill="none" stroke="#000000" stroke-width="1"/><polyline id="SvgjsPolyline5985" points="153.93,112.07 194.07,114.04 199.91,115.32 201.64,117.63 201.27,124.19 198.23,137.64 193.73,153.83 189.09,167.46 184.96,177.44 180.34,186.53 175.79,193.58 170.68,199.47" fill="none" stroke="#000000" stroke-width="1"/><polyline id="SvgjsPolyline5986" points="28.17,111.21 48.11,102.92 60.14,96.19 64.35,92.82 66.68,90.08 67.83,87.34 67.45,84.4 65.33,81.53 60.73,78.73 36.62,69.63 33.18,67.24 31.06,64.36 30.39,60.85 31.11,56.73 33.61,50.63 42.99,32.52 43.88,28.45 42.95,26.3 39.78,24.68 33.88,23.64 0.34,21.74" fill="none" stroke="#000000" stroke-width="1"/><polyline id="SvgjsPolyline5987" points="433.72,487.27 443.94,457.16 447.22,441.31 447.79,431.74 447.27,419.75 445.69,409.08 443.46,403.55 439.51,400.95 431.86,399.51 374.33,396.78 358.9,394.8" fill="none" stroke="#000000" stroke-width="1"/><polyline id="SvgjsPolyline5988" points="418.1,301.92 427.2,324.77 432.31,333.57 439.08,340.34 456.09,351.57 459.03,354.56 460.85,357.65 461.96,362.91 461.5,370.08 458.77,383.6 455.89,394.01" fill="none" stroke="#000000" stroke-width="1"/><polyline id="SvgjsPolyline5989" points="416.75,300.03 418.72,298.98 425.88,298.24 467.25,296.74 471.4,296.15 473.5,295.05 474.94,289.29 479.06,255.95 481.68,230.88 482.45,217.11" fill="none" stroke="#000000" stroke-width="1"/><polyline id="SvgjsPolyline5990" points="495.62,300.52 488.44,267.12 486.57,254.06 486.13,233.68 486.94,224.11 488.22,218.88 490.86,215.71 495.95,214.01 525.25,211.71 531.76,210.68 534.97,209.11 536.81,206.08" fill="none" stroke="#000000" stroke-width="1"/><polyline id="SvgjsPolyline5991" points="396.9,114.77 394.59,117.36 388.38,119.54 355.89,125.27 343.72,128.5 339.93,130.29 336.65,132.9 334.74,135.93 333.98,138.82 334.58,147.76 338.09,159.22 343.35,170.66 350.07,181.31 356.69,189.06 364.42,195.69 373.17,200.9 382.71,204.48" fill="none" stroke="#000000" stroke-width="1"/><polyline id="SvgjsPolyline5992" points="395.68,110.82 395.26,109.69 395.72,108.62 398.9,106.99 418.8,102.52 425.59,100.19 429.2,97.11 429.71,93.62 428.13,89.11 424.6,82.83 389.96,28.07 384.13,19.71 380.88,17.31" fill="none" stroke="#000000" stroke-width="1"/><polyline id="SvgjsPolyline5993" points="400.18,122.46 401.68,128.27 401.9,133.05 400.76,137.69 398.29,141.79 390.73,148.58 373.95,159.09 366.68,164.38 361.36,170.06 358.72,175.42 358.1,178.96 358.3,182.54 359.49,186.56 361.82,190.75 368.54,197.55 377.39,202.57" fill="none" stroke="#000000" stroke-width="1"/><polyline id="SvgjsPolyline5994" points="397.95,115.57 402.19,118.84 408.84,121.6 438.35,129.67 451.45,133.99 462.4,138.88 466.73,142.08 469.67,146.57 471.74,153.46 480.54,204.9" fill="none" stroke="#000000" stroke-width="1"/><polyline id="SvgjsPolyline5995" points="278.49,110.58 279.81,107.25 279.6,104.89 277.78,102.55 274.17,100.42 264.44,97.42 228,90.02 220.8,87.06 215.9,82.72 213.76,77.79 212.97,70.05 216.8,25.23 216.66,21.04 215.44,19.06 212.56,18.29 205.97,17.96 141.78,17.27" fill="none" stroke="#000000" stroke-width="1"/><polyline id="SvgjsPolyline5996" points="274.91,117.74 273.9,121.8 274.22,124.77 275.84,127.96 278.28,130.6 285.21,135.33 310.48,147.82 322.67,155.47 333.01,164.59 353.21,186.75 363.31,195.23" fill="none" stroke="#000000" stroke-width="1"/><polyline id="SvgjsPolyline5997" points="499.31,488.93 501.12,478.9 500.67,477.18 499.41,475.91 493.84,473.74 477.39,470.37 471.07,468.48 465.99,465.35 462.98,460.91 458.82,445.28 453.71,415.12 453.29,403.15 455.71,394.52" fill="none" stroke="#000000" stroke-width="1"/><polyline id="SvgjsPolyline5998" points="499.21,489.55 495.57,509 495.57,512.6 496.75,515.97 499.26,518.52 502.95,520.51 518.95,525.6 524.44,527.99 528.14,531.01 530.56,535.14 532.91,544.43 535.71,564.63 536.71,575.98 536.01,582.51" fill="none" stroke="#000000" stroke-width="1"/><polyline id="SvgjsPolyline5999" points="426.05,509.35 417.17,534.84 413.39,549.97 412.34,563.7 413.08,568.43 414.6,571.68 418.34,574.6 425.28,576.4 471.39,579.1 478.5,580.18 482.19,582.08" fill="none" stroke="#000000" stroke-width="1"/><polyline id="SvgjsPolyline6000" points="0.1,87.7 19.5,63.27 28.68,50.66 34.49,40.86 36.12,35.14 35.77,33.38 34.27,31.55 29.3,29.51 19.23,27.93 0.11,26.21" fill="none" stroke="#000000" stroke-width="1"/><polyline id="SvgjsPolyline6001" points="495.67,301.39 498.84,319.1 498.94,322.69 498.2,325.59 496.45,328 494.08,329.84 476.6,337.72 473.06,339.98 470.07,342.91 467.86,346.48 466.16,350.96 461.65,370.85" fill="none" stroke="#000000" stroke-width="1"/><polyline id="SvgjsPolyline6002" points="499.33,320.82 506.56,364.02 507.07,371.8 505.99,376.42 503.38,378.84 498.28,380.56 472.1,383.85 464.45,385.37 459.6,387.66 457.05,390.95" fill="none" stroke="#000000" stroke-width="1"/><polyline id="SvgjsPolyline6003" points="495.26,298 500.57,297.14 523.32,295.84 526.23,295.12 527.78,293.38 532.29,255.87 537,206.32" fill="none" stroke="#000000" stroke-width="1"/><polyline id="SvgjsPolyline6004" points="499.42,111.46 493.24,156.03 492.88,164.42 493.89,169.7 496.3,173.09 500.39,175.56 523.03,181.4 529.96,184.85 531.93,187.1 533.68,190.91 536.78,205.57" fill="none" stroke="#000000" stroke-width="1"/><polyline id="SvgjsPolyline6005" points="395.04,109.12 392.73,103.59 390.05,99.62 386.98,96.76 381.85,93.66 370.6,89.54 335.18,80.36 326.92,76.8 320.6,72.27 316.07,66.7 311.95,58.05 309.07,48.89 301.12,17.53" fill="none" stroke="#000000" stroke-width="1"/><polyline id="SvgjsPolyline6006" points="499.15,110.84 499.64,110.52 499.94,106.38 497.35,104.97 455.29,98.29 445.97,96.01 438.74,93.11 432.73,89.17 427.96,84.62 414.99,67.37" fill="none" stroke="#000000" stroke-width="1"/><polyline id="SvgjsPolyline6007" points="500.25,105.77 500.13,101.65 488.83,87.66 472.06,62.79 467.7,57.85 463.56,54.38 457.33,50.8 448.89,47.7 416.11,40.36 404.65,36.83 395.28,31.54 386.94,22.94" fill="none" stroke="#000000" stroke-width="1"/><polyline id="SvgjsPolyline6008" points="393.31,104.11 383.49,71.36 380.35,64.89 375.9,59.26 370.1,55.02 361.85,51.46 328.64,43.33 316.32,38.68 311.44,35.22 307.89,31.16 301.36,17.7" fill="none" stroke="#000000" stroke-width="1"/><polyline id="SvgjsPolyline6009" points="280.08,107.4 284.51,96.26 286.46,86.27 286.06,77.91 283.12,70.74 278.5,66.07 271.74,62.22 263.27,59.19 237.84,52.1 231.22,49.3 226.72,46.33 222.87,41.76 220.69,36.19 219.63,28.48 219.62,17.68" fill="none" stroke="#000000" stroke-width="1"/><polyline id="SvgjsPolyline6010" points="548.26,489.85 548.72,490.21 548.32,491.93 547.25,492.47 530.63,494.81 528.39,495.63 527.35,497.04 533.76,548.81" fill="none" stroke="#000000" stroke-width="1"/><polyline id="SvgjsPolyline6011" points="501.24,479.23 506.51,453.37 513.44,426.66 514.26,416.51 513.66,399.12 514.4,394.41" fill="none" stroke="#000000" stroke-width="1"/><polyline id="SvgjsPolyline6012" points="548.24,492.48 543.45,525.12 543.27,531.72 543.99,535.84 546.08,539.44 549.48,541.87 570.1,548.21 573.27,549.9 575.85,552.39 578.13,557.25 579.71,565.49 580.3,575.07 579.42,582.2" fill="none" stroke="#000000" stroke-width="1"/><polyline id="SvgjsPolyline6013" points="548.31,299.91 550.64,317.15 549.82,321.79 545.55,324.98 529.26,331.03 526.03,333.68 523.99,337.33 522.34,344.32 517.18,379.95 514.5,394.09" fill="none" stroke="#000000" stroke-width="1"/><polyline id="SvgjsPolyline6014" points="548.24,299.42 545.95,282.17 546.12,279.19 547.04,276.98 548.71,275.28 551.87,273.58 569.53,267.84 572.74,265.18 574.35,261.97 575.87,253.73 580.98,206.01" fill="none" stroke="#000000" stroke-width="1"/><polyline id="SvgjsPolyline6015" points="548.33,113.05 548.83,113.35 548.3,113.63 548.52,115.07 547.67,115.87 530.53,118.66 527.86,119.95 527.13,121.56 534.92,194.32" fill="none" stroke="#000000" stroke-width="1"/><polyline id="SvgjsPolyline6016" points="548.82,111.69 550.72,94.39 550.51,92.01 549.38,89.92 545.34,87.39 531.66,82.94 526.96,80.32 519.02,69.84 509.82,60.38 470.92,23.8 464.91,18.83 461.71,17.3" fill="none" stroke="#000000" stroke-width="1"/><polyline id="SvgjsPolyline6017" points="447.11,0.35 446.29,2.59 444.72,4.39 439.23,6.71 429.75,8.13 392.1,11.39 385.23,13.45 381.2,16.97" fill="none" stroke="#000000" stroke-width="1"/><polyline id="SvgjsPolyline6018" points="373.52,0.16 373.28,4.94 372.27,7.75 370.07,9.73 366.68,10.93 354.77,12.28 313.42,14.23 306.32,15.36 301.25,17.2" fill="none" stroke="#000000" stroke-width="1"/><polyline id="SvgjsPolyline6019" points="284.08,98.58 290.4,79.83 294.18,60.41 295.1,49.65 295.04,41.25 294.13,35.33 292.42,31.52 288.75,28.51 282.45,26.6 232.85,22.35 225.88,20.62 220.93,17.33" fill="none" stroke="#000000" stroke-width="1"/><polyline id="SvgjsPolyline6020" points="589.69,488.36 590.18,488.1 591.19,479.76 590.44,477.62 587.72,476.38 574.32,473.13 571.78,471.57 570.29,469 560.91,394.61" fill="none" stroke="#000000" stroke-width="1"/><polyline id="SvgjsPolyline6021" points="590.08,488.82 587.35,510.85 587.52,517.41 588.55,519.57 590.77,521.56 599.75,524.84" fill="none" stroke="#000000" stroke-width="1"/><polyline id="SvgjsPolyline6022" points="591.72,299.92 571.92,299.81" fill="none" stroke="#000000" stroke-width="1"/><polyline id="SvgjsPolyline6023" points="550.78,317.41 554.66,340.47 556.66,345.48 562.25,355.41 563.9,361.15 563.76,373.13 561.02,393.94" fill="none" stroke="#000000" stroke-width="1"/><polyline id="SvgjsPolyline6024" points="548.27,116.29 546.36,134.18 546.62,137.17 547.54,139.37 549.64,141.48 552.27,142.91 569.81,149.01 573.04,151.66 574.99,155.36 576.84,165.37 581.02,205.35" fill="none" stroke="#000000" stroke-width="1"/><polyline id="SvgjsPolyline6025" points="590.12,112.79 574.56,113.76 572.46,114.64 576.51,160.64" fill="none" stroke="#000000" stroke-width="1"/><polyline id="SvgjsPolyline6026" points="550.97,93.35 553.23,74.28 554.7,67.24 556.9,62.33 563.01,53.43 564.7,48.95 565.19,43.58 564.66,35.2 563.03,31.38 558.84,27.11 550.07,20.81 543.21,17.29" fill="none" stroke="#000000" stroke-width="1"/><polyline id="SvgjsPolyline6027" points="529.69,0.28 529.07,8.62 527.49,10.38 524.71,11.48 512.81,12.82 471.45,14.59 465.52,15.46 462.18,16.78" fill="none" stroke="#000000" stroke-width="1"/><polyline id="SvgjsPolyline6028" points="591.42,478 595.85,442.88 597.3,437.69 599.94,432.31" fill="none" stroke="#000000" stroke-width="1"/><polyline id="SvgjsPolyline6029" points="595.55,442.99 599.22,407.79 599.46,401.79 598.97,399.47 596.96,398.27 593.4,397.72 566.43,396.61 563.49,396.05 561.46,394.82" fill="none" stroke="#000000" stroke-width="1"/><polyline id="SvgjsPolyline6030" points="591.35,300.45 594.26,326.08 593.69,332 591.98,334.44 589.58,336.23 574.36,341.71 569.54,345.18 568,347.75 566.75,351.75 564.43,368.39" fill="none" stroke="#000000" stroke-width="1"/><polyline id="SvgjsPolyline6031" points="590.09,111.79 592.41,88.5 592.1,82.56 590.82,80.55 588.92,79.1 574.47,73.26 571.98,71.6 570.02,69.34 567.7,61.95 565.47,42.28" fill="none" stroke="#000000" stroke-width="1"/><polyline id="SvgjsPolyline6032" points="592.81,84.77 596.88,42.37 597.93,37.69 599.79,33.93" fill="none" stroke="#000000" stroke-width="1"/><polyline id="SvgjsPolyline6033" points="592.25,0.11 589.07,1.76 582.66,3.31 554.06,6.62 544.67,8.57 540.99,10.53 539.52,13.07 540.27,15.88 542.91,17.19" fill="none" stroke="#000000" stroke-width="1"/></g></svg>