<?xml version="1.0" standalone="no"?>
<svg id="SvgjsSvg1001" width="600" height="600" xmlns="http://www.w3.org/2000/svg" version="1.1" xmlns:xlink="http://www.w3.org/1999/xlink" xmlns:svgjs="http://svgjs.com/svgjs" class="svg-paper" viewBox="0 0 600 600"><title id="SvgjsTitle6469">x=(sin(sin(x))+cos(y))|y=sin((y-x))|dTest=0.0|sd=0.7|sm=0.4|ts=0.01 | generated with FlowLines</title><g id="SvgjsG6470"><polyline id="SvgjsPolyline6471" points="0.01,530.07 0,521.08" fill="none" stroke="#000000" stroke-width="1"/><polyline id="SvgjsPolyline6472" points="0.01,573.27 20,560 31.4,551.22 37.81,544.1 41.19,536.46 42.13,528.73 41.52,519.16 33.67,476.68 31.48,455.21 31.71,445.62 32.73,437.89 34.66,430.33 37.8,422.55 43.99,412.29 53.22,401.25 63.92,390.74 95.26,362.78 112.58,346.17 132.45,324.51 148,304.69 155.74,293.27 162.39,281.86 166.73,272.64 169.61,264.12 170.78,255.22 170.3,251.66 169.12,248.92 166.92,246.93 164,246.61 161.49,248.16 161.1,250.28" fill="none" stroke="#000000" stroke-width="1"/><polyline id="SvgjsPolyline6473" points="0.43,592.82 9.42,592.53 17.75,593.51 26.42,595.89 35.75,599.99" fill="none" stroke="#000000" stroke-width="1"/><polyline id="SvgjsPolyline6474" points="0.31,574.38 19.07,563.67 33.13,556.94 42.93,554.2 50.06,554.73 56.34,558.16 62.63,564.57 70.41,575.23 86.58,599.78" fill="none" stroke="#000000" stroke-width="1"/><polyline id="SvgjsPolyline6475" points="249.57,350.4 250.43,349.12 250.7,350.19 249.38,351.28 248.36,350.73 247.95,349.62 248.89,345.59 251.4,342.24 254.78,339.77 258.14,338.52 261.72,338.18 268.61,340.05 274.44,344.23 279.85,350.64 284.71,359.59 287.92,369.26 289.27,376.94 289.59,385.32 288.76,393.07 286.82,400.62 284.08,407.27 279.89,414.55 274.83,421.25 268.69,427.83 256.9,438.03 240.21,449.74 219.62,462.08 197.42,473.99 161.78,491.25 81.32,527.37 71.76,530.9 66.43,530.97 63.89,529.42 61.59,526.66 56.26,515.93 49.74,497.24 44.42,476.32 42.08,461.5 41.4,448.93 42.4,436.38 44.95,425.9 48.09,418.12 51.51,411.78 62.18,397.31 74.95,383.79 111.44,348.16 133.13,324.1" fill="none" stroke="#000000" stroke-width="1"/><polyline id="SvgjsPolyline6476" points="0.1,404.18 6.66,404.78 13.83,404.18 22.01,402.27 31.04,399.05 52.55,388.43 78.4,372.08 99.34,356.01 119.2,337.73 136.57,318.67 152.53,297.65" fill="none" stroke="#000000" stroke-width="1"/><polyline id="SvgjsPolyline6477" points="249.69,350.83 249.11,349.87 249.69,348.2 252.69,346.43 255.49,347.31 257.83,350.73 258.54,354.25 258.43,357.84 257.33,362.5 255.4,366.9 251.38,372.85 245,379.19 237.63,384.33 230.12,388.09 222.77,390.67 215.14,392.29 208.57,392.82 201.39,392.38 194.96,390.93 188.88,388.38 183.4,384.73 179.1,380.55 174.07,373.11 170.58,364.18 168.77,354.77 168.34,342.78 169.16,332.62 171.01,321.37 182.1,274.07 183.19,263.93 182.84,255.55 181.58,250.31 179.41,246.05 176.46,243.08 173.23,241.54 168.47,241.31 163.54,243.4 160.24,247.57 160.07,249.92 160.94,250.62 161.43,250.34" fill="none" stroke="#000000" stroke-width="1"/><polyline id="SvgjsPolyline6478" points="0.48,204.79 12.03,201.55 22.76,200.56 32.83,202.01 42.81,206.07 50.41,210.88 58.82,217.65 90.19,248.21 101.91,258.51 115.22,267.7 122.22,271.14 127.88,273.11 134.96,274.34 141.55,274.08 147.89,272.32 153.67,269.17 159.82,263.48 163.82,256.82 164.73,253.35 164.49,250.39 162.82,248.85 161.31,249.62" fill="none" stroke="#000000" stroke-width="1"/><polyline id="SvgjsPolyline6479" points="248.3,351.05 247.55,348.84 248.15,345.92 249.88,342.77 252.26,340.09 258.4,336.41 264.9,335.53 271.3,337 277.56,340.53 283.39,345.69 289.4,353.16 294.35,361.38 298.55,370.67 301.5,379.8 303.43,389.81 303.9,398.79 303.08,407.14 300.9,415.24 297.65,422.33 292.31,430.29 285.01,438.24 275.43,446.41 264.69,454.08 238.02,470.26 158.84,514.29 140.25,526.42 127.22,537 120.6,543.95 115.63,550.71 111.73,558.14 109.21,565.51 107.85,573.19 107.61,580.98 108.54,589.92 110.89,599.84" fill="none" stroke="#000000" stroke-width="1"/><polyline id="SvgjsPolyline6480" points="249.17,350.86 248.78,348.61 250.24,346.02 252.61,344.2 255.48,343.4 257.86,343.61 260.6,344.8 264.73,349.09 267.36,355.11 268.43,361.61 268.1,368.79 266.26,376.36 261.31,386.6 252.76,397.41 240.55,408.02 226.93,416.78 212.41,423.94 196.63,429.69 182.05,433.19 167.15,434.75 154,433.9 143.58,431.12 134.08,426.05 127.01,419.58 120.94,409.98 117.56,399.12 116.7,387.17 118.14,375.27 122.15,361.46 128.64,346.62 136.03,332.89 159.03,293.52 164.95,281.72 168.8,272.28 171.76,260.67 171.63,252.31 170.34,248.97 168.3,246.81 165.46,245.98 162.63,246.86" fill="none" stroke="#000000" stroke-width="1"/><polyline id="SvgjsPolyline6481" points="248.52,350.39 248.51,348.03 250.23,344.9 252.95,342.57 256.28,341.25 259.27,341.08 262.75,341.95 268.12,345.71 272.93,352.56 275.83,360.42 277.13,369.31 276.57,378.88 274.91,385.88 272.29,392.58 268.51,399.4 263.96,405.73 251.83,418.17 236.04,430.09 214.84,442.56 192.55,452.95 171.11,460.67 158.95,463.96 148.35,466.04 131.02,467.27 117.99,465.4 112.31,463.46 106.99,460.7 101.74,456.71 97.26,451.88 93.61,446.39 90.55,439.87 88.55,433.59 87.13,425.92 86.69,419.34 87.1,410.96 90.28,396.32 95.99,382.47 104.68,367.4 146.82,309.04 156.28,294.44 163.01,282.39 168.86,268.59 171.18,257.46 170.93,252.68 169.75,249.3 167.76,247.09 164.91,246.33" fill="none" stroke="#000000" stroke-width="1"/><polyline id="SvgjsPolyline6482" points="0.05,359.24 10.81,364.55 22.11,368.54 33.3,370.64 44.69,370.89 55.98,369.39 68.12,366.04 81.4,360.5 94,353.53 107.79,343.95 122.8,331.05 135.33,318.14 147.92,302.86 158.41,287.51 165.72,273.74 169.62,262.41 170.42,257.08 170.15,252.3" fill="none" stroke="#000000" stroke-width="1"/><polyline id="SvgjsPolyline6483" points="249.37,350.04 250.21,348.51 251.91,348.31 253.07,349.64 253.41,351.4 252.52,355.47 249.93,359.49 247.33,361.97 243.27,364.52 238.76,366.14 234.61,366.72 228.11,365.83 222.37,362.65 218.1,357.65 215.17,351.09 213.34,341.08 213.41,327.89 215,314.19 220.3,281.01 221.47,260.67 220.57,251.12 218.77,243.53 215.72,236.37 211.58,230.5 207.61,226.85 204.06,224.6 195.57,221.74 186,221.55 175.59,224.3 170.76,226.69 165.83,230.1 161.55,234.3 158.51,238.75 156.62,243.79 156.53,248.55 158.37,251.54 160.1,251.84 161.52,250.82" fill="none" stroke="#000000" stroke-width="1"/><polyline id="SvgjsPolyline6484" points="0.46,239.78 13.1,243.56 27.31,249.98 39.31,256.78 70.4,276.09 86.86,284.74 102.62,290.5 115.62,292.66 125.8,292.26 135.65,289.72 144.23,285.43 152.3,279.22 160.85,269.2 163.85,264.01 165.86,259.01 166.76,254.3 166.17,250.18 164.08,248.17 162.33,248.33 161.41,249.08" fill="none" stroke="#000000" stroke-width="1"/><polyline id="SvgjsPolyline6485" points="0,165.19 1.36,156.9 1.83,148.52 1.48,138.93 0.02,126.42" fill="none" stroke="#000000" stroke-width="1"/><polyline id="SvgjsPolyline6486" points="0.13,196.45 22.79,181.77 32.51,174.75 39.07,168.6 42.87,162.52 44.75,154.37 44.25,144.2 35.91,101.82 33.57,83.98 33.38,69.59 35.07,57.73 37.31,50.26 39.94,44.21 47.99,31.58 60.45,17.79 79.42,0.3" fill="none" stroke="#000000" stroke-width="1"/><polyline id="SvgjsPolyline6487" points="290.43,0.38 290.86,8.76 290.05,17.11 287.95,25.24 284.63,32.94 280.25,40.11 274.24,47.59 267.47,54.39 258.29,62.11 236.52,77.03 210.53,92 179.05,108.18 121.69,135.65 103.7,145.27 90.42,154.51 86.23,158.79 83.23,163.27 80.93,170.06 80.58,178.43 82.47,189.66 86.06,201.11 91.64,214.38 99.18,228.71 107,240.8 115.26,251.08 122.58,258.17 130.44,263.66 137.63,266.64 144.75,267.51 152.31,265.81 155.98,263.77 159.18,261.07 162.12,257.28 163.57,254 163.87,251.03 162.57,249.19" fill="none" stroke="#000000" stroke-width="1"/><polyline id="SvgjsPolyline6488" points="250.1,349.01 250.69,348.94 251.29,349.92 250.56,352.16 248.25,354.02 245.91,354.47 244.17,354.07 242.24,352.67 240.18,348.39 239.76,343.62 240.35,338.26 244.92,324 250.13,313.2 258.25,299.18 285.78,257.69 295.84,241.34 303.11,226.87 307.87,213.29 310.19,199.11 309.51,185.95 308,179.53 305.65,173.37 302.75,168.12 299.13,163.34 294.82,159.17 290.44,156.04 285.11,153.28 279.45,151.29 266.44,149.23 252.07,149.72 234.96,152.85 216.07,158.75 197.89,166.57 180.57,176.15 166.37,186.19 154.17,197.71 145.77,209.37 142.88,215.3 140.63,222.13 139.38,230.43 139.72,238.21 141.69,245.74 144.86,251.51 149.73,255.88 152.53,256.93 155.52,257.05 158.36,256.15 160.75,254.36 162.44,251.24 161.86,249.71" fill="none" stroke="#000000" stroke-width="1"/><polyline id="SvgjsPolyline6489" points="250.78,350.82 249.61,352.15 247.91,352.67 245.41,351.23 244.28,347.25 244.84,342.49 246.6,337.4 249.4,332.09 257.15,322.19 264.89,315.57 273.75,310.55 283.47,307.53 293.62,306.67 301.38,307.34 309.6,309.06 325.91,315.07 341.32,323.14 382.35,348.03 394.22,353.8 403.78,357.34 416.04,360.19 429.2,361.03 442.31,359.64 455.63,356.08 465.1,352.29 473.66,347.95 490.65,336.69 507.71,321.59 523.98,303.16 532.09,291.99 538.08,282.3 543.16,272.1 545.97,264.19 547.29,255.92 547,252.34 546.02,249.51 544.03,247.32 541.15,246.74 538.57,248.15 538.1,250.27" fill="none" stroke="#000000" stroke-width="1"/><polyline id="SvgjsPolyline6490" points="249.77,351.6 248.04,351.78 246.54,350 246.25,347.63 246.94,344.11 250.63,337.28 257,330.96 263.25,327.42 269.59,325.64 276.17,325.36 283.25,326.58 294.84,331.46 307.25,339.85 320.34,351.31 351.56,382.02 360.4,389.21 368.52,394.32 377.98,398.09 388.05,399.53 399.37,398.44 410.34,395.36 421.99,390.57 434.28,384.31 448.21,376.03 461.62,366.94 473.08,358.23 484.97,348.14 495.44,338.25 506.61,326.52 517.51,313.74 527.27,300.82 535.8,287.76 541.49,277.2 545.55,267.2 547.52,258.43 547.24,251.87 546.12,249.1 544.5,247.35" fill="none" stroke="#000000" stroke-width="1"/><polyline id="SvgjsPolyline6491" points="248.76,351.61 247.41,350.52 247.04,347.59 248.27,343.59 250.49,340.04 256.72,334.47 260.49,332.63 264.54,331.54 271.71,331.51 278.62,333.48 285.98,337.5 294.36,344.29 302.94,353.51 311.57,365.03 320.77,379.8 328.63,394.64 335.54,409.95 340.18,422.94 341.91,431.76 341.73,435.34 340.78,438.18 338.67,441.08 335.49,443.82 324.19,450.62 301.57,461.72 240.45,489.66 214.09,502.66 182.55,520.01 158.47,535.79 149.07,543.25 140.78,551.06 134.89,557.87 129.55,565.83 125.7,573.96 123.34,582.01 122.22,590.93 122.54,599.92" fill="none" stroke="#000000" stroke-width="1"/><polyline id="SvgjsPolyline6492" points="0.45,311.75 19.42,322.07 32.4,328.31 44.15,332.85 56.31,336.12 68.79,337.76 81.38,337.53 93.19,335.49 104.02,331.96 117.91,324.91 131.47,315 144.36,302.46 155.92,287.91 164.98,272.38 167.86,265.13 169.49,258.13 169.5,252.75 168.03,248.85 165.08,246.97 161.78,248.07" fill="none" stroke="#000000" stroke-width="1"/><polyline id="SvgjsPolyline6493" points="251.11,348.96 251.63,350.01 251.38,351.78 248.81,355.02 244.95,356.57 241.4,356.18 238.42,354.21 236.41,351.25 235.12,347.26 234.62,342.5 235.24,334.13 237.58,323.59 254.32,274.79 257.53,262 259.13,251.32 259.38,239.93 257.69,228.68 253.95,218.57 247.89,209.66 242.59,204.8 235.94,200.76 228.05,197.91 220.37,196.6 211.98,196.44 202.46,197.62 193.17,200.03 183.69,203.77 174.23,208.97 165.17,215.87 159.02,222.42 154.2,230.01 152.22,235.02 151.16,240.31 151.15,244.5 152.09,248.59 153.9,251.67 156.91,253.54 160.35,252.87 161.95,250.46" fill="none" stroke="#000000" stroke-width="1"/><polyline id="SvgjsPolyline6494" points="284.63,0.11 284.1,9.09 282.23,17.27 279.12,25.06 274.26,33.33 268.72,40.42 260.74,48.55 251.55,56.26 240.34,64.31 224.56,74.15 207.21,83.69 186.19,93.96 166.36,102.53 146.72,109.94 128.96,115.47 115.5,118.47 104.76,119.5 96.99,118.93 89.54,116.68 82.95,112.55 77.87,107.46 72.81,100.03 68.97,91.9 65.97,82.78 63.83,72.21 63.04,62.64 63.27,54.25 64.68,44.76 66.91,36.67 70.27,28.32 75.08,19.33 81.39,9.84 88.71,0.34" fill="none" stroke="#000000" stroke-width="1"/><polyline id="SvgjsPolyline6495" points="0.28,30.03 6.87,30.16 13.99,29.11 28.77,24.19 49.67,13.69 71.58,0.09" fill="none" stroke="#000000" stroke-width="1"/><polyline id="SvgjsPolyline6496" points="331.85,0.01 346.7,18.09 356.61,27.67 361.54,31.09 366.4,33.43 370.42,34.61 375.78,35.2 381.17,34.85 387.62,33.48 404.35,26.9 425.44,15.46 449.16,0.23" fill="none" stroke="#000000" stroke-width="1"/><polyline id="SvgjsPolyline6497" points="312.78,0.41 317.55,11.41 320.81,21.07 322.98,30.42 323.84,39.97 323.06,47.72 320.85,54.55 317.6,60.29 312.55,66.22 301.86,74.92 287.05,84.04 206.95,125.07 184.4,137.6 168.52,147.28 155.16,156.44 143.5,165.87 134.25,175.27 127.53,184.46 123.9,191.36 121.27,198.7 119.81,205.74 119.28,212.92 119.64,220.11 121.1,228.37 123.6,236.39 127.11,244.01 131.7,251.03 136.62,256.28 141.53,259.7 147.18,261.66 153.13,261.43 158.49,258.83 161.04,256.3 162.58,253.73 163.13,250.82 162.15,249.46" fill="none" stroke="#000000" stroke-width="1"/><polyline id="SvgjsPolyline6498" points="249.98,352.4 246.7,353.62 243.64,351.93 242.05,348.09 241.99,342.71 243.42,336.28 245.77,330.11 249.28,323.15 254.38,315.02 265.23,301.44 276.94,290.26 289.68,281.29 303.24,274.91 314.22,271.88 326.73,270.5 338.71,270.97 352.26,273.5 363.69,277.13 375.86,282.25 418.93,304.74 437.66,312.81 449.14,316.28 458.56,318.09 467.53,318.84 477.11,318.49 490.61,315.71 504.33,309.71 516.62,301.16 527.77,290.26 533.76,282.77 538.69,275.24 542.26,268.31 544.72,261.55 545.76,255.05 545.02,250.34 542.74,247.66 540.99,247.31 539.3,247.85" fill="none" stroke="#000000" stroke-width="1"/><polyline id="SvgjsPolyline6499" points="248.01,353.85 246.23,354.09 243.99,353.33 242.33,351.62 241.16,348.87 240.86,341.72 242.72,333.54 246.51,324.08 252.18,313.51 259.7,301.94 268.35,290.43 287.17,269.45 306.5,252.38 316.7,244.99 327.93,238.06 337.53,233.12 348.06,228.75 361.3,224.89 374.37,223.22 386.93,223.97 399.68,227.32 409.56,231.67 419.96,237.64 456.62,263.72 472.34,273.66 485.9,280.03 492.77,282.18 499.85,283.48 508.23,283.61 515.88,282.16 524.12,278.59 530.92,273.68 538.39,265.11 542.24,257.01 542.86,252.87 542.25,249.96 541.03,248.67 539.87,248.44 538.14,249.86" fill="none" stroke="#000000" stroke-width="1"/><polyline id="SvgjsPolyline6500" points="245.27,354.11 242.73,352.59 240.83,348.89 240.32,344.13 241.04,338.18 245.65,324.57 254.75,307.68 265.84,291.28 280.61,272.37 295.95,254.7 324.88,223.43 336.45,209.65 345.48,196.21 351.07,184.27 353.85,175.09 355.41,165.62 355.75,154.84 354.69,143.49 352.38,132.33 348.67,120.93 343.76,110.65 338.95,103.77 334.68,99.58 329.61,96.4 323.91,94.55 318.55,93.98 311.96,94.3 303.1,95.86 280.7,102.56 261.59,109.72 240.57,118.54 205.43,135.44 175.77,152.45 163.35,160.86 152.96,168.99 145.47,175.91 139.83,182.13 134.84,188.89 130.99,195.66 127.88,203.46 126.3,209.86 125.49,217.01 125.74,225.4 127.38,234.24 130.41,242.7 134.91,250.48 140.19,256.2 146.39,259.78 152.3,260.48 157.91,258.5 162.02,254.22" fill="none" stroke="#000000" stroke-width="1"/><polyline id="SvgjsPolyline6501" points="599.45,195.02 592.26,194.83 585.09,195.45 576.85,197.07 569.39,199.33 562.16,202.26 554.2,206.44 547.67,210.71 541.65,215.66 536.31,221.34 531.93,227.78 528.9,234.95 527.84,240.85 528.64,247.96 531.5,252.46 533.6,253.57 535.98,253.56 538.02,252.35 538.93,250.22" fill="none" stroke="#000000" stroke-width="1"/><polyline id="SvgjsPolyline6502" points="334.93,599.68 360.49,578.81 372.7,567.29 377.81,561.4 382.29,555.01 385.39,549.19 387.73,543.03 390.02,531.27 390.17,516.88 388.7,502.56 383.25,466.98 382.36,452.62 382.8,446.03 384.08,439.56 386.07,433.91 388.92,428.64 395.24,420.65 405.4,411.33 455.07,374.57 479.59,354.33 500.18,334.2 520.04,310.94" fill="none" stroke="#000000" stroke-width="1"/><polyline id="SvgjsPolyline6503" points="599.58,385.3 592.42,386.04 586.44,385.72 580.58,384.44 575.05,382.14 570.07,378.82 566.2,375.06 562.99,370.72 560.21,365.41 557.88,358.6 556.41,350.95 556.01,334.18 557.98,317.5 565.82,275.64 566.68,263.67 565.85,254.12 563.92,247.83 560.7,242.79 556.96,239.82 552.43,238.3 545.91,238.82 540.17,241.99 537.81,244.69 536.6,247.42 536.84,250.33 538.37,250.49" fill="none" stroke="#000000" stroke-width="1"/><polyline id="SvgjsPolyline6504" points="325.57,599.69 340.96,580.52 345.73,572.89 349.97,564.28 352.77,556.37 354.82,547 355.64,537.44 355.4,528.44 353.87,517.15 350.76,504.95 346.64,494.33 341.34,484.93 335.91,478.54 330.59,474.67 323.85,472.19 316.1,471.52 305.39,472.79 290.29,476.7 271,483.34 248.16,492.46 225.17,502.78 204.77,512.96 186.92,522.83 169.63,533.65 158.92,541.36 149.27,549.46 141.31,557.61 135.13,565.72 130.47,574.1 127.57,581.97 125.92,590.2 125.63,599.79" fill="none" stroke="#000000" stroke-width="1"/><polyline id="SvgjsPolyline6505" points="249.81,0.2 245.01,4.73 239.23,9.02 227.06,15.47 214.46,19.33 201.94,20.6 190.66,19.19 180.67,15.17 176.21,12.13 172.25,8.46 166.37,0.17" fill="none" stroke="#000000" stroke-width="1"/><polyline id="SvgjsPolyline6506" points="265.45,0.07 260.23,10.17 251.45,20.79 240.99,29.77 227.4,38.57 212.87,45.73 196.5,51.6 180.1,55.17 166.35,56.1 154.41,55 144.63,52.18 135.7,47.31 128.65,40.82 123.37,32.83 119.73,22.69 118.39,11.99 119.21,0.03" fill="none" stroke="#000000" stroke-width="1"/><polyline id="SvgjsPolyline6507" points="250.05,316.24 257.51,303.93 265.43,292.63 275.41,279.87 286.39,267.16 298.79,254.11 311.76,241.63 358.34,200.13 368.32,188.94 375.69,177.3 378.68,170.1 380.43,163.74 381.57,156.64 382.03,148.25 380.41,127.34 373.76,90.13 372.2,77.03 372.85,65.08 374.23,60.49 376.71,55.7 383.33,47.97 393.06,39.97 450.86,0.16" fill="none" stroke="#000000" stroke-width="1"/><polyline id="SvgjsPolyline6508" points="246.74,322.97 252.11,312.92 258.19,303.28 272.14,284.5 290.03,264.29 310.06,245.32 333.13,227.11 358.11,210.51 382.22,197.09 392.65,192.48 401.2,189.7 409.48,188.4 417.24,189.01 424.05,191.29 430.68,195.37 442.4,206.52 467.96,237.55 480.1,250.83 493.25,262.19 504.69,268.72 511.57,270.82 518.13,271.36 524.04,270.43 529.57,268.12 535.71,263.36 539.89,257.54 541.41,251.79 540.68,249.55 539.06,249.06" fill="none" stroke="#000000" stroke-width="1"/><polyline id="SvgjsPolyline6509" points="600,152.79 575.7,163.06 564.57,168.97 552.84,176.23 543.15,183.31 535.03,190.43 528.49,197.45 523.18,204.71 518.49,213.75 515.53,224.11 515.03,234.28 517.06,244.24 519.31,249.14 522.12,253.02 525.31,255.74 528.59,257.18 532.76,257.32 536.55,255.62 539.17,252.39 539.51,250.64 538.91,249.7" fill="none" stroke="#000000" stroke-width="1"/><polyline id="SvgjsPolyline6510" points="357.83,599.95 369.51,597.24 379.66,596.4 389.23,597.1 400.27,599.86" fill="none" stroke="#000000" stroke-width="1"/><polyline id="SvgjsPolyline6511" points="338.73,599.94 361.31,585.15 385.91,571.38 401.97,564.73 408.39,563.21 413.76,562.76 419.12,563.34 423.69,564.8 428.99,567.59 433.3,570.83 442.95,580.68 458.17,600" fill="none" stroke="#000000" stroke-width="1"/><polyline id="SvgjsPolyline6512" points="337.99,599.89 355.77,587.62 379.02,572.76 436.35,539 436.01,534.3 427.33,507.47 422.61,490.72 417.61,465.43 416.6,452.87 416.92,442.08 418.43,432.61 421.48,422.89 427.87,410.68 438.52,396.94 449.76,385.28 489.46,346.93 513.39,320.05 524,306.26 532.13,294.38 539.12,282.48 543.73,272.72" fill="none" stroke="#000000" stroke-width="1"/><polyline id="SvgjsPolyline6513" points="599.74,427.59 580.3,436.96 560.5,443.93 549.43,446.67 539.97,448.25 523.21,448.91 515.47,447.97 509.07,446.36 502.96,443.89 497.8,440.84 493.16,437.04 488.81,432.09 485.33,426.49 482.73,420.43 480.18,408.73 480.18,396.75 482.49,384.38 486.86,371.93 491.48,362.17 498.27,350.16 525.87,307.99 535.23,292.62 541.61,280.39 546.09,269.26 548.47,258.14 548.41,253.95 547.59,250.45 545.62,247.48 542.94,246.23 540.03,246.75 537.97,248.84" fill="none" stroke="#000000" stroke-width="1"/><polyline id="SvgjsPolyline6514" points="599.7,405.1 586.73,409.79 575.01,412.31 563.05,413.07 551.75,411.74 541.03,407.94 533,402.7 526.08,395.25 521.46,386.86 518.84,378.26 517.7,368.74 518.13,357.96 519.85,347.91 522.71,337.5 526.54,326.76 546.06,280.96 549.35,270.67 551,262.44 550.86,252.89 549.73,249.48 548.03,247.02 544.96,245.23 541.42,245.38 538.49,247.39 537.73,250.15" fill="none" stroke="#000000" stroke-width="1"/><polyline id="SvgjsPolyline6515" points="599.87,351.98 598.04,345.03 597.37,335.46 598.04,325.29 599.93,312.83" fill="none" stroke="#000000" stroke-width="1"/><polyline id="SvgjsPolyline6516" points="295.2,599.61 296.48,587.09 295.49,576.36 292.3,566.06 287.12,557.3 280.37,550.51 271.09,545.05 260.77,541.91 248.85,540.73 233.9,541.81 218.09,545.3 201.14,551.31 184.47,559.53 170.42,568.73 158.74,579.05 150.9,588.89 145.55,599.6" fill="none" stroke="#000000" stroke-width="1"/><polyline id="SvgjsPolyline6517" points="313.21,599.71 320.58,583.96 323.22,575.36 324.68,567.7 325.28,559.33 324.93,552.14 323.62,544.46 321.29,537.02 318.18,530.54 314.47,525.08 309.53,519.86 304.74,516.25 298.88,513.24 292.6,511.22 278.91,509.72 268.73,510.31 258.07,511.98 246.39,514.75 232.65,519.03 206.57,529.74 193.73,536.24 180.77,543.78 169.82,551.16 161.79,557.44 154.28,564.34 148.27,571.03 143.37,577.86 139.4,585.25 136.9,592 135.31,599.62" fill="none" stroke="#000000" stroke-width="1"/><polyline id="SvgjsPolyline6518" points="271.52,285.17 281.98,272.8 294.75,259.28 308.28,246.52 322.04,234.92 351.57,213.31 410.04,175.57 417.57,169.62 421.48,165.08 423.99,159.02 424.35,150.66 422.68,139.39 414.91,103.63 412.56,88.21 411.8,72.04 413.5,57.76 415.67,50.27 418.49,43.65 426.48,30.98 438.42,17.53 456.8,0.3" fill="none" stroke="#000000" stroke-width="1"/><polyline id="SvgjsPolyline6519" points="599.75,87.05 566.98,104.65 507.36,134.33 490.08,143.98 479.66,151.06 473.34,156.59 468.42,162.62 465.21,169.05 463.41,176.62 463.42,186.2 465.22,196.23 468.56,207.13 473.61,219.32 480.3,232.06 487.52,243.11 494.72,251.94 501.67,258.55 509.12,263.58 515.8,266.22 522.93,266.92 529.88,265.18 536.24,260.73 540.2,254.78 540.84,251.86 540.2,249.61" fill="none" stroke="#000000" stroke-width="1"/><polyline id="SvgjsPolyline6520" points="599.67,469.65 514.67,515.54 497.16,527.11 485.59,537.54 480.5,544.21 477.41,550.04 475.12,556.85 473.91,564.55 473.98,572.94 475.05,580.66 477.2,589.4 480.8,599.58" fill="none" stroke="#000000" stroke-width="1"/><polyline id="SvgjsPolyline6521" points="599.58,453.02 569.83,468.62 537.41,482.81 506.82,493.47 495.2,496.44 485.14,498.08 477.35,498.37 470.81,497.55 464.55,495.48 459.88,492.78 455.36,488.85 451.2,483.74 446.97,476.49 443.7,468.76 441.08,460.15 439.33,451.33 438.49,442.97 438.49,434.57 440.76,419.77 443.33,411.78 447.01,403.57 453.43,392.74 462.36,380.69 500.98,336.36 517.19,316.29 529.73,298.71 538.98,283.27" fill="none" stroke="#000000" stroke-width="1"/><polyline id="SvgjsPolyline6522" points="258.26,599.94 255.6,593.91 251.72,587.85 247.73,583.38 242.59,579.26 237.37,576.31 231.2,573.98 224.75,572.57 216.98,571.98 208.6,572.47 200.34,573.96 192.28,576.32 183.95,579.72 176.54,583.67 169.11,588.73 163.24,593.86 158.11,599.73" fill="none" stroke="#000000" stroke-width="1"/><polyline id="SvgjsPolyline6523" points="599.84,75.29 579.78,86.11 556.46,97.15 532.59,106.93 511.01,114.28 495.31,118.26 482.23,119.87 472.09,119.01 463.73,115.78 458.41,111.89 454.27,107.55 449.88,101.12 446.41,94.13 443.36,85.67 441.34,77.52 439.98,68.02 439.67,60.23 440.19,51.85 441.38,44.75 446.03,30.52 454.1,15.8 465.54,0.39" fill="none" stroke="#000000" stroke-width="1"/><polyline id="SvgjsPolyline6524" points="599.51,517.57 578.85,527.2 561.01,537.08 545.5,547.33 532.94,557.55 523.43,567.54 516.33,577.93 511.83,588.38 509.68,599.55" fill="none" stroke="#000000" stroke-width="1"/><polyline id="SvgjsPolyline6525" points="599.76,31.64 584.64,37.42 568.24,40.96 553.27,41.41 546.14,40.44 539.76,38.74 534.22,36.45 528.56,33.08 523.94,29.25 519.25,23.8 516.14,18.67 513.78,13.16 512.15,7.39 511.11,0.27" fill="none" stroke="#000000" stroke-width="1"/><polyline id="SvgjsPolyline6526" points="599.85,51.51 585.91,58.5 572.03,64.18 557.17,68.9 545.46,71.53 532.96,73.09 521.57,73.06 512.68,71.72 503.58,68.73 496.3,64.56 489.69,58.48 484.35,50.53 480.86,41.6 479.15,32.17 479.09,21.98 480.76,11.32 484.08,0.43" fill="none" stroke="#000000" stroke-width="1"/><polyline id="SvgjsPolyline6527" points="599.77,563.62 589.63,564.62 579.1,567.01 568.9,570.56 559.14,575.16 550.92,580.12 542.84,586.33 536.1,593.15 531.19,599.96" fill="none" stroke="#000000" stroke-width="1"/></g></svg>