<?xml version="1.0" standalone="no"?>
<svg id="SvgjsSvg1001" width="600" height="600" xmlns="http://www.w3.org/2000/svg" version="1.1" xmlns:xlink="http://www.w3.org/1999/xlink" xmlns:svgjs="http://svgjs.com/svgjs" class="svg-paper" viewBox="0 0 600 600"><title id="SvgjsTitle5768">x=max(sqrt(x*x + y*y)*x,sin(sqrt(x*x + y*y)))|y=y|dTest=0.0|sd=0.6|sm=0.4|ts=0.01 | generated with FlowLines</title><g id="SvgjsG5769"><polyline id="SvgjsPolyline5770" points="111.75,299.68 98.2,316.5 64.51,355.58 50.98,372.42 36.8,392.51 24.81,413.29 18.46,426.88 13.87,438.61 6.65,463.36 1.92,491.15 0,521.08" fill="none" stroke="#000000" stroke-width="1"/><polyline id="SvgjsPolyline5771" points="111.13,299.7 62.05,261.17 47.69,248.43 36.25,236.97 24.9,223.78 15.47,210.61 7.04,196.09 0.1,180.8" fill="none" stroke="#000000" stroke-width="1"/><polyline id="SvgjsPolyline5772" points="111.91,300.28 133.29,315.76 149.57,329.02 162.71,341.31 176.37,356.45 188.1,372.39 198.12,389.46 205.37,405.27 211.54,423.44 215.24,439.83 217.24,455.9 217.73,472.68 216.77,489.45 212.2,519.7 199.8,575.33 195.13,599.48" fill="none" stroke="#000000" stroke-width="1"/><polyline id="SvgjsPolyline5773" points="111.66,300.6 115.2,318.85 116.9,337.96 116.64,357.15 114.25,378.01 111.07,393.89 105.93,413.01 81.03,485.65 75.83,502.88 71.25,520.91 67.47,540.34 64.91,559.97 63.64,577.93 63.36,599.52" fill="none" stroke="#000000" stroke-width="1"/><polyline id="SvgjsPolyline5774" points="110.98,300.06 41.89,308.45 20.03,312.31 0.24,317.2" fill="none" stroke="#000000" stroke-width="1"/><polyline id="SvgjsPolyline5775" points="110.54,300.46 67.91,321.18 52.16,329.89 39.95,337.51 27.77,346.27 17.23,355.17 7.97,364.56 0.04,374.35" fill="none" stroke="#000000" stroke-width="1"/><polyline id="SvgjsPolyline5776" points="111.38,300.82 106.05,324.2 97.82,348.01 87.47,371.64 64.16,419.01 54.68,439.75 46.52,460.39 39.47,482.7 33.53,509.64 30.14,538.23 29.35,567.61 30.99,599.96" fill="none" stroke="#000000" stroke-width="1"/><polyline id="SvgjsPolyline5777" points="112.02,299.22 120.4,285.36 127.83,270.97 133.98,256.64 138.12,244.74 141.99,230.25 144.39,217.27 145.95,202.36 146.29,188.57 145,168.22 141.65,146.88 136.97,126.41 122.78,74.93 117.2,52.21 112.27,25.67 109.47,0.03" fill="none" stroke="#000000" stroke-width="1"/><polyline id="SvgjsPolyline5778" points="111.44,299.12 110.05,287.2 107.25,272.47 103.59,258.54 99.13,244.85 88.71,218.66 58.26,150.78 49.81,127.68 43.96,107.52 38.96,83.44 35.83,56.63 34.98,28.45 36.18,0.28" fill="none" stroke="#000000" stroke-width="1"/><polyline id="SvgjsPolyline5779" points="110.26,299.7 69.48,289.63 41.89,281.4 18.46,272.16 8.3,266.99 0.11,261.99" fill="none" stroke="#000000" stroke-width="1"/><polyline id="SvgjsPolyline5780" points="111.92,299.92 167.08,288.19 185.61,283.16 203.23,277.22 218.1,270.8 230.18,264.14 241.98,255.9 251.96,247.27 264.36,234.23 276.3,219.2 287.98,201.76 297.23,184.94 302.61,172.89 307.23,159.89 315.92,123.12 322.26,103.11 331.86,81.78 343.01,64.01 351.24,53.7 359.9,44.55 368.79,36.49 379.67,28 390.61,20.62 402.5,13.62 418,5.72 430.61,0.1" fill="none" stroke="#000000" stroke-width="1"/><polyline id="SvgjsPolyline5781" points="112.65,300.23 147.88,307.66 168.86,312.76 187.3,318.11 204.24,324.18 219.5,331.2 231.39,338.2 242.95,346.76 254,356.9 266.03,370.28 277.62,385.58 288.28,402.27 297.14,419.29 302.41,432.04 306.61,445.18 313.89,480.42 319.86,501.8 327.81,521.87 336.63,538.23 349.25,555.74 356.88,564.21 365.1,572.1 383.99,586.88 405.54,599.92" fill="none" stroke="#000000" stroke-width="1"/><polyline id="SvgjsPolyline5782" points="112.05,300.74 122.56,316.08 130.5,329.5 137.47,343.45 142.94,356.77 147.2,369.89 150.94,385.65 153,399.29 154.03,414.25 153.45,435.24 150.4,458.43 144.93,483.64 131.79,532.91 126.78,553.92 122.66,575.74 119.72,599.55" fill="none" stroke="#000000" stroke-width="1"/><polyline id="SvgjsPolyline5783" points="113.15,300.68 141.28,312.72 164.43,324.1 182.99,335.13 200.33,347.99 215.18,361.96 229.42,378.98 241.33,396.98 251.47,416.72 258.09,434.09 262.77,452.09 265.37,470.49 265.94,489.68 264.65,508.83 261.95,527.83 247.14,599.51" fill="none" stroke="#000000" stroke-width="1"/><polyline id="SvgjsPolyline5784" points="113.2,301.61 127.16,315.64 140.62,330.96 152.12,346.33 161.01,360.58 168.64,375.54 174.69,390.57 179.48,406.66 182.68,423.15 184.13,437.47 184.43,451.26 183.69,465.64 181.88,481.13 176.59,508.83 162.3,568.95 156.89,599.67" fill="none" stroke="#000000" stroke-width="1"/><polyline id="SvgjsPolyline5785" points="111.59,299.94 132.33,285.63 149.87,272.03 165,258.35 178.07,244.3 189.41,229.57 200.14,212.23 207.99,196.04 214.7,177.42 218.79,160.51 220.95,145.07 221.7,127.09 220.82,109.72 219.1,95.42 215.9,77.1 203.67,22.05 199.48,0.25" fill="none" stroke="#000000" stroke-width="1"/><polyline id="SvgjsPolyline5786" points="111.71,299.34 116.93,278.39 119.55,258.78 120.01,237.79 118.17,216.88 114.86,198.58 109.65,178.24 86.23,107 77.74,75.74 73.9,56.32 71.32,37.3 69.85,17.55 69.51,0.16" fill="none" stroke="#000000" stroke-width="1"/><polyline id="SvgjsPolyline5787" points="112.69,298.84 127.6,283.21 139.55,268.97 150.07,254.36 158.74,239.98 166.14,224.9 172.32,208.64 176.61,193.03 179.41,177.08 180.62,163.94 180.84,149.54 180.11,136.37 178.34,121.47 173.28,94.96 158.09,31.35 152.69,0.02" fill="none" stroke="#000000" stroke-width="1"/><polyline id="SvgjsPolyline5788" points="111.09,299.24 96.96,276.24 60.04,223.72 46.06,202.04 38.92,189.54 31.64,175.07 25.94,161.85 20.83,147.74 16.31,132.19 12.63,115.19 10.04,97.38 8.72,81.84 8.14,64.45 8.48,44.65 9.96,21.9 12.2,0.42" fill="none" stroke="#000000" stroke-width="1"/><polyline id="SvgjsPolyline5789" points="113.28,300 253.67,300.61 277.66,301.32 289.55,302.83 293.45,304.35 296.37,306.45 314.24,323.35 351.54,356.33 360.02,363.01 370.03,369.63 380.52,375.45 404.2,385.66 419.57,390.78 438.67,396 460.34,400.8 482.18,404.75 533.91,411.72 599.64,417.63" fill="none" stroke="#000000" stroke-width="1"/><polyline id="SvgjsPolyline5790" points="114.83,299.82 175.92,296.16 212.36,292.75 238.98,288.3 248.25,285.82 257.27,282.54 266.34,277.91 274.68,272.05 283.61,264.03 294.77,252.29 317.48,225.15 327,212.04 341.07,190.43 354.71,174.48 362.6,167.12 371.96,159.61 382.35,152.48 394.24,145.49 410.92,137.27 430.96,129.2 452.03,122.24 476.35,115.64 503.29,109.64 532.21,104.34 563.65,99.58 599.96,95.06" fill="none" stroke="#000000" stroke-width="1"/><polyline id="SvgjsPolyline5791" points="113.08,299.38 141.92,287.49 165.76,276.16 184.96,265.03 201.94,252.7 217.35,238.45 230.6,222.95 243.39,204.09 253.47,185 260.54,167.15 265.43,149.22 268.41,129.05 268.97,109.27 267.83,91.91 264.91,71.12 250.23,0.02" fill="none" stroke="#000000" stroke-width="1"/><polyline id="SvgjsPolyline5792" points="116.17,299.47 170.94,292.64 192.84,288.99 208.68,285.6 223.69,281.39 235.5,276.99 246.78,271.4 255.85,265.54 266.51,256.79 277.88,245.26 289.9,231.07 300.7,216.67 315.35,193.3 328.52,165.03 333.91,154.99 340.39,144.89 348.07,134.91 358.68,123.48 371.81,112.08 386.02,102.04 401.04,93.27 418.85,84.63 438.32,76.77 459.93,69.49 483.02,62.96 508.12,56.98 535.76,51.42 567.12,46.12 599.79,41.48" fill="none" stroke="#000000" stroke-width="1"/><polyline id="SvgjsPolyline5793" points="117.21,298.57 152.57,289.16 177.71,281.11 198.26,272.73 215.71,263.39 231.82,251.9 246.26,238.38 260.56,221.41 273.05,203.06 282.85,185.18 290.3,167.5 295.56,149.67 298.49,133.13 299.74,110.38 298.35,0.59" fill="none" stroke="#000000" stroke-width="1"/><polyline id="SvgjsPolyline5794" points="121.46,297.78 152.4,290.44 175.51,283.97 196.45,276.62 212.29,269.44 227.27,260.61 241.04,249.99 253.47,237.82 265.43,223.59 274.53,210.92 283.66,196.11 290.55,182.79 296.77,167.84 300.11,157.57 303.23,144.75 310.16,93.03 313.82,74.79 318.17,58.57 323.74,42.73 330.46,27.99 338.9,13.47 348.48,0.42" fill="none" stroke="#000000" stroke-width="1"/><polyline id="SvgjsPolyline5795" points="118.29,298.94 172.66,289.42 189.62,285.53 206.34,280.75 219.31,276.03 231.81,270.2 243.6,263.04 254.03,254.96 266.11,243.29 277.49,230.13 288.98,214.76 298.71,199.62 305.88,186.45 311.32,174.42 321.26,144.86 326.18,132.62 333.5,118.17 340.9,106.53 350.53,94.27 361.82,82.66 374.7,71.88 390.55,61.06 407.82,51.39 427.41,42.3 449.25,33.9 474.4,25.88 502.24,18.52 531.53,12.06 563.98,6.07 599.56,0.56" fill="none" stroke="#000000" stroke-width="1"/><polyline id="SvgjsPolyline5796" points="115.87,300.27 172.14,304.07 209.14,307.83 235.72,312.53 246.12,315.43 255.09,318.83 265.66,324.5 274.33,330.93 283.96,339.94 295.35,352.29 316.56,378.33 326.52,392.6 339.83,413.99 346.76,423.03 353.99,431.05 361.81,438.51 371.08,446.11 381.39,453.36 392.69,460.18 409.81,468.85 429.77,477.09 450.22,484.04 475.65,491.13 500.8,496.9 529.68,502.39 563.47,507.66 599.77,512.29" fill="none" stroke="#000000" stroke-width="1"/><polyline id="SvgjsPolyline5797" points="115.63,300.5 169.15,307.67 189.24,311.18 205.65,314.79 222.35,319.65 234.64,324.46 245.3,329.95 255.28,336.6 265.81,345.52 276.27,356.26 288.97,371.44 299.97,386.44 308.39,399.57 314.79,411.11 326.8,438.59 332.21,449.3 338.44,459.55 346.62,470.66 357.03,482.27 369.5,493.51 383.52,503.81 398.92,513.11 417.17,522.22 436.02,530.03 456.41,537.14 481.75,544.52 506.23,550.49 535.03,556.41 564.59,561.53 599.62,566.63" fill="none" stroke="#000000" stroke-width="1"/><polyline id="SvgjsPolyline5798" points="114.05,300.66 148.22,309.91 175.06,318.54 196.7,327.43 214.12,336.83 230.67,348.72 245.89,363.17 260.38,380.76 273.26,400.28 282.71,418.36 290.13,437.35 295.04,456.51 297.49,475.54 297.79,494.73 295.2,540.86 291.7,573.67 287.23,599.68" fill="none" stroke="#000000" stroke-width="1"/><polyline id="SvgjsPolyline5799" points="121.22,302.24 153.27,310.08 178.03,317.33 198.27,324.85 213.95,332.38 229.19,341.94 242.65,352.95 256.37,367.21 268.95,383.26 277.9,396.76 285.86,410.87 292.88,426.12 297.54,439.11 300.54,450.1 302.74,461.29 307.88,510.81 310.53,528.01 313.9,544.46 317.92,559.53 322.77,573.72 328.19,586.41 335.21,599.66" fill="none" stroke="#000000" stroke-width="1"/><polyline id="SvgjsPolyline5800" points="119.81,301.37 170.55,310.72 190.96,315.66 207.58,320.78 220.97,326.07 234.31,332.92 245.29,340.24 255.43,348.68 266.4,359.76 278.32,374.03 289.19,389.12 298.92,404.97 304.72,416.15 310.4,429.38 319.44,458.6 324.91,473.21 331.65,487.27 338.09,498.1 347.66,511.16 357.32,521.83 368.38,531.96 381.26,541.77 395.41,550.82 411.79,559.63 429.27,567.56 448.3,574.9 469.39,581.83 491.92,588.16 519.34,594.71 545.21,599.98" fill="none" stroke="#000000" stroke-width="1"/><polyline id="SvgjsPolyline5801" points="187.28,299.97 277.88,299.77 294.63,298.82 297.75,297.11 306.5,288.9 315.8,281.32 352.69,252.52 361.03,246.66 379.94,236.26 403.93,226.8 421.76,221.49 439.83,217.12 481.16,209.69 535.37,203.2 599.97,198.1" fill="none" stroke="#000000" stroke-width="1"/><polyline id="SvgjsPolyline5802" points="258.41,300 299.63,299.97 371.39,305.8 422.93,308.24 497.31,309.9 599.91,310.98" fill="none" stroke="#000000" stroke-width="1"/><polyline id="SvgjsPolyline5803" points="300.31,300.48 311.35,306.54 364.63,332.77 385,339.94 410.01,346.23 444.89,352.24 487.21,357.09 538.06,360.98 599.78,364.13" fill="none" stroke="#000000" stroke-width="1"/><polyline id="SvgjsPolyline5804" points="128.9,300.33 189.48,301.74 228.44,303.4 254.72,305.88 271.09,309.53 281.86,314.76 292.37,323.67 324.06,357.28 347.61,385.29 357.9,395.35 366.76,402.52 376.13,409 385.92,414.84 398.74,421.41 415.29,428.48 433.39,434.85 454.14,440.86 479.83,446.91 506.35,451.97 535.4,456.5 599.76,463.99" fill="none" stroke="#000000" stroke-width="1"/><polyline id="SvgjsPolyline5805" points="131.92,299.75 200.31,298.67 239.88,297.31 261.41,295.53 276.66,292.37 284.79,288.56 292.7,282.15 327.03,246.91 348.22,223.2 358.28,213.76 367.27,206.76 376.77,200.46 388.24,193.94 400.13,188.2 416.82,181.46 435.04,175.41 455.87,169.73 478.71,164.62 504.08,159.96 531.96,155.76 599.94,148.21" fill="none" stroke="#000000" stroke-width="1"/><polyline id="SvgjsPolyline5806" points="136.16,303.97 162.15,308.59 183.28,313.09 200.1,317.55 213.76,322.09 225.92,327.2 238.05,333.77 247.93,340.58 258.41,349.54 268.84,360.31 280.33,374.17 291.18,389.27 300.01,403.56 306.94,416.86 311.7,427.87 320.43,454.68 326.15,469.19 332.57,482.07 339.82,493.81 349.68,506.65 360,517.53 372.71,528.5 385.9,537.91 402.41,547.69 421.82,557.16 444.09,566.1 468.57,574.22 496.93,581.99 525,588.4 556.82,594.5 590.58,599.94" fill="none" stroke="#000000" stroke-width="1"/><polyline id="SvgjsPolyline5807" points="300.46,299.78 366.79,276.82 387.76,271.64 413.16,267.16 449.5,262.81 491.36,259.49 540.49,256.86 599.85,254.71" fill="none" stroke="#000000" stroke-width="1"/></g></svg>