<?xml version="1.0" standalone="no"?>
<svg id="SvgjsSvg1001" width="600" height="600" xmlns="http://www.w3.org/2000/svg" version="1.1" xmlns:xlink="http://www.w3.org/1999/xlink" xmlns:svgjs="http://svgjs.com/svgjs" class="svg-paper" viewBox="0 0 600 600"><title id="SvgjsTitle13217">x=y|y=sqrt(x*x + y*y)/sin(min(x*x,(y+exp(max(sqrt(x*x + y*y),sin(sqrt(x*x + y*y)))))))*sqrt(x*x + y*y)|dTest=0.0|sd=0.2|sm=0.05|ts=0.05 | generated with FlowLines</title><g id="SvgjsG13218"><polyline id="SvgjsPolyline13219" points="0.02,83.24 0.65,119.23 1.43,149.22 2.33,176.21 4.11,224.17 4.93,251.16 5.31,269.16 5.49,284.16 5.54,296.16 5.42,317.16 4.98,341.15 4.39,362.14 2.37,419.11 1.34,452.09 0.51,488.08 0,521.08" fill="none" stroke="#171820" stroke-width="1"/><polyline id="SvgjsPolyline13220" points="4.39,2.44 6.22,23.36 10.68,68.14 12.28,86.07 13.86,107.01 14.76,121.98 15.35,133.97 15.85,145.96 16.35,160.95 16.93,184.94 17.23,202.94 17.66,247.94 17.8,304.94 17.67,349.94 17.26,394.94 16.97,412.93 16.57,430.93 16.03,448.92 15.45,463.91 14.87,475.9 14.19,487.88 12.7,508.82 10.85,529.74 7.26,565.56 5.84,580.5 4.34,598.43" fill="none" stroke="#171820" stroke-width="1"/><polyline id="SvgjsPolyline13221" points="16.35,1.53 16.85,16.52 17.24,31.51 17.9,70.51 18.29,118.5 18.49,184.5" fill="none" stroke="#171820" stroke-width="1"/><polyline id="SvgjsPolyline13222" points="38.78,598.18 38.41,574.18 37.93,553.18 37.24,532.2 36.6,517.21 35.63,499.24 34.2,478.28 33.02,463.33 28.98,415.5 27.88,400.54 26.93,385.57 25.89,364.6 25.26,346.61 24.85,328.61 24.65,307.62 24.7,289.62 24.96,271.62 25.35,256.62 26.03,238.64 26.96,220.66 28.35,199.71 29.74,181.76 32.49,148.87 33.9,130.93 34.95,115.97 36.02,98 36.87,80.02 37.72,56.03 38.36,29.04 38.77,2.04" fill="none" stroke="#171820" stroke-width="1"/><polyline id="SvgjsPolyline13223" points="32.59,599.39 31.38,587.45 27.16,548.68 25.14,527.78 23.7,509.84 23.07,500.86 22.35,488.88 21.75,476.9 21.04,458.91 20.59,443.92 19.93,410.92 19.67,389.93 19.41,353.93 19.29,293.93 19.46,236.93 19.89,191.93 20.31,167.93 20.76,149.94 21.26,134.95 21.76,122.96 22.36,110.97 23.28,96 24.17,84.03 25.19,72.08 27.27,51.18 31.17,15.39 32.66,0.47" fill="none" stroke="#171820" stroke-width="1"/><polyline id="SvgjsPolyline13224" points="18.58,425.62 18.39,530.62 18.2,563.62 17.83,599.61" fill="none" stroke="#171820" stroke-width="1"/><polyline id="SvgjsPolyline13225" points="53.35,1.75 54.9,16.67 56.01,28.62 57.21,43.57 58.21,58.54 59.17,76.51 59.68,88.5 60.2,103.49 60.68,121.48 61.13,145.48 61.37,163.48 61.57,184.48 61.79,223.48 61.91,310.48 61.77,373.48 61.54,409.47 61.03,448.47 60.72,463.47 60.3,478.46 59.37,502.44 58.38,520.42 57.33,535.38 56.59,544.35 55.47,556.3 54.23,568.23 50.78,598.03" fill="none" stroke="#171820" stroke-width="1"/><polyline id="SvgjsPolyline13226" points="41.23,1.75 41.73,16.74 42.54,34.73 43.41,49.7 44.73,67.65 45.79,79.61 46.97,91.55 51.94,136.27 53.47,151.19 55.06,169.12 56.35,187.08 57.05,199.06 57.75,214.04 58.3,229.03 58.63,241.03 58.89,253.02 59.15,271.02 59.28,301.02 59.09,328.02 58.78,346.02 58.48,358.01 57.73,379 57.15,390.99 56.45,402.96 55.61,414.93 54.89,423.91 53.52,438.84 51.65,456.75 49,480.6 47.11,498.5 45.95,510.44 44.67,525.39 43.6,540.35 42.57,558.32 41.79,576.3 41.12,597.29" fill="none" stroke="#171820" stroke-width="1"/><polyline id="SvgjsPolyline13227" points="39.67,0.6 39.81,36.6 40.02,66.6 40.33,93.6 40.8,120.6 41.31,141.59 42.07,165.58 42.87,186.56 44.76,231.52 45.41,249.51 45.96,270.5 46.22,294.5 46.19,306.5 46.05,318.5 45.57,339.5 44.98,357.49 42.93,408.44 42.16,429.43 41.58,447.42 40.96,471.41 40.25,513.41 39.98,540.41 39.79,570.4" fill="none" stroke="#171820" stroke-width="1"/><polyline id="SvgjsPolyline13228" points="62.44,150.39 62.7,105.39 63.24,63.39 63.7,42.39 64.05,30.4 64.59,15.41 65.28,0.43" fill="none" stroke="#171820" stroke-width="1"/><polyline id="SvgjsPolyline13229" points="85.62,597.13 85.15,582.13 84.24,561.15 83.18,543.19 81.78,525.24 80.35,510.31 79.03,498.38 73.48,453.72 71.78,438.82 70.57,426.88 69.77,417.92 69.05,408.95 68.43,399.97 67.88,390.99 67.27,379 66.48,358.02 66.17,346.02 65.86,328.02 65.73,313.02 65.71,298.02 65.96,271.03 66.44,250.03 66.85,238.04 67.38,226.05 68.43,208.08 69.57,193.12 71.27,175.21 73.65,154.34 78.76,112.65 80.37,97.74 81.75,82.8 83.11,64.85 84.3,43.89 85.05,25.9 85.76,1.91" fill="none" stroke="#171820" stroke-width="1"/><polyline id="SvgjsPolyline13230" points="78.21,598.7 77.13,589.76 72.52,554.06 70.39,536.19 68.25,515.29 67.24,503.34 66.58,494.36 66,485.38 65.35,473.4 64.38,449.42 63.95,434.42 63.57,416.43 63.07,377.43" fill="none" stroke="#171820" stroke-width="1"/><polyline id="SvgjsPolyline13231" points="64.5,599.5 63.69,572.52 63.06,539.52 62.65,500.52 62.38,443.52" fill="none" stroke="#171820" stroke-width="1"/><polyline id="SvgjsPolyline13232" points="100.42,1.47 104.15,28.22 105.71,40.11 107.5,55.01 109.06,69.93 110.38,84.87 111.67,102.82 112.52,117.8 113.2,132.78 113.74,147.77 114.3,168.76 114.69,189.76 115.07,222.76 115.25,252.76 115.33,285.76 115.21,348.76 115.04,372.76 114.75,396.75 114.13,426.75 113.66,441.74 112.9,459.72 112.06,474.7 111.45,483.68 110.51,495.64 109.69,504.6 108.77,513.56 107.4,525.48 105.07,543.33 100.4,576 98.77,587.88 97.24,599.79" fill="none" stroke="#171820" stroke-width="1"/><polyline id="SvgjsPolyline13233" points="90,1.64 90.75,16.63 91.93,34.59 92.92,46.55 94.41,61.47 95.82,73.39 97.39,85.28 103.52,126.84 105.94,144.67 108,162.55 108.88,171.51 109.89,183.47 110.92,198.43 111.73,213.41 112.34,228.4 112.71,240.39 113.05,255.39 113.31,273.39 113.42,303.39 113.3,321.39 113.08,336.38 112.47,360.38 112.01,372.37 111.42,384.35 110.68,396.33 109.78,408.29 108.98,417.26 108.07,426.21 107.05,435.16 105.93,444.08 104.3,455.97 98.2,497.53 96.62,509.42 94.87,524.32 93.09,542.23 91.68,560.18 90.6,578.14 89.68,599.12" fill="none" stroke="#171820" stroke-width="1"/><polyline id="SvgjsPolyline13234" points="87.49,2.4 87.65,41.4 87.99,80.39 88.59,116.39 89.24,140.38 90.03,161.37 91.04,182.34 92.25,203.31 94.29,236.24 95.39,257.21 96.04,275.2 96.23,284.2 96.33,296.2 96.15,314.2 95.91,323.2 95.47,335.19 94.59,353.17 92.12,395.09 90.99,416.06 89.93,440.04 89.22,461.03 88.55,488.02 88.06,518.01 87.74,551.01 87.51,599.01" fill="none" stroke="#171820" stroke-width="1"/><polyline id="SvgjsPolyline13235" points="86.56,540.06 86.18,516.06 85.84,501.06 85.21,480.07 84.48,462.09 83.72,447.11 82.63,429.14 78.29,369.3 77.01,348.34 76.32,333.35 75.95,321.36 75.73,309.36 75.68,297.36 75.8,285.36 76.09,273.37 76.54,261.37 77.13,249.39 78.44,228.43 82.36,174.57 83.63,153.61 84.38,138.63 85.11,120.64 85.82,96.66 86.26,75.66 86.67,45.66" fill="none" stroke="#171820" stroke-width="1"/><polyline id="SvgjsPolyline13236" points="112.72,2.79 113.75,29.77 114.25,47.76 114.64,65.76 115.25,110.75 115.58,167.75" fill="none" stroke="#171820" stroke-width="1"/><polyline id="SvgjsPolyline13237" points="146.55,598.44 145.5,577.47 144.94,568.49 144.05,556.52 142.69,541.58 141.01,526.68 139.42,514.78 137.15,499.96 135.15,488.12 129.93,458.58 127.08,440.81 125.82,431.9 124.69,422.97 123.68,414.03 122.8,405.07 121.81,393.11 121.19,384.13 120.67,375.15 119.99,360.16 119.59,348.17 119.24,333.17 119.04,318.17 118.97,303.17 119.01,291.17 119.24,273.18 119.51,261.18 119.9,249.19 120.28,240.19 120.93,228.21 121.75,216.24 122.51,207.27 123.39,198.31 124.41,189.37 125.57,180.45 126.85,171.54 128.22,162.64 129.69,153.77 134.91,124.22 136.91,112.39 139.18,97.56 141.13,82.69 142.75,67.78 143.57,58.82 144.52,46.85 145.81,25.89 146.86,1.92" fill="none" stroke="#171820" stroke-width="1"/><polyline id="SvgjsPolyline13238" points="138.67,597.41 137.04,585.52 135.72,576.62 129.01,535.16 127.18,523.3 125.49,511.42 123.98,499.51 122.64,487.59 121.46,475.65 120.47,463.69 119.46,448.72 118.68,433.74 118.08,418.75 117.55,400.76 117.13,379.77 116.85,358.77 116.67,334.77 116.59,307.77" fill="none" stroke="#171820" stroke-width="1"/><polyline id="SvgjsPolyline13239" points="119.43,598.9 118.61,580.92 117.86,559.94 117.44,544.94 116.86,517.95 116.51,493.95 116.3,472.95 116.09,439.95 115.97,403.95" fill="none" stroke="#171820" stroke-width="1"/><polyline id="SvgjsPolyline13240" points="116.84,133.95 117.22,115.95 117.75,97.96 118.46,79.98 119.22,65 120.17,50.03 121.6,32.08 123.04,17.15 124.71,2.25" fill="none" stroke="#171820" stroke-width="1"/><polyline id="SvgjsPolyline13241" points="161.31,2.83 163.51,17.67 165.98,32.47 169.23,50.17 176.59,88.47 178.2,97.32 180.23,109.15 182.1,121 183.79,132.88 185.3,144.79 186.62,156.72 188.03,171.65 189.38,189.6 190.56,210.56 191.18,225.55 191.64,240.54 192.07,261.54 192.27,279.54 192.31,306.54 192.17,324.54 191.8,345.54 191.26,363.53 190.76,375.52 189.94,390.49 188.88,405.46 187.82,417.41 186.56,429.34 185.48,438.28 183.84,450.17 181.99,462.02 180.47,470.89 178.85,479.74 176.57,491.53 168.3,532.7 165.08,550.41 162.7,565.22 161.42,574.13 159.89,586.03 158.54,597.96" fill="none" stroke="#171820" stroke-width="1"/><polyline id="SvgjsPolyline13242" points="151.87,0.22 152.79,24.2 153.24,33.19 154.15,48.16 154.81,57.14 155.86,69.09 156.78,78.04 157.83,86.98 159.04,95.9 160.39,104.8 161.9,113.67 163.56,122.52 166.61,137.2 174.59,172.31 177.72,186.98 179.44,195.81 180.5,201.72 181.98,210.59 182.87,216.53 184.07,225.45 185.1,234.39 185.98,243.34 186.91,255.31 187.44,264.29 187.84,273.28 188.17,285.28 188.27,294.28 188.24,303.28 188.01,315.28 187.54,327.27 187.02,336.25 186.34,345.23 185.5,354.19 184.49,363.13 183.29,372.05 181.92,380.94 180.9,386.86 179.81,392.76 178.05,401.58 174.86,416.24 168.16,445.48 165.65,457.21 163.89,466.04 161.77,477.85 160.35,486.74 159.08,495.65 157.95,504.58 156.64,516.51 155.8,525.47 154.84,537.43 154.01,549.4 153.32,561.38 152.74,573.37 151.87,597.35" fill="none" stroke="#171820" stroke-width="1"/><polyline id="SvgjsPolyline13243" points="149.21,597.06 148.81,549.06 148.26,516.06 147.88,501.07 147.28,483.08 146.78,471.09 146.17,459.1 145.44,447.13 144.8,438.15 143.81,426.19 142.97,417.23 141.4,402.31 136.55,360.59 135.62,351.64 134.8,342.68 133.91,330.71 133.42,321.73 133.09,312.73 132.92,300.73 133.05,288.74 133.35,279.74 133.82,270.75 134.68,258.78 135.77,246.83 136.71,237.88 140.9,202.13 143.12,181.25 144.2,169.29 144.91,160.32 145.54,151.34 146.26,139.37 146.85,127.38 147.44,112.39 147.82,100.4 148.26,82.4 148.86,43.41 149.19,1.41" fill="none" stroke="#171820" stroke-width="1"/><polyline id="SvgjsPolyline13244" points="116.68,257.96 116.91,233.96 117.19,215.97 117.68,194.97 118.07,182.98 118.7,167.99 119.35,156.01 119.93,147.03 120.86,135.06 121.69,126.1 122.62,117.15 123.68,108.21 125.26,96.32 127.02,84.45 128.43,75.56 133.33,45.96 135.68,31.15 137.83,16.3 139.71,1.42" fill="none" stroke="#171820" stroke-width="1"/><polyline id="SvgjsPolyline13245" points="173.21,1.24 177.99,30.86 179.78,42.72 181.87,57.58 183.03,66.5 184.46,78.41 185.75,90.34 187.18,105.28 188.84,126.21 189.8,141.18 190.6,156.16 191.25,171.14 191.68,183.14 192.11,198.13 192.56,219.13" fill="none" stroke="#171820" stroke-width="1"/><polyline id="SvgjsPolyline13246" points="251.11,600 249.59,588.1 248.35,579.18 246.57,567.32 245.12,558.43 243.57,549.57 241.91,540.72 240.13,531.9 237.58,520.17 234.08,505.59 230.25,491.08 226.16,476.65 215.98,442.13 212.01,427.66 209.82,418.93 207.81,410.16 206,401.34 204.91,395.44 203.9,389.53 202.99,383.6 201.79,374.68 200.47,362.75 199.46,350.79 198.72,338.82 198.21,326.83 197.91,314.83 197.82,299.83 197.98,287.83 198.35,275.84 198.96,263.85 199.86,251.89 200.75,242.93 201.84,234 203.63,222.13 205.19,213.27 206.98,204.45 208.31,198.6 210.47,189.86 212.02,184.07 215.33,172.53 225.99,138.15 231.09,120.88 235,106.4 237.17,97.67 239.21,88.9 241.72,77.17 243.46,68.34 245.08,59.49 247.06,47.65 248.44,38.76 250.52,23.9 252.03,12 253.41,0.08" fill="none" stroke="#171820" stroke-width="1"/><polyline id="SvgjsPolyline13247" points="227.59,599.1 223.55,578.49 213.93,531.46 211.06,516.74 208.89,504.94 206.86,493.11 204.55,478.29 202.53,463.43 200.79,448.53 199.08,430.61 197.69,412.66 196.79,397.69 195.98,379.71 195.41,361.72 194.99,340.72 194.74,316.72 194.7,295.72 194.83,271.73 195.08,253.73 195.48,235.73 196.2,214.74 197.1,196.77 198.08,181.8 199.32,166.85 200.83,151.93 202.26,140.01 203.88,128.12 206.17,113.3 208.74,98.52 210.39,89.67 213.28,74.95 223,27.95 225.94,13.24 228.2,1.45" fill="none" stroke="#171820" stroke-width="1"/><polyline id="SvgjsPolyline13248" points="193.43,343.96 193.19,391.96 192.83,424.95 192.29,454.95 191.4,487.94 190.87,502.93 190.12,520.91 188.88,544.88 188.15,556.86 187.12,571.82 185.96,586.78 184.94,598.73" fill="none" stroke="#171820" stroke-width="1"/><polyline id="SvgjsPolyline13249" points="191.5,409.25 190.42,433.23 189.52,448.2 188.88,457.18 188.17,466.15 187.09,478.1 186.18,487.05 184.83,498.98 182.51,516.83 179.39,537.59 175.43,561.27 168.78,599.69" fill="none" stroke="#171820" stroke-width="1"/><polyline id="SvgjsPolyline13250" points="150.63,25.83 151.01,46.82 151.38,61.82 151.86,76.81 152.35,88.8 153.13,103.78 153.71,112.76 154.64,124.72 155.78,136.67 156.78,145.61 158.32,157.52 159.62,166.42 161.58,178.26 164.35,193 172.17,231.21 174.32,243.01 175.74,251.9 176.57,257.84 177.3,263.8 177.93,269.77 178.45,275.74 178.86,281.73 179.15,287.72 179.33,293.72 179.4,299.72 179.35,305.72 179.18,311.72 178.89,317.71 178.49,323.7 177.37,335.64 175.82,347.54 174.41,356.43 172.27,368.24 169.92,380.01 164.46,406.45 162.75,415.28 161.16,424.14 159.71,433.02 157.99,444.9 156.88,453.83 155.9,462.78 154.79,474.73 153.88,486.69 152.97,501.66 152.39,513.65 151.92,525.64 151.29,546.63 150.66,579.62" fill="none" stroke="#171820" stroke-width="1"/><polyline id="SvgjsPolyline13251" points="150.02,68.43 150.28,98.43 150.68,125.42 151.24,149.42 151.97,170.4 152.66,185.39 153.71,203.36 154.75,218.32 157.29,251.22 158.11,263.2 158.87,278.18 159.14,287.17 159.24,296.17 159.17,305.17 159.03,311.17 158.4,326.16 157.67,338.13 155.05,374.04 153.85,392 152.83,409.97 152.01,427.95 151.3,448.94 150.74,472.93 150.3,502.93 149.97,544.93" fill="none" stroke="#171820" stroke-width="1"/><polyline id="SvgjsPolyline13252" points="149.21,482.84 148.91,449.84 148.44,419.85 147.72,389.86 146.22,338.88 145.79,317.88 145.67,302.88 145.76,284.88 146.08,266.89 147.65,212.91 148.37,182.92 148.85,152.92 149.12,125.92" fill="none" stroke="#171820" stroke-width="1"/><polyline id="SvgjsPolyline13253" points="185.53,2.25 187.16,23.18 188.36,41.15 189.38,59.12 190.5,83.09 191.38,107.07 192.05,131.06 192.6,158.06 192.97,185.06" fill="none" stroke="#171820" stroke-width="1"/><polyline id="SvgjsPolyline13254" points="263.03,598.57 261.87,583.61 260.3,565.68 258.82,550.76 257.14,535.85 255.22,520.97 253.49,509.1 251.54,497.26 249.36,485.46 246.9,473.71 244.85,464.95 241.83,453.34 238.46,441.82 235.7,433.25 231.76,421.92 228.66,413.47 221.24,393.82 217.2,382.53 215.31,376.83 213.53,371.1 211.89,365.33 210.39,359.52 208.43,350.74 207.33,344.84 205.95,335.95 205.23,329.99 204.64,324.02 204.02,315.04 203.69,306.05 203.63,300.05 203.69,294.05 204.02,285.05 204.64,276.08 205.22,270.1 205.94,264.15 207.31,255.25 208.41,249.36 210.37,240.57 211.86,234.76 213.5,228.99 215.28,223.26 217.17,217.56 220.17,209.08 231.73,178.17 235.67,166.84 238.43,158.27 241.8,146.75 244.83,135.14 247.52,123.45 249.34,114.63 251.53,102.84 253.47,90.99 255.21,79.12 257.48,61.27 259.12,46.36 260.57,31.43 261.62,19.47 263.02,1.53" fill="none" stroke="#171820" stroke-width="1"/><polyline id="SvgjsPolyline13255" points="239.47,598.56 237.95,589.69 235.25,574.93 232.93,563.16 230.47,551.41 227.87,539.7 225.15,528.01 215.17,487.21 211.73,472.61 209.77,463.83 207.93,455.02 206.76,449.13 204.62,437.33 203.19,428.44 201.51,416.56 200.43,407.63 199.19,395.69 198.42,386.72 197.57,374.75 196.91,362.77 196.4,350.78" fill="none" stroke="#171820" stroke-width="1"/><polyline id="SvgjsPolyline13256" points="196.48,262.14 196.82,253.15 197.43,241.16 198.25,229.19 199.3,217.24 200.61,205.31 201.8,196.39 203.16,187.49 204.7,178.62 206.42,169.79 207.66,163.92 208.96,158.06 211.74,146.39 214.71,134.76 226.19,91.25 229.09,79.61 232.51,65 234.44,56.21 236.27,47.4 239.1,32.67 241.67,17.89 244.44,0.11" fill="none" stroke="#171820" stroke-width="1"/><polyline id="SvgjsPolyline13257" points="215.24,598.39 210.35,568.79 206.77,545.06 204.75,530.2 203.27,518.29 201.93,506.37 200.71,494.43 198.9,473.51 197.85,458.54 197.13,446.56 196.01,422.59 195.58,410.6 195.01,389.61" fill="none" stroke="#171820" stroke-width="1"/><polyline id="SvgjsPolyline13258" points="194.1,258.37 194.45,219.37 194.87,195.38 195.24,180.38 195.71,165.39 196.29,150.4 197.17,132.42 198.07,117.45 199.37,99.5 200.38,87.54 201.51,75.59 203.06,60.67 204.42,48.75 206.27,33.87 208.26,19 210.83,1.18" fill="none" stroke="#171820" stroke-width="1"/><polyline id="SvgjsPolyline13259" points="200.32,599.66 199.2,581.7 197.91,557.73 197.09,539.75 196.29,518.77 195.56,494.78 195,470.78 194.54,443.79 194.29,422.79" fill="none" stroke="#171820" stroke-width="1"/><polyline id="SvgjsPolyline13260" points="194.08,163.2 194.6,112.2 195.29,73.21 196.31,34.22 197.49,1.25" fill="none" stroke="#171820" stroke-width="1"/><polyline id="SvgjsPolyline13261" points="275,597.69 273.73,564.72 272.46,537.75 271.27,516.78 269.84,495.83 268.1,474.9 266.6,459.98 265.56,451.04 264.41,442.11 263.11,433.2 262.16,427.28 260,415.48 258.12,406.68 256.72,400.84 255.21,395.04 252.69,386.4 249.86,377.85 246.75,369.41 243.41,361.05 237.66,347.2 234.37,338.82 232.36,333.16 230.58,327.44 229.78,324.54 228.43,318.7 227.87,315.75 227.41,312.79 227.04,309.81 226.77,306.82 226.59,303.83 226.51,300.83 226.66,294.83 227.19,288.86 228.11,282.93 228.7,279.99 230.13,274.16 231.85,268.41 234.84,259.93 238.17,251.56 243.92,237.71 246.15,232.14 249.31,223.71 252.19,215.19 254.77,206.56 256.32,200.77 257.74,194.94 259.05,189.09 260.26,183.21 262.38,171.4 264.59,156.56 266.41,141.67 268.22,123.76 269.72,105.83 271.35,81.88 272.68,57.92 273.91,30.95 275.04,0.97" fill="none" stroke="#171820" stroke-width="1"/><polyline id="SvgjsPolyline13262" points="269.18,599.1 267.99,578.13 266.6,557.18 265.22,539.23 263.31,518.32 261.34,500.42 259.41,485.55 257.62,473.68 256.11,464.81 255.01,458.91 252.56,447.17 251.25,441.31 249.84,435.48 248.33,429.67 246.71,423.9 244.98,418.15 243.15,412.44 240.19,403.94 237.01,395.52 233.66,387.16 226.77,370.53 222.4,359.36 219.42,350.87 216.83,342.25 216.06,339.35 214.69,333.51 213.54,327.62 212.61,321.69 211.91,315.73 211.44,309.75 211.19,303.76 211.15,300.76 211.16,297.76 211.35,291.76 211.77,285.78 212.41,279.81 213.28,273.88 214.38,267.98 215.7,262.12 217.23,256.32 219.89,247.73 222.92,239.25 226.2,230.87 234.22,211.46 237.55,203.1 240.69,194.67 243.61,186.16 245.42,180.44 247.12,174.68 249.46,165.99 250.9,160.17 252.23,154.32 254.64,142.56 256.74,130.75 258.14,121.86 258.99,115.92 260.92,101.04 262.88,83.15 264.54,65.23 266.18,44.29 267.58,23.34 268.78,2.37" fill="none" stroke="#171820" stroke-width="1"/><polyline id="SvgjsPolyline13263" points="286.99,597.28 286.12,522.28 285.17,468.29 284.15,429.3 283.26,405.32 282.69,393.33 282.01,381.35 281.16,369.38 280.08,357.43 279.06,348.49 277.8,339.58 276.8,333.66 275.68,327.77 273.27,316.01 272.24,310.1 271.85,307.13 271.58,304.14 271.45,301.14 271.47,298.14 271.63,295.15 271.93,292.16 272.34,289.19 273.4,283.29 275.82,271.53 276.93,265.64 278.35,256.75 279.51,247.83 280.72,235.89 281.44,226.92 282.05,217.94 282.73,205.96 283.65,184.98 284.17,169.99 284.61,154.99 285.25,128 286.13,77.01 286.99,2.01" fill="none" stroke="#171820" stroke-width="1"/><polyline id="SvgjsPolyline13264" points="280.53,598.79 279.83,568.8 278.89,535.81 278.05,511.83 276.89,484.85 275.57,460.89 274.33,442.93 272.78,425 271.5,413.07 270.42,404.13 268.73,392.25 267.23,383.38 266.09,377.49 264.82,371.62 262.67,362.88 260.19,354.23 257.42,345.67 251.54,328.66 249.75,322.93 248.95,320.04 247.58,314.2 247.05,311.25 246.63,308.28 246.33,305.29 246.16,302.3 246.13,299.3 246.22,296.3 246.45,293.31 246.81,290.33 247.28,287.37 247.87,284.43 249.31,278.6 250.15,275.72 251.98,270.01 257.87,253 259.72,247.29 261.44,241.55 263.03,235.76 265.13,227.01 266.94,218.19 268.48,209.33 269.81,200.42 271.31,188.52 272.84,173.6 274.32,155.66 275.51,137.7 276.64,116.73 277.81,89.75 278.65,65.77 279.6,32.78 280.3,2.79" fill="none" stroke="#171820" stroke-width="1"/><polyline id="SvgjsPolyline13265" points="298.99,597.16 298.96,348.16 298.88,300.16 298.96,252.16 298.99,0.16" fill="none" stroke="#171820" stroke-width="1"/><polyline id="SvgjsPolyline13266" points="291.62,598.31 291.19,511.31 290.81,460.31 290.22,409.31 289.73,382.32 289.35,367.32 288.95,355.33 288.57,346.34 288.07,337.35 287.65,331.36 287.13,325.39 286.21,316.43 285.19,307.49 284.93,304.5 284.79,301.51 284.79,298.51 284.93,295.51 285.19,292.52 286.83,277.61 287.35,271.63 287.96,262.66 288.79,244.67 289.48,220.68 290.08,187.69 290.6,142.69 291.07,79.69 291.45,1.7" fill="none" stroke="#171820" stroke-width="1"/><polyline id="SvgjsPolyline13267" points="283.89,598.63 283.31,562.64 282.52,523.65 281.74,493.66 281.07,472.67 280.12,448.69 279.22,430.71 278.3,415.74 277.15,400.78 276.02,388.84 274.99,379.89 273.76,370.98 272.3,362.1 271.16,356.21 269.18,347.43 266.9,338.72 262.84,324.28 260.69,315.54 260.1,312.6 259.61,309.64 259.23,306.67 258.99,303.68 258.88,300.68 258.92,297.68 259.1,294.69 259.42,291.7 259.86,288.74 260.41,285.79 261.05,282.86 262.53,277.04 266.59,262.6 268.11,256.8 270.14,248.03 271.86,239.2 273.3,230.31 274.5,221.39 275.53,212.45 276.92,197.52 278.02,182.56 279.08,164.59 280.06,143.61 280.95,119.63 281.5,101.64 282.4,65.65 283.05,32.65 283.54,2.66" fill="none" stroke="#171820" stroke-width="1"/><polyline id="SvgjsPolyline13268" points="310.99,597.16 310.1,483.17 309.61,435.17 309.03,390.17 308.63,366.18 307.96,336.18 307.35,318.19 306.58,303.21 306.51,300.21 306.57,297.21 307.45,279.24 307.95,264.25 308.51,240.25 309.11,204.26 309.57,168.26 310.15,111.26 311,0.27" fill="none" stroke="#171820" stroke-width="1"/><polyline id="SvgjsPolyline13269" points="322.99,597.08 321.18,537.11 319.43,483.14 317.94,441.16 316.39,402.19 314.71,366.23 313.53,345.27 312.06,324.32 310.5,306.39 310.22,300.39 310.27,297.39 310.44,294.4 312.46,270.49 313.84,249.53 315.27,222.57 316.61,192.6 317.91,159.62 319.3,120.65 321.06,66.68 323.05,0.71" fill="none" stroke="#171820" stroke-width="1"/><polyline id="SvgjsPolyline13270" points="335.18,599.72 325.86,459.03 321.63,399.18 319.53,372.26 317.73,351.34 315.68,330.44 313.33,309.57 312.82,303.59 312.72,300.6 312.77,297.6 312.94,294.6 313.21,291.61 316.18,264.78 318.16,243.87 319.43,228.92 321.54,202.01 323.5,175.08 325.78,142.16 335.1,1.47" fill="none" stroke="#171820" stroke-width="1"/><polyline id="SvgjsPolyline13271" points="347.15,598.93 342.83,560.17 338.97,524.37 334.9,485.59 327.22,410.98 323.4,375.18 321.03,354.32 319.59,342.4 315.31,309.68 314.76,303.71 314.66,300.71 314.7,297.71 314.87,294.72 315.49,288.75 318.66,264.96 320.15,253.05 323.9,220.27 326.76,193.42 338.82,77.04 342.35,44.23 346.99,2.49" fill="none" stroke="#171820" stroke-width="1"/><polyline id="SvgjsPolyline13272" points="359.08,597.57 354.37,567.94 349.76,538.3 345.73,511.6 341.82,484.89 335.95,443.3 327.82,383.85 324.08,357.11 321.47,339.3 317.42,312.61 316.7,306.65 316.47,303.66 316.36,300.66 316.41,297.67 316.59,294.67 317.24,288.71 321.72,259.04 324.74,238.26 336.18,155.05 341.63,116.43 346.42,83.78 349.56,63.01 354.16,33.37 359.34,0.78" fill="none" stroke="#171820" stroke-width="1"/><polyline id="SvgjsPolyline13273" points="371.49,598.62 366.39,572.11 351.91,498.52 345.79,466.09 341.5,442.48 335.3,407.02 326.76,356.74 320.1,318.31 318.76,309.41 318.43,306.43 318.2,303.44 318.11,300.44 318.16,297.44 318.35,294.45 318.65,291.46 319.95,282.56 326.61,244.13 335.15,193.85 340.82,161.34 345.63,134.78 351.18,105.29 355.75,81.73 366.22,28.76 371.32,2.24" fill="none" stroke="#171820" stroke-width="1"/><polyline id="SvgjsPolyline13274" points="383.8,599.36 381.13,584.6 378.84,572.82 375.79,558.14 373.23,546.41 367.16,520.11 354.55,467.6 349.06,444.23 343.75,420.83 338,394.45 329.42,353.33 325.22,332.76 322.9,320.99 321.83,315.08 320.93,309.15 320.6,306.17 320.38,303.18 320.3,300.18 320.36,297.18 320.57,294.19 320.89,291.2 321.77,285.27 322.83,279.36 326.94,258.77 336.68,211.77 341.73,188.31 348.98,156.11 355.16,129.83 367.08,80.24 373.15,53.93 375.72,42.21 378.77,27.52 381.06,15.75 383.73,0.99" fill="none" stroke="#171820" stroke-width="1"/><polyline id="SvgjsPolyline13275" points="395.63,597.32 394.66,588.37 393.21,576.46 391.56,564.58 389.71,552.72 387.63,540.9 385.92,532.07 383.43,520.33 381.4,511.56 379.26,502.82 377,494.11 374.63,485.42 371.34,473.88 367.06,459.51 352.93,413.63 347.75,396.4 341.09,373.34 334.75,350.19 329.53,329.85 326.86,318.15 325.76,312.25 325.31,309.29 324.96,306.31 324.73,303.32 324.64,300.32 324.7,297.32 324.9,294.33 325.22,291.35 325.65,288.38 326.74,282.48 328.01,276.61 329.38,270.77 331.56,262.04 335.36,247.53 342.55,221.5 348.42,201.34 353.62,184.11 366,143.97 372,123.85 376.83,106.51 379.1,97.8 381.26,89.06 383.29,80.3 386.38,65.62 388.06,56.78 390.09,44.95 391.9,33.09 393.51,21.2 394.92,9.28 395.87,0.33" fill="none" stroke="#171820" stroke-width="1"/><polyline id="SvgjsPolyline13276" points="407.36,0.01 407.68,24.01 408.13,48.01 408.78,72 409.21,83.99 409.74,95.98 410.38,107.96 411.17,119.93 412.41,134.88 413.65,146.82 414.75,155.75 416,164.66 417.41,173.55 418.97,182.42 420.67,191.25 426.15,217.69 428.49,229.46 430.6,241.27 431.96,250.17 432.75,256.12 433.43,262.08 434.01,268.05 434.48,274.03 434.85,280.02 435.1,286.02 435.25,292.01 435.29,298.01 435.03,310.01 434.33,321.99 433.51,330.95 432.04,342.86 430.68,351.76 428.58,363.57 421.49,398.87 419.83,407.71 418.28,416.58 416.88,425.47 415.61,434.38 414.16,446.29 412.93,458.23 411.68,473.17 410.87,485.15 410.2,497.13 409.52,512.11 408.98,527.1 408.26,554.09 407.77,581.09 407.53,599.09" fill="none" stroke="#171820" stroke-width="1"/><polyline id="SvgjsPolyline13277" points="402.22,598.46 401.14,577.49 399.95,559.53 398.7,544.58 397.15,529.66 395.3,514.77 394.02,505.86 393.08,499.94 391.52,491.07 390.38,485.18 387.85,473.45 385.73,464.71 382.58,453.13 379.1,441.65 375.32,430.26 371.29,418.95 368.15,410.52 354.09,374.14 348.8,360.11 343.73,345.99 339.93,334.61 338.16,328.88 336.52,323.1 335.76,320.2 334.44,314.35 333.89,311.4 333.45,308.43 333.13,305.45 332.93,302.46 332.89,299.46 332.99,296.46 333.23,293.47 333.6,290.49 334.08,287.53 334.66,284.59 335.31,281.66 336.8,275.85 339.35,267.22 343.1,255.82 348.13,241.69 354.48,224.84 367.47,191.27 371.66,180.03 375.67,168.71 379.43,157.32 382.88,145.83 385.25,137.14 388.1,125.49 390.6,113.75 391.72,107.86 393.25,98.99 394.18,93.06 395.45,84.15 396.91,72.24 398.44,57.32 399.91,39.38 401.07,21.42 402.11,0.44" fill="none" stroke="#171820" stroke-width="1"/><polyline id="SvgjsPolyline13278" points="419.4,2.88 420.58,11.8 421.87,20.71 424.74,38.48 428.53,59.13 435.43,94.46 437.59,106.27 439.1,115.14 440.49,124.03 442.15,135.92 443.24,144.85 444.21,153.8 445.55,168.74 446.6,183.7 447.41,198.68 448.01,213.67 448.46,228.66 448.88,249.66 449.15,273.65 449.24,303.65 449.14,327.65 448.86,351.65 448.5,369.65 447.97,387.64 447.2,405.62 446.33,420.6 445.2,435.56 444.07,447.5 443.09,456.45 441.98,465.38 440.74,474.29 439.37,483.19 437.36,495.02 435.19,506.82 428.85,539.21 425.03,559.86 423.05,571.69 421.67,580.59 420.4,589.5 419.23,598.42" fill="none" stroke="#171820" stroke-width="1"/><polyline id="SvgjsPolyline13279" points="411.8,0.09 412.57,12.06 413.47,24.03 414.82,38.97 415.77,47.92 416.83,56.85 418.02,65.77 419.35,74.68 421.84,89.47 424.64,104.2 427.72,118.88 434.17,148.18 437.15,162.88 438.76,171.74 440.22,180.62 441.51,189.52 442.64,198.45 443.61,207.4 444.68,219.35 445.53,231.32 446.18,243.3 446.67,255.29 447.02,267.29 447.32,285.29 447.39,297.29 447.34,312.29 447.19,324.29 446.75,342.28 446.29,354.27 445.67,366.25 444.87,378.23 444.13,387.2 442.92,399.14 441.83,408.07 440.13,419.95 438.66,428.83 437.04,437.68 434.05,452.38 427.6,481.68 425.12,493.42 422.27,508.15 419.77,522.94 418.45,531.84 417.26,540.76 416.19,549.7 415.24,558.64 414.12,570.59 413.39,579.56 412.16,597.52" fill="none" stroke="#171820" stroke-width="1"/><polyline id="SvgjsPolyline13280" points="405.2,597.07 404.73,567.07 404.09,540.08 403.24,516.1 402.51,501.12 401.98,492.13 401.35,483.15 400.07,468.21 399.12,459.26 398.4,453.3 397.17,444.39 396.24,438.46 394.07,426.66 392.16,417.86 390.74,412.03 389.2,406.24 387.54,400.47 385.76,394.74 383.88,389.04 379.82,377.75 376.58,369.35 368.76,349.86 365.5,341.47 362.48,333 360.68,327.27 359.12,321.48 357.9,315.61 357.44,312.64 357.09,309.66 356.87,306.67 356.77,303.67 356.81,300.67 356.97,297.68 357.26,294.69 357.67,291.72 358.18,288.76 358.79,285.83 360.25,280.01 361.97,274.26 364.9,265.75 368.07,257.33 375.72,237.77 378.89,229.35 382.85,218.02 385.58,209.44 387.26,203.69 388.84,197.9 390.99,189.16 393.48,177.42 394.57,171.52 395.56,165.6 397.3,153.73 398.4,144.8 399.36,135.85 400.94,117.92 402.14,99.96 403.04,81.98 403.99,55 404.74,22.01 405.06,1.01" fill="none" stroke="#171820" stroke-width="1"/><polyline id="SvgjsPolyline13281" points="406.32,574.49 406.26,484.49 406.12,427.49 405.87,385.49 405.3,328.49 405.19,304.49 405.3,277.49 405.86,217.49 406.1,175.49 406.26,109.49 406.32,22.49" fill="none" stroke="#171820" stroke-width="1"/><polyline id="SvgjsPolyline13282" points="407.86,109.02 408.34,127.01 409,145 409.92,162.98 411.18,180.93 412.25,192.89 413.87,207.8 415.75,222.68 419.4,249.43 420.52,258.36 421.52,267.31 422.32,276.27 422.9,285.25 423.22,294.24 423.28,300.24 423.21,306.24 422.88,315.24 422.29,324.22 421.47,333.18 419.72,348.08 415.7,377.81 414.21,389.71 412.59,404.63 411.04,422.56 409.87,440.52 408.89,461.5 408.13,485.49 407.58,512.48" fill="none" stroke="#171820" stroke-width="1"/><polyline id="SvgjsPolyline13283" points="402.34,537.31 401.47,522.33 400.37,507.37 399.28,495.42 397.96,483.49 396.35,471.6 394.41,459.76 392.08,447.99 390.06,439.22 388.57,433.41 386.97,427.63 384.36,419.01 381.51,410.48 378.45,402.01 375.21,393.61 371.84,385.27 361.34,360.4 356.76,349.3 353.49,340.92 350.46,332.44 348.64,326.73 347.82,323.84 346.39,318.02 345.81,315.07 345.34,312.11 344.99,309.13 344.78,306.14 344.7,303.14 344.76,300.14 345.17,294.15 345.51,291.17 345.96,288.21 347.19,282.34 348.75,276.54 349.63,273.68 352.55,265.16 355.76,256.75 359.14,248.42 371.95,218 376.39,206.85 379.53,198.42 381.52,192.76 383.4,187.06 386.04,178.46 388.43,169.78 389.88,163.96 391.23,158.11 393.05,149.3 394.15,143.4 395.15,137.48 396.89,125.61 398.01,116.68 398.67,110.72 400.07,95.78 401.38,77.83 402.23,62.86 403.14,41.88" fill="none" stroke="#171820" stroke-width="1"/><polyline id="SvgjsPolyline13284" points="431.3,1.37 436.22,30.96 438.07,42.82 439.8,54.69 441.37,66.59 442.45,75.52 443.43,84.47 444.85,99.4 445.58,108.37 446.61,123.34 447.29,135.32 447.85,147.31 448.41,162.29 448.85,177.29 449.48,210.28" fill="none" stroke="#171820" stroke-width="1"/><polyline id="SvgjsPolyline13285" points="482.7,598.42 482.21,580.42 481.79,568.43 480.8,547.46 480.05,535.48 479.14,523.51 478.33,514.55 477.41,505.6 475.99,493.68 475.19,487.74 472.98,472.9 470.51,458.11 465.36,428.55 463,413.74 461.73,404.83 460.58,395.9 459.55,386.96 458.66,378 457.89,369.04 457.24,360.06 456.7,351.08 456.27,342.09 455.69,324.1 455.54,315.1 455.46,303.1 455.5,294.1 455.69,282.1 456.04,270.11 456.42,261.11 456.91,252.13 457.74,240.16 458.8,228.2 459.42,222.23 461.19,207.34 463.29,192.49 465.18,180.64 471.77,142.2 474.5,124.41 475.7,115.49 476.78,106.55 477.75,97.6 478.6,88.64 479.78,73.69 480.37,64.71 481.03,52.73 482.02,28.75 482.75,1.76" fill="none" stroke="#171820" stroke-width="1"/><polyline id="SvgjsPolyline13286" points="476.73,597.25 475.73,588.3 474.63,579.37 472.55,564.52 470.23,549.7 463.32,508.27 461.08,493.44 459.1,478.57 458.05,469.63 456.82,457.7 455.75,445.74 454.62,430.79 453.73,415.81 452.93,397.83 452.44,382.84 451.96,361.84 451.66,340.85 451.49,316.85 451.46,292.85 451.55,271.85 451.8,247.85 452.12,229.85 452.69,208.86 453.4,190.87 454.02,178.89 454.99,163.92 455.95,151.96 456.79,143 457.73,134.05 458.78,125.11 460.35,113.21 463.03,95.41 469.96,53.99 472.71,36.2 474.34,24.31 475.08,18.36 476.11,9.42 477.04,0.46" fill="none" stroke="#171820" stroke-width="1"/><polyline id="SvgjsPolyline13287" points="450.27,359.12 450.13,410.12 449.87,449.12 449.5,479.12 448.99,506.12 448.26,533.11 447.35,557.09 446.47,575.07 444.99,599.02" fill="none" stroke="#171820" stroke-width="1"/><polyline id="SvgjsPolyline13288" points="448.53,436.3 447.69,457.29 446.71,475.26 445.88,487.23 445.15,496.2 443.42,514.12 442.4,523.06 441.28,531.99 438.77,549.81 435.96,567.59 430.98,597.18" fill="none" stroke="#171820" stroke-width="1"/><polyline id="SvgjsPolyline13289" points="404.88,513.68 404.53,498.69 404.07,483.69 403.61,471.7 402.69,453.73 401.88,441.75 401.15,432.78 400.28,423.83 398.87,411.91 397.6,403 396.14,394.12 394.45,385.28 392.58,376.48 391.25,370.62 389.12,361.88 382.97,338.68 381.5,332.87 379.5,324.09 378.39,318.19 377.54,312.26 377,306.28 376.8,300.29 376.83,297.29 377.18,291.3 377.85,285.34 378.81,279.41 380,273.53 381.36,267.69 382.83,261.87 387.47,244.48 389.71,235.76 391.8,227.01 393.1,221.15 394.87,212.33 396.91,200.5 398.61,188.62 399.67,179.69 400.86,167.75 401.82,155.78 402.76,140.81 403.49,125.83 404.14,107.84 404.69,86.85 405.13,62.85 405.37,44.86" fill="none" stroke="#171820" stroke-width="1"/><polyline id="SvgjsPolyline13290" points="404.66,457 404.07,439.01 403.4,424.03 402.51,409.05 401.6,397.09 400.49,385.14 399.17,373.21 397.66,361.31 394.01,334.55 392.64,322.63 392.09,316.66 391.68,310.67 391.45,304.68 391.39,298.68 391.66,289.68 392.06,283.7 392.6,277.72 394,265.8 397.25,242.02 398.77,230.12 400.1,218.19 401.48,203.26 402.75,185.3 403.54,170.32 404.34,149.34 404.83,131.35" fill="none" stroke="#171820" stroke-width="1"/><polyline id="SvgjsPolyline13291" points="443.63,2.34 445.05,20.28 446.22,38.24 447.03,53.22 447.94,74.2 448.54,92.19 449.07,113.18 449.55,140.18 449.88,170.18" fill="none" stroke="#171820" stroke-width="1"/><polyline id="SvgjsPolyline13292" points="497.69,2.79 501.43,29.53 503.37,44.4 504.77,56.32 506.02,68.25 507.11,80.2 508.25,95.16 509.17,110.13 509.9,125.11 510.57,143.1 511.07,161.09 511.53,185.09 511.86,212.09 512.07,242.09 512.19,284.09 512.17,323.09 512.04,356.09 511.64,398.09 510.98,431.08 510.51,446.07 510.03,458.06 509.43,470.05 508.5,485.02 507.04,502.96 505.84,514.9 504.47,526.82 501.71,547.64 496.63,583.28 494.7,598.15" fill="none" stroke="#171820" stroke-width="1"/><polyline id="SvgjsPolyline13293" points="487.19,2.93 487.97,17.91 488.96,32.87 490.2,47.82 491.4,59.76 492.42,68.7 494.34,83.58 495.6,92.49 500.46,125.13 502.88,142.97 503.96,151.9 504.93,160.85 506.06,172.8 506.79,181.77 507.61,193.74 508.29,205.72 508.95,220.71 509.44,235.7 509.74,247.69 510.04,265.69 510.2,283.69 510.23,301.69 509.99,331.69 509.78,343.69 509.4,358.68 508.86,373.67 508.3,385.66 507.59,397.64 506.95,406.62 506.21,415.59 505.35,424.55 503.31,442.43 501.3,457.29 496.47,489.94 494.8,501.82 492.91,516.7 491.58,528.63 490.12,543.56 488.72,561.5 487.65,579.47 486.84,597.45" fill="none" stroke="#171820" stroke-width="1"/><polyline id="SvgjsPolyline13294" points="484.39,0.54 484.54,36.54 484.86,75.54 485.26,102.54 485.98,132.53 486.87,156.51 488.1,180.48 489.64,204.43 491.73,234.36 492.99,255.32 493.41,264.31 493.83,276.3 494.03,285.3 494.12,294.3 494.1,303.3 493.9,315.3 493.51,327.29 493.12,336.28 492.12,354.26 489.34,396.16 488.09,417.13 486.94,441.1 486.28,459.09 485.55,486.08 485.02,516.07 484.68,549.07 484.43,597.07" fill="none" stroke="#171820" stroke-width="1"/><polyline id="SvgjsPolyline13295" points="483.12,540.48 482.58,516.48 481.74,492.5 480.66,471.53 479.85,459.55 478.62,444.6 476.8,426.7 474.3,405.85 469.65,370.15 468.25,358.23 467.04,346.29 466.07,334.33 465.37,322.35 464.96,310.36 464.85,298.36 465.04,286.36 465.53,274.37 466.31,262.4 467.35,250.44 468.28,241.49 469.32,232.55 474.71,190.9 476.48,176 478.3,158.1 479.77,140.16 481.06,119.2 482.09,95.22 482.55,80.23 482.91,65.23 483.4,35.23" fill="none" stroke="#171820" stroke-width="1"/><polyline id="SvgjsPolyline13296" points="464.79,598.46 461.84,577.67 459.22,556.83 457.6,541.92 456.47,529.97 455.72,521.01 454.26,500.06 453.3,482.08 452.36,458.1 451.66,431.11" fill="none" stroke="#171820" stroke-width="1"/><polyline id="SvgjsPolyline13297" points="450.87,225.91 451.31,183.92 451.93,153.92 452.39,138.93 452.97,123.94 453.55,111.95 454.24,99.97 455.28,85.01 456.01,76.04 457.11,64.09 458.04,55.14 459.4,43.22 460.88,31.31 462.47,19.41 465.04,1.6" fill="none" stroke="#171820" stroke-width="1"/><polyline id="SvgjsPolyline13298" points="509.58,1.14 510.23,16.13 510.85,34.11 511.62,67.11 511.94,88.1 512.19,112.1 512.48,166.1" fill="none" stroke="#171820" stroke-width="1"/><polyline id="SvgjsPolyline13299" points="536.46,597.73 535.78,573.74 535.05,555.76 533.87,534.79 532.76,519.83 531.12,501.91 529.84,489.98 528.08,475.08 524.41,445.31 522.4,427.42 520.7,409.5 519.33,391.55 518.61,379.57 518.02,367.59 517.28,346.6 516.82,322.61 516.71,298.61 516.95,274.61 517.47,253.62 518.2,235.63 519.23,217.66 520.61,199.71 522.03,184.78 523.99,166.89 528.3,131.15 529.67,119.22 531.22,104.31 532.55,89.36 533.85,71.41 534.99,50.44 535.81,29.46 536.52,2.47" fill="none" stroke="#171820" stroke-width="1"/><polyline id="SvgjsPolyline13300" points="530.34,599.34 528.27,581.46 522.88,539.81 520.78,521.93 519.84,512.98 518.45,498.04 517.49,486.08 516.68,474.11 516,462.13 515.32,447.14 514.89,435.15 514.32,414.16 513.93,393.16 513.62,366.16 513.38,318.17" fill="none" stroke="#171820" stroke-width="1"/><polyline id="SvgjsPolyline13301" points="512.79,597.27 512.7,414.27" fill="none" stroke="#171820" stroke-width="1"/><polyline id="SvgjsPolyline13302" points="483.79,505.01 483.39,466.01 482.7,430.02 481.71,397.04 479.9,349.07 479.52,337.08 479.13,319.08 479.01,304.08 479.14,286.08 479.45,271.09 480.11,250.1 481.94,199.13 482.62,175.14 483.27,142.14 483.71,103.15" fill="none" stroke="#171820" stroke-width="1"/><polyline id="SvgjsPolyline13303" points="513.74,132.27 514.04,117.27 514.63,96.28 515.34,78.3 516.27,60.32 517.27,45.35 518.49,30.4 519.92,15.47 521.56,0.56" fill="none" stroke="#171820" stroke-width="1"/><polyline id="SvgjsPolyline13304" points="550.79,1.28 552.44,16.19 553.92,31.11 554.96,43.07 556.06,58.03 556.96,73 557.55,84.99 558.26,102.97 558.71,117.96 559.18,138.96 559.47,156.96 559.74,180.96 559.95,210.95 560.14,279.95 560.13,324.95 560.02,366.95 559.72,411.95 559.26,444.95 558.94,459.95 558.52,474.94 557.97,489.93 557.42,501.92 556.75,513.9 555.94,525.87 554.98,537.83 554.16,546.8 551.96,567.68 548.46,597.47" fill="none" stroke="#171820" stroke-width="1"/><polyline id="SvgjsPolyline13305" points="539.79,1.19 540.23,13.18 541.09,31.16 542.01,46.13 542.91,58.09 543.95,70.05 545.12,81.99 546.74,96.9 550.14,126.71 552.29,147.6 554.05,168.53 555.22,186.49 555.85,198.47 556.36,210.46 556.87,225.45 557.25,240.45 557.57,258.44 557.73,273.44 557.82,303.44 557.55,336.44 557.28,351.44 556.9,366.43 556.13,387.42 555.54,399.41 555.01,408.39 553.96,423.35 552.41,441.29 550.57,459.19 545.94,500.94 544.75,512.88 543.4,527.82 542.26,542.77 541.67,551.75 541,563.73 540.08,584.71 539.6,599.71" fill="none" stroke="#171820" stroke-width="1"/><polyline id="SvgjsPolyline13306" points="537.84,14.72 537.91,77.72 538.07,128.72 538.37,176.72 539.16,266.72 539.24,305.72 539.02,347.71 538.36,422.71 538.09,467.71 537.92,521.71 537.83,599.71" fill="none" stroke="#171820" stroke-width="1"/><polyline id="SvgjsPolyline13307" points="560.69,155.86 560.96,101.87 561.45,59.87 562.11,29.88 562.58,14.88 563.05,2.89" fill="none" stroke="#171820" stroke-width="1"/><polyline id="SvgjsPolyline13308" points="580.39,597.1 579.96,576.1 579.34,555.11 578.47,534.13 577.48,516.15 576.69,504.18 575.3,486.23 574,471.29 571.25,441.42 569.48,420.49 568.19,402.54 567.3,387.57 566.46,369.58 565.7,345.6 565.29,321.6 565.2,300.6 565.31,282.6 565.75,258.61 566.33,240.62 566.98,225.63 568,207.66 569.27,189.7 570.49,174.75 574.98,123.95 576.58,103.01 577.53,88.04 578.61,67.07 579.4,46.09 579.98,25.09 580.43,1.1" fill="none" stroke="#171820" stroke-width="1"/><polyline id="SvgjsPolyline13309" points="572.51,598.55 568.94,565.75 567.19,547.83 566.16,535.88 565.24,523.91 563.94,502.95 563.11,484.97 562.78,475.98 562.03,448.99 561.45,412.99 561.19,383" fill="none" stroke="#171820" stroke-width="1"/><polyline id="SvgjsPolyline13310" points="560.49,451.88 560.38,598.88" fill="none" stroke="#171820" stroke-width="1"/><polyline id="SvgjsPolyline13311" points="600,441.15 599.57,471.15 599.18,489.15 598.64,507.14 597.77,528.12 596.94,543.1 595.68,561.05 594.42,576 592.09,599.89" fill="none" stroke="#171820" stroke-width="1"/><polyline id="SvgjsPolyline13312" points="582.43,3 582.82,20.99 583.45,41.99 584.05,56.97 584.96,74.95 586.1,92.91 587.21,107.87 590.97,152.72 592.58,173.65 593.75,191.62 594.55,206.59 595.42,227.58 596.02,248.57 596.42,272.56 596.55,299.56 596.39,323.56 596.03,344.56 595.42,365.55 594.68,383.54 593.71,401.51 592.52,419.47 591.62,431.44 587.48,482.27 586.38,497.23 585.41,512.2 584.59,527.17 583.57,551.15 582.93,572.14 582.37,599.14" fill="none" stroke="#171820" stroke-width="1"/><polyline id="SvgjsPolyline13313" points="581.32,566.63 581.11,470.63 580.36,350.63 580.2,302.63 580.3,260.63 581.07,137.63 581.24,83.63 581.32,23.63" fill="none" stroke="#171820" stroke-width="1"/><polyline id="SvgjsPolyline13314" points="594.43,2.79 595.89,20.73 596.71,32.7 597.56,47.68 598.12,59.66 598.78,77.65 599.2,92.64 599.64,113.64 599.98,137.64" fill="none" stroke="#171820" stroke-width="1"/></g></svg>