<?xml version="1.0" standalone="no"?>
<svg id="SvgjsSvg1001" width="600" height="600" xmlns="http://www.w3.org/2000/svg" version="1.1" xmlns:xlink="http://www.w3.org/1999/xlink" xmlns:svgjs="http://svgjs.com/svgjs" class="svg-paper" viewBox="0 0 600 600"><title id="SvgjsTitle6553">x=sqrt(x*x + y*y)|y=cos(x)|dTest=0.1|sd=0.5|sm=0.55|ts=0.01 | generated with FlowLines</title><g id="SvgjsG6554"><polyline id="SvgjsPolyline6555" points="0,521.08 28.2,520.84 56.91,522.91 86,527.15 162.68,541.42 185.34,543.91 210.52,544.64 234.46,543.1 259.36,539.29 332.23,521.57 354.58,517.1 377.81,514.33 400.6,513.83 417.96,514.9 439.38,517.65 509.48,531.21 539.13,535.72 569.03,538.08 599.62,537.96" fill="none" stroke="#000000" stroke-width="1"/><polyline id="SvgjsPolyline6556" points="0.07,548.88 27.67,548.64 56.39,550.56 84.93,554.43 163.56,568 188.04,570.35 209.63,570.86 233.59,569.53 258.55,566.14 329.49,550.73 354.28,546.24 377.54,543.75 402.13,543.33 420.09,544.44 440.34,546.89 511.8,559.68 539.13,563.53 567.84,565.72 599.63,565.65" fill="none" stroke="#000000" stroke-width="1"/><polyline id="SvgjsPolyline6557" points="0.02,493.27 30.01,493.09 58.71,495.42 88.33,500.15 161.84,514.95 187.46,517.96 210.84,518.59 235.36,516.78 259.6,512.59 283.46,506.61 331.87,492.6 355.85,487.14 377.84,484.2 400.03,483.62 418.58,484.9 438.18,487.68 507.46,502.22 537.65,507.23 569.32,509.93 599.91,509.78" fill="none" stroke="#000000" stroke-width="1"/><polyline id="SvgjsPolyline6558" points="0.08,576.68 27.67,576.45 55.81,578.21 83.79,581.74 161.37,594.31 185.86,596.62 208.65,597.23 233.81,595.98 257.62,593.05 328.27,579.2 355.51,574.77 378.21,572.65 402.2,572.31 421.96,573.48 442.82,575.9 510.87,587.3 540.01,591.16 571.13,593.25 599.93,593.06" fill="none" stroke="#000000" stroke-width="1"/><polyline id="SvgjsPolyline6559" points="0.02,465.46 28.82,465.23 58.7,467.73 87.68,472.62 163.92,489.07 188.33,492.09 211.11,492.71 236.2,490.57 261.48,485.48 285.09,478.58 331.7,462.82 356.03,456.3 377.95,452.88 399.53,452.2 418.66,453.68 438.21,456.8 505.46,472.24 536.75,477.89 568.4,480.83 599.59,480.73" fill="none" stroke="#000000" stroke-width="1"/><polyline id="SvgjsPolyline6560" points="391.67,600 396.47,600" fill="none" stroke="#000000" stroke-width="1"/><polyline id="SvgjsPolyline6561" points="0.58,437.63 28.77,437.41 58.64,440.03 88.17,445.32 144.15,458.85 167.08,463.53 191.48,466.55 213.67,466.9 238.7,464.14 263.17,458.21 286.4,450.12 335.31,430.25 355.29,423.8 376.47,419.63 398.02,418.59 415.96,419.99 435.48,423.32 503.56,440.4 534.15,446.49 566.36,449.9 599.94,449.88" fill="none" stroke="#000000" stroke-width="1"/><polyline id="SvgjsPolyline6562" points="0.49,409.82 29.87,409.64 59.13,412.4 90.35,418.41 147.26,433.2 169.54,438 195.13,441.15 217.32,441.07 242.8,437.21 267.42,429.56 290.45,419.35 337.23,394.88 356.62,386.84 376.39,381.91 395.52,380.55 412.27,381.75 432.92,385.51 504.06,405.11 535.16,411.68 567.36,415.18 599.74,415.12" fill="none" stroke="#000000" stroke-width="1"/><polyline id="SvgjsPolyline6563" points="0.34,382.01 30.33,381.84 58.38,384.57 88.97,390.64 147.95,406.98 173.1,412.73 199.3,415.79 223.85,414.78 236.83,412.45 250.67,408.49 263.5,403.41 277.93,396.07 300.98,380.91 341.39,348.84 357.73,338.8 374.62,332.68 391.85,330.52 409.21,331.51 428.64,335.24 501.55,357.35 533.68,364.84 565.83,368.73 599.41,368.78" fill="none" stroke="#000000" stroke-width="1"/><polyline id="SvgjsPolyline6564" points="0.15,354.2 33.73,354.2 50.45,355.73 68.24,358.51 96.86,365.2 158.44,383.31 186.66,388.99 200.4,390.18 213,390.08 225.52,388.68 237.8,385.9 253.52,380.03 267.68,372.18 281.05,362.03 293.59,349.15 302.03,337.5 308.3,325.89 313.03,313.57 319.29,292.9 323.33,283.55 329.34,273.88 336.42,265.73 346.62,257.38 357.06,251.48 368.86,247.1 381.19,244.57 400.95,243.94 425.27,247.45 446.74,253.1 503.97,271.1 537.87,278.89 568.86,282.33 599.45,282.21" fill="none" stroke="#000000" stroke-width="1"/><polyline id="SvgjsPolyline6565" points="0.21,369.11 33.19,369.15 66.53,373.19 95.78,379.82 155.78,396.95 182.81,402.43 206.13,404.07 229.39,401.83 241.05,399.01 254.6,394.16 265.96,388.71 278.78,380.93 291.7,371.17 304.07,359.81 315.83,346.99 338.26,319.61 349.47,308.78 357.83,302.95 367.54,298.26 377.32,295.37 388.6,293.83 406.57,294.39 427.2,298.23 500.47,321.18 531.34,328.78 549.11,331.64 566.43,333.26 599.41,333.27" fill="none" stroke="#000000" stroke-width="1"/><polyline id="SvgjsPolyline6566" points="0.56,326.36 31.74,326.27 62.73,329.77 95.47,337.26 151.03,354.55 173.07,360.39 196.18,363.97 207.57,364.34 218.93,363.54 232.44,360.8 245.9,355.72 257.29,349.08 267.86,340.23 276.31,330.11 282.26,319.71 286.02,309.59 290.7,288.51 294.12,277.65 299.5,266.26 307.48,254.29 318.81,241.91 331.91,231.42 346.99,222.78 362.12,217.02 374.39,214.17 386.9,212.74 400.69,212.68 413.83,213.9 442.6,219.85 500.11,236.96 530.43,244.26 548.2,247.13 565.52,248.79 599.7,248.84" fill="none" stroke="#000000" stroke-width="1"/><polyline id="SvgjsPolyline6567" points="0.33,298.56 32.12,298.47 64.28,302.25 97.54,310.14 152.37,327.76 173.18,333.54 195.64,337.35 214.22,337.45 224.88,335.79 236.32,332.2 245.94,327.32 254.17,321.31 260.98,314.56 266.45,307.42 288.56,265.54 296.75,253.7 305.75,243.25 319.02,231.11 332.8,221.51 347.74,213.86 364.2,208.26 376.55,205.8 389.09,204.66 401.69,204.76 415.42,206.1 440.7,211.18 502.35,229.08 532.73,236.11 564.87,240.14 599.64,240.23" fill="none" stroke="#000000" stroke-width="1"/><polyline id="SvgjsPolyline6568" points="0.09,270.75 33.67,270.74 66.4,274.79 100.19,283.03 153.26,300.26 172.89,305.83 194.12,309.72 210.89,310.23 221.6,308.89 230.29,306.57 238.57,303.08 246.78,298.11 254.2,292.03 260.86,285.12 292.79,245.38 312.53,227 326.24,217.3 340.98,209.26 355.48,203.53 369.4,199.9 392.65,197.53 416.57,199.17 442.44,204.39 504.74,222.19 533.42,228.64 565.56,232.55 599.74,232.6" fill="none" stroke="#000000" stroke-width="1"/><polyline id="SvgjsPolyline6569" points="0.48,242.91 34.66,242.98 67.97,247.19 99.46,254.76 172.27,277.18 191.12,280.81 208.47,281.78 226.26,279.3 234.8,276.47 242.92,272.61 257.29,262.83 295.71,228.4 318.91,211.37 333.01,203.41 346.74,197.37 359.29,193.3 374.55,190.14 395.49,188.74 418.2,190.55 444.06,195.77 502.98,212.32 532.24,218.93 565.57,223.01 599.75,223.05" fill="none" stroke="#000000" stroke-width="1"/><polyline id="SvgjsPolyline6570" points="0.27,215.1 33.85,215.11 66.6,219 99.33,226.52 171.85,247.84 190.14,251.21 206.29,252.26 225.35,250.25 242.45,244.73 260.43,235.12 302.61,206.46 326.04,193.07 339.74,186.97 352.78,182.46 366.17,179.16 378.63,177.28 400.8,176.6 427.6,179.68 450.44,184.74 509.49,200.81 541.26,207.12 569.91,209.89 599.9,209.69" fill="none" stroke="#000000" stroke-width="1"/><polyline id="SvgjsPolyline6571" points="0.07,187.29 33.65,187.28 67.02,191.11 100.4,198.49 168.61,217.41 187.5,220.83 205.45,222.08 223.97,220.63 243.13,215.75 263.55,207.07 309.06,182.76 332.01,172.38 357.17,164.43 382.04,160.57 404.82,160.44 429.82,163.5 453.86,168.72 510.17,183.42 540.2,189.23 570.05,192.09 599.44,191.92" fill="none" stroke="#000000" stroke-width="1"/><polyline id="SvgjsPolyline6572" points="0.54,159.46 34.13,159.49 65.73,162.91 97.47,169.39 166.61,187.15 185.54,190.36 202.28,191.64 223.23,190.57 243.78,186.34 265.89,178.69 311,159.07 334.58,150.2 358.34,143.86 383.9,140.54 407.29,140.69 432.88,143.88 455.78,148.67 511.11,162.34 541.21,167.85 571.07,170.52 599.86,170.29" fill="none" stroke="#000000" stroke-width="1"/><polyline id="SvgjsPolyline6573" points="0.45,131.65 31.64,131.55 63.88,134.65 93.96,140.24 164.01,156.84 182.96,159.88 201.5,161.28 223.67,160.35 244.34,156.75 265.68,150.66 314.77,132.9 338.25,125.58 362.87,120.27 386.14,117.97 409.53,118.36 433.35,121.21 456.32,125.68 511.26,138.42 541.99,143.74 570.08,146.16 599.47,145.99" fill="none" stroke="#000000" stroke-width="1"/><polyline id="SvgjsPolyline6574" points="0.4,103.84 31.59,103.74 64.44,106.76 95.16,112.18 163.15,127.03 183.93,130 200.69,131.1 222.27,130.45 244.82,127.17 267.54,121.59 316.83,106.32 339.43,100.27 364.79,95.59 388.11,93.73 410.89,94.24 434.73,96.96 514.05,113.31 542.49,117.86 569.99,120.1 599.98,119.92" fill="none" stroke="#000000" stroke-width="1"/><polyline id="SvgjsPolyline6575" points="0.39,76.03 32.18,75.96 63.26,78.64 90.51,82.99 162.28,97.39 181.3,99.94 198.66,101.12 222.04,100.62 245.84,97.58 268.13,92.79 338.37,74.5 363.81,70.22 388.33,68.42 409.92,68.83 435.58,71.5 515.71,86.87 544.2,91.06 572.92,93.09 599.91,92.82" fill="none" stroke="#000000" stroke-width="1"/><polyline id="SvgjsPolyline6576" points="0.44,48.22 30.43,48.09 60.94,50.42 90.02,54.69 158.43,67.48 180.45,70.29 198.41,71.42 220.6,71.08 242.68,68.78 269.22,63.85 341.73,47.24 366.67,43.7 390.63,42.33 414.01,43 437.87,45.51 517,59.7 544.34,63.45 571.87,65.33 599.47,65.12" fill="none" stroke="#000000" stroke-width="1"/><polyline id="SvgjsPolyline6577" points="0.54,20.42 32.33,20.36 61.65,22.57 90.76,26.63 158.15,38.32 178.41,40.74 197.57,41.92 220.96,41.62 246.03,39.13 268.5,35.32 342.55,20.12 368.14,16.91 390.91,15.79 413.1,16.35 438.18,18.76 514.51,31.55 541.86,35.21 572.39,37.26 599.98,37.02" fill="none" stroke="#000000" stroke-width="1"/><polyline id="SvgjsPolyline6578" points="100.15,0.04 162.95,10.02 183.85,12.05 204.83,12.82 224.62,12.23 247.31,10.02 302.82,0.1" fill="none" stroke="#000000" stroke-width="1"/><polyline id="SvgjsPolyline6579" points="495.2,0.04 526.64,4.81 549.9,7.29 575.07,8.56 599.66,8.29" fill="none" stroke="#000000" stroke-width="1"/></g></svg>