<?xml version="1.0" standalone="no"?>
<svg id="SvgjsSvg1001" width="600" height="600" xmlns="http://www.w3.org/2000/svg" version="1.1" xmlns:xlink="http://www.w3.org/1999/xlink" xmlns:svgjs="http://svgjs.com/svgjs" class="svg-paper" viewBox="0 0 600 600"><title id="SvgjsTitle4688">x=min((cos(sin(x))-x),sin(sqrt(x*x + y*y)))|y=sin(x)|dTest=0.0|sd=0.2|sm=0.2|ts=0.05 | generated with FlowLines</title><g id="SvgjsG4689"><polyline id="SvgjsPolyline4690" points="0.05,542.04 0.58,533.06 0,521.08" fill="none" stroke="#171820" stroke-width="1"/><polyline id="SvgjsPolyline4691" points="0.02,589.58 2.93,584.34 5.47,578.9 7.61,573.3 9.33,567.55 11.09,558.73 11.72,552.77 11.95,546.77 11.56,534.78 10.89,528.82 9.35,519.96 5.61,505.43 0.82,491.22" fill="none" stroke="#171820" stroke-width="1"/><polyline id="SvgjsPolyline4692" points="8.62,598.69 12.98,590.82 15.49,585.37 17.61,579.76 19.3,574 20.54,568.13 21.32,562.19 21.67,556.2 21.41,547.2 20.79,541.24 19.27,532.37 15.5,517.85 9.55,500.87 0.06,478.83" fill="none" stroke="#171820" stroke-width="1"/><polyline id="SvgjsPolyline4693" points="22.11,599.22 25.73,590.98 27.62,585.29 29.07,579.47 30.05,573.55 30.56,567.58 30.62,561.58 30.26,555.59 29.05,546.68 25.58,532.09 19.76,515.06 11.56,495.73 1.05,474.16" fill="none" stroke="#171820" stroke-width="1"/><polyline id="SvgjsPolyline4694" points="35.69,598.4 37.55,592.7 38.93,586.86 39.82,580.93 40.2,574.94 40.1,568.94 39.57,562.97 38.66,557.04 36.68,548.26 34.14,539.63 31.16,531.14 24.27,514.51 13.88,492.88 1.21,469.04" fill="none" stroke="#171820" stroke-width="1"/><polyline id="SvgjsPolyline4695" points="48.09,599.29 49.38,593.43 50.11,587.48 50.3,581.48 49.96,575.49 49.17,569.55 47.98,563.67 46.47,557.86 43.72,549.29 37.02,532.59 28,513.63 15.38,489.76 0.57,463.67" fill="none" stroke="#171820" stroke-width="1"/><polyline id="SvgjsPolyline4696" points="60.52,598.96 60.99,589.98 60.54,584 59.56,578.08 56.42,566.51 51.04,552.51 43.4,536.22 32.22,514.98 18.96,491.46 0.62,460.48" fill="none" stroke="#171820" stroke-width="1"/><polyline id="SvgjsPolyline4697" points="73.14,599.9 71.95,590.98 69.64,582.29 65.33,571.09 58.88,557.55 50.39,541.69 36.98,518.25 17.01,484.75 1.33,459.18" fill="none" stroke="#171820" stroke-width="1"/><polyline id="SvgjsPolyline4698" points="85.14,599.58 83.03,593.97 79.21,585.82 68.99,567.48 40.93,521.34 1.38,457.62" fill="none" stroke="#171820" stroke-width="1"/><polyline id="SvgjsPolyline4699" points="101.14,599.73 94.31,593.87 88.14,587.33 80.64,577.97 71.83,565.82 48.54,530.88 0.33,454.88" fill="none" stroke="#171820" stroke-width="1"/><polyline id="SvgjsPolyline4700" points="111.27,297.4 128.08,314.53 144.43,332.1 160.21,350.18 175.39,368.77 189.91,387.88 201.98,405.06 211.65,420.24 220.25,436.05 224.98,447.07 226.88,452.76 228.37,458.57 229.68,467.47 229.68,476.46 228.3,485.34 225.65,493.94 223.3,499.46 220.57,504.8 214.21,514.96 208.84,522.19 203.09,529.11 194.97,537.94 188.6,544.3 179.8,552.46 170.69,560.27 161.29,567.72 151.55,574.74 144,579.63 136.16,584.04 130.73,586.59 125.09,588.65 119.25,590 116.27,590.32 110.29,590.06 104.41,588.86 101.55,587.95 96.16,585.33 88.92,580.01 80.42,571.56 70.85,560.01 58.45,543.06 46.63,525.7 1.09,455.12" fill="none" stroke="#171820" stroke-width="1"/><polyline id="SvgjsPolyline4701" points="111.78,314.48 73.26,276.64 27.98,232.84 11.09,215.79 0.87,204.81" fill="none" stroke="#171820" stroke-width="1"/><polyline id="SvgjsPolyline4702" points="111.62,279.55 113.33,282.01 117.35,286.45 151.07,320.62 171.67,342.42 221.55,398.43 237.75,416.13 254.59,433.24 267.96,445.28 275.07,450.8 282.62,455.69 287.99,458.34 290.8,459.39 296.64,460.74 302.63,460.82 308.5,459.62 314.07,457.41 321.86,452.93 326.62,449.28 330.65,444.84 333.9,439.81 337.54,431.59 340.05,422.95 341.8,414.13 343.02,405.21 344.11,393.26 345.34,366.29 345.94,321.29 346.09,117.29 345.69,111.31 344.49,105.44 341.34,97.02 336.76,89.29 333,84.61 328.74,80.39 321.49,75.08 316.16,72.33 313.37,71.24 307.59,69.66 301.63,68.95 295.64,69.16 289.75,70.27 286.88,71.15 281.37,73.5 276.21,76.55 269.26,82.25 265.22,86.69 260.17,94.12 256.48,102.32 254.35,111.05 253.91,117.03 254,120.03 254.82,125.96 255.54,128.88 256.47,131.73 258.92,137.2 260.41,139.8 263.91,144.67 270.25,151.04 277.67,156.11 283.09,158.68 288.79,160.55 294.68,161.65 300.67,161.97 306.64,161.48 312.5,160.2 318.13,158.15 320.8,156.79 323.34,155.18 327.89,151.29 329.89,149.05 333.3,144.12 336,138.77 338.11,133.16 339.76,127.39 340.99,121.52 341.36,115.54 341.2,112.54 340.23,106.63 338.42,100.91 334.31,92.92 330.74,88.1 326.58,83.78 321.89,80.05 316.73,76.99 311.18,74.73 308.29,73.93 302.36,73.05 296.37,73.15 290.48,74.24 287.62,75.14 284.83,76.26 279.55,79.09 277.07,80.78 272.49,84.65 268.45,89.08 265.02,94 261.13,102.1 259.49,107.87 258.7,113.81 258.81,119.8 259.21,122.77 260.71,128.58 261.79,131.38 264.58,136.68 266.27,139.16 268.13,141.51 272.34,145.78 277.11,149.41 282.34,152.34 287.93,154.51 293.77,155.85 299.75,156.33 302.75,156.23 305.73,155.92 311.59,154.65 317.21,152.55 322.47,149.68 324.9,147.92 329.21,143.77 331.08,141.42 334.25,136.33" fill="none" stroke="#171820" stroke-width="1"/><polyline id="SvgjsPolyline4703" points="111.15,310.5 112.06,313.33 132.86,338.95 142.05,350.8 152.61,365.38 160.92,377.87 168.66,390.72 175.66,403.98 180.55,414.93 184.59,426.23 187.45,437.87 188.6,446.8 188.71,455.79 187.65,464.72 185.37,473.42 181.94,481.73 177.49,489.55 174.02,494.44 170.22,499.08 161.71,507.54 152.21,514.84 147.12,518.03 141.83,520.86 136.36,523.32 130.72,525.35 124.92,526.9 119.02,527.93 110.04,528.39 101.09,527.47 95.25,526.1 89.57,524.18 81.41,520.39 71.24,514.03 61.82,506.61 53,498.48 42.63,487.64 30.86,474.03 17.72,457.65 1.34,436.19" fill="none" stroke="#171820" stroke-width="1"/><polyline id="SvgjsPolyline4704" points="110.57,304.62 128.83,324.5 142.59,340.36 155.81,356.68 168.38,373.5 178.54,388.36 187.96,403.69 196.39,419.59 202.39,433.34 206.07,444.75 207.93,453.55 208.63,459.51 208.84,465.5 208.17,474.47 206.29,483.27 204.4,488.96 202.06,494.48 197.82,502.42 191.06,512.32 187.3,517 181.27,523.68 174.85,529.99 168.08,535.91 160.99,541.45 153.58,546.57 145.87,551.2 140.54,553.96 135.07,556.41 129.44,558.49 123.67,560.11 117.76,561.17 111.78,561.57 105.8,561.22 102.83,560.75 97.04,559.22 88.8,555.63 83.66,552.54 78.79,549.03 69.75,541.14 59.44,530.25 49.86,518.71 37.19,501.97 21.62,479.91 1.36,450.15" fill="none" stroke="#171820" stroke-width="1"/><polyline id="SvgjsPolyline4705" points="110.6,288.68 142.06,320.86 164.39,345.15 187.77,372.52 213.95,405.36 231.86,429.43 240.34,441.8 245.1,449.44 249.44,457.32 253.12,465.53 255.02,471.22 256.29,477.08 256.78,483.05 256.7,486.05 255.88,491.99 254.27,497.77 252.01,503.32 249.26,508.65 242.75,518.72 233.48,530.51 221.49,543.93 208.99,556.89 179.28,586.57 166.84,599.58" fill="none" stroke="#171820" stroke-width="1"/><polyline id="SvgjsPolyline4706" points="111.02,292.92 138.32,320.77 162.51,347.42 185.53,375.09 207.38,403.7 222.7,425.93 228.94,436.18 233.22,444.09 236.97,452.27 239.06,457.9 240.71,463.67 242.28,472.52 242.74,478.5 242.52,484.49 241.6,490.42 240.03,496.21 237.91,501.82 233.9,509.87 230.81,515.02 225.71,522.43 214.4,536.42 197.95,553.9 180.69,570.56 149.69,598.91" fill="none" stroke="#171820" stroke-width="1"/><polyline id="SvgjsPolyline4707" points="110.16,299.56 130.95,321.19 145,336.79 158.59,352.81 173.46,371.64 185.83,388.61 197.43,406.11 206.49,421.66 213,435.17 217.13,446.43 219.31,455.16 220.19,461.09 220.55,467.08 220.03,476.06 218.22,484.86 215.26,493.36 209.87,504.07 203.25,514.07 197.69,521.15 191.74,527.9 185.46,534.34 178.89,540.5 172.08,546.38 162.61,553.75 155.23,558.89 147.57,563.62 139.65,567.9 131.47,571.65 125.82,573.65 120.01,575.12 114.06,575.91 108.07,575.83 102.16,574.81 99.29,573.94 96.5,572.85 91.17,570.11 86.18,566.77 81.51,563.01 72.91,554.65 63.1,543.3 52.16,529.01 40.02,511.88 0.25,451.86" fill="none" stroke="#171820" stroke-width="1"/><polyline id="SvgjsPolyline4708" points="109.7,292.95 138.97,323.06 159.08,345.32 182.08,373.01 193.1,387.24 203.78,401.73 212.34,414.05 218.87,424.12 224.97,434.45 229.12,442.43 232.74,450.67 234.74,456.33 236.9,465.06 237.64,471.01 237.74,477.01 237.18,482.98 235.97,488.85 233.1,497.37 230.61,502.83 226.21,510.68 221.21,518.16 213.88,527.66 206,536.71 195.62,547.53 175.9,565.97 164.51,575.73 152.83,585.14 143.23,592.35 133.33,599.11" fill="none" stroke="#171820" stroke-width="1"/><polyline id="SvgjsPolyline4709" points="111.81,315.87 112.71,318.72 113.5,324.66 114.5,327.48 113.95,330.4 111.2,329.27 108.72,327.58 104.11,323.75 95.32,315.58 22.8,243.85 1.82,222.41" fill="none" stroke="#171820" stroke-width="1"/><polyline id="SvgjsPolyline4710" points="111.78,297.48 90.13,276.7 31.12,221.22 14.21,204.19 0.13,188.62" fill="none" stroke="#171820" stroke-width="1"/><polyline id="SvgjsPolyline4711" points="598,87.98 536.75,102.7 522.04,105.64 510.18,107.43 498.23,108.48 486.23,108.54 474.29,107.41 462.54,105 451.11,101.36 442.8,97.91 437.4,95.3 426.93,89.44 414.5,81.05 405.1,73.59 398.39,67.59 377.43,46.14 364.23,33.9 352.55,24.5 345.18,19.34 340.08,16.18 329.41,10.71 323.82,8.52 318.08,6.79 312.2,5.58 306.24,4.95 300.24,4.92 294.27,5.5 288.39,6.65 282.62,8.32 277.01,10.44 268.89,14.31 263.68,17.28 256.14,22.19 248.91,27.55 241.95,33.26 235.25,39.26 226.65,47.63 218.39,56.34 210.45,65.33 195.43,84.05 181.47,103.56 168.53,123.77 155.21,147.26 144.54,168.75 135.05,190.79 126.87,213.35 122.49,227.7 119.44,239.3 115.55,256.87 115.53,259.87 114.46,262.65 114.41,265.65 115.69,268.35 112.97,268.89 107.55,266.35 102.56,263.03 83.79,248.08 58.74,226.6 38.76,208.44 23.74,193.77 11.44,180.62 0,166.73" fill="none" stroke="#171820" stroke-width="1"/><polyline id="SvgjsPolyline4712" points="598.89,87.78 537.64,102.5 522.94,105.48 511.08,107.32 496.14,108.57 484.14,108.43 472.22,107.08 460.52,104.45 449.16,100.61 438.21,95.71 425.15,88.34 415.23,81.59 405.8,74.18 399.06,68.21 378.08,46.78 367.17,36.48 355.67,26.86 345.94,19.84 335.63,13.7 327.48,9.9 321.84,7.87 316.04,6.31 307.15,5.01 298.16,5.06 292.21,5.84 286.36,7.18 277.85,10.09 267.06,15.31 256.89,21.67 244.94,30.74 231.55,42.76 219.01,55.67 209.1,66.93 199.64,78.57 190.61,90.54 181.98,102.81 173.75,115.35 165.92,128.14 158.49,141.18 151.49,154.44 143.66,170.65 137.65,184.39 133.2,195.53 128.11,209.64 123.58,223.94 120.39,235.51 117.63,247.19 115.77,255.99 115.5,258.98 114.68,261.86 115.51,264.73 118.72,269.79 128.61,281.06 170.77,323.75 218.59,373.49 235.85,390.16 244.89,398.05 251.93,403.66 259.24,408.91 266.88,413.67 274.89,417.75 280.46,419.99 286.19,421.75 292.07,422.94 301.04,423.53 309.98,422.58 315.75,420.96 318.51,419.8 321.17,418.4 326.02,414.9 328.19,412.82 331.92,408.13 333.51,405.59 336.17,400.21 339.1,391.71 341.66,379.99 343.25,368.1 344.45,353.15 345.23,335.17 345.68,314.17 346.07,233.17 345.9,113.18 344.95,107.26 342.12,98.73 339.41,93.38 334.23,86.03 330.13,81.66 323.08,76.07 315.13,71.9 309.42,70.06 306.48,69.46 300.51,68.92 294.53,69.3 288.67,70.58 285.83,71.53 280.37,74.01 275.29,77.19 268.47,83.05 262.75,89.99 259.63,95.11 256.12,103.38 254.65,109.19 254.21,112.16 253.96,115.15 254.09,121.14 255.06,127.06 255.86,129.95 256.87,132.77 259.45,138.18 264.63,145.53 271.12,151.74 278.65,156.64 284.13,159.09 289.87,160.81 295.79,161.77 301.78,161.94 307.74,161.3 313.57,159.88 319.14,157.67 321.76,156.22 324.24,154.53 328.66,150.48 330.58,148.18 333.85,143.15 336.43,137.74 338.45,132.09 340.03,126.31 341.13,120.41 341.33,114.42 341.09,111.43 339.95,105.55 338,99.88 335.3,94.52 331.93,89.57 325.75,83.04 320.97,79.42 315.73,76.51 312.96,75.35 307.2,73.69 301.25,72.99 298.25,73.01 292.31,73.8 286.57,75.53 283.82,76.72 278.62,79.7 276.18,81.45 271.7,85.43 267.77,89.96 264.45,94.96 263.04,97.6 260.77,103.15 259.28,108.96 258.65,114.92 258.93,120.91 259.42,123.87 261.08,129.63 262.25,132.39 263.62,135.06 266.94,140.05 270.95,144.5 275.55,148.34 280.65,151.5 283.35,152.81 289,154.82 291.91,155.52 297.86,156.27 303.85,156.15 306.83,155.75 312.65,154.33 318.21,152.08 323.38,149.06 327.94,145.16 329.93,142.92 331.72,140.51 334.76,135.34" fill="none" stroke="#171820" stroke-width="1"/><polyline id="SvgjsPolyline4713" points="115.87,257.14 114.92,259.98 115.38,262.94 113.98,265.5 115.02,268.3 113.32,270.45 113.22,273.45 116.75,278.29 124.94,287.05 167.02,329.81 224.31,391.25 237.09,403.92 248.23,413.96 257.6,421.46 270.05,429.81 277.98,434.06 286.37,437.3 295.17,439.12 298.16,439.35 304.15,439.19 312.98,437.49 315.83,436.56 321.24,433.99 326.09,430.47 330.21,426.11 333.55,421.14 337.3,412.97 339.89,404.35 341.68,395.53 342.93,386.62 344.05,374.68 345.32,347.71 345.95,299.71 346.09,119.71 345.6,110.74 344.33,104.88 341.08,96.5 338.11,91.29 332.61,84.18 325.97,78.12 320.99,74.78 312.82,71.05 307.01,69.55 301.05,68.94 295.06,69.23 289.19,70.43 283.55,72.46 280.85,73.77 275.73,76.88 268.85,82.67 263.06,89.55 259.89,94.64 256.29,102.87 254.27,111.63 253.91,117.61 254.05,120.61 254.39,123.59 255.71,129.44 257.84,135.04 259.2,137.72 260.73,140.3 264.29,145.12 270.71,151.41 278.19,156.39 283.64,158.9 289.36,160.69 295.27,161.72 301.26,161.95 307.23,161.38 313.07,160.03 318.67,157.9 321.32,156.49 323.82,154.84 328.3,150.86 330.26,148.59 333.59,143.61 336.23,138.22 338.3,132.59 339.91,126.81 341.06,120.93 341.32,117.94 341.15,111.95 340.08,106.05 338.19,100.36 333.98,92.42 330.35,87.65 326.14,83.38 321.4,79.71 316.2,76.73 313.45,75.54 307.71,73.8 301.77,73.01 298.77,72.99 292.82,73.69 287.06,75.35 284.29,76.5 279.05,79.42 276.6,81.14 272.07,85.07 268.09,89.55 264.71,94.51 262.01,99.86 260.94,102.66 259.38,108.45 258.67,114.41 258.87,120.4 259.32,123.36 260,126.28 262.04,131.92 263.37,134.61 266.63,139.64 270.59,144.14 275.14,148.04 280.2,151.26 282.89,152.59 285.66,153.74 291.41,155.41 297.35,156.24 303.35,156.19 309.27,155.26 315,153.49 320.41,150.92 322.97,149.35 327.58,145.52 329.6,143.31 331.43,140.93 334.53,135.8" fill="none" stroke="#171820" stroke-width="1"/><polyline id="SvgjsPolyline4714" points="110.75,283.01 112.18,285.6 114.19,287.82 147.85,322.04 172.26,348.49 193.91,373.4 236.34,423.96 255.45,447.08 268.14,463.81 271.44,468.82 274.39,474.04 276.71,479.57 277.49,482.46 277.93,485.43 277.97,488.43 277.59,491.4 275.8,497.12 271.45,504.98 264.24,514.56 256.33,523.59 248.1,532.32 201.41,578.97 183.02,598.73" fill="none" stroke="#171820" stroke-width="1"/><polyline id="SvgjsPolyline4715" points="111.31,282.22 115.16,286.82 146.76,318.85 167.3,340.71 185.3,360.84 234.37,417.56 260.7,446.33 273.37,459.11 282.26,467.17 292.02,474.13 294.71,475.45 297.57,476.34 300.55,476.57 303.51,476.08 306.3,475 311.44,471.91 320.69,464.28 327.24,458.11 331.15,453.57 334.31,448.47 337.82,440.2 340.25,431.53 341.93,422.69 343.11,413.77 344.17,401.82 345.36,374.85 345.94,329.85" fill="none" stroke="#171820" stroke-width="1"/><polyline id="SvgjsPolyline4716" points="597.63,410.46 545.15,423.18 530.5,426.41 518.7,428.59 506.81,430.2 497.84,430.89 485.85,430.91 476.88,430.15 468,428.67 456.41,425.6 445.19,421.36 434.4,416.12 424.06,410.03 411.8,401.4 400.31,391.76 391.73,383.37 383.77,374.4 376.51,364.85 371.58,357.32 365.78,346.82 360.92,335.85 356.95,324.53 353.74,312.97 351.36,301.21 349.67,289.33 348.26,274.4 346.87,244.43 346.25,199.44 346.07,115.44 344.79,106.55 341.83,98.06 339.04,92.75 333.77,85.47 329.6,81.16 324.96,77.36 317.22,72.8 311.62,70.65 305.77,69.34 299.8,68.91 293.82,69.4 287.99,70.77 282.41,72.97 277.17,75.89 272.34,79.45 265.96,85.78 262.35,90.56 259.3,95.73 255.9,104.05 254.12,112.85 253.93,118.85 254.15,121.84 255.22,127.74 256.07,130.61 258.36,136.15 259.79,138.79 261.39,141.33 265.08,146.06 271.65,152.18 279.26,156.97 284.77,159.34 290.53,160.98 296.47,161.85 302.46,161.92 308.41,161.19 314.22,159.69 319.75,157.38 322.34,155.87 324.78,154.13 329.11,149.99 330.99,147.65 334.18,142.57 336.69,137.13 338.65,131.46 340.19,125.66 341.2,119.75 341.31,113.76 341.01,110.78 339.78,104.91 337.74,99.27 334.97,93.96 331.53,89.05 325.26,82.61 320.42,79.06 315.14,76.23 312.35,75.12 306.56,73.56 303.59,73.14 297.6,73.04 291.68,73.93 285.97,75.76 283.24,77 278.08,80.06 275.67,81.85 271.24,85.89 267.38,90.47 264.13,95.51 260.56,103.76 259.16,109.59 258.63,115.56 258.7,118.56 259.55,124.49 260.31,127.39 262.51,132.97 265.53,138.14 267.32,140.55 271.4,144.94 276.06,148.72 281.2,151.8 283.92,153.06 289.6,154.99 295.49,156.09 298.48,156.31 304.48,156.09 310.37,155 313.24,154.14 318.77,151.81 323.89,148.7 326.22,146.82 330.32,142.44 332.07,140.01 335.03,134.8" fill="none" stroke="#171820" stroke-width="1"/><polyline id="SvgjsPolyline4717" points="598.83,96.51 540.5,110.57 525.82,113.66 513.99,115.64 502.06,116.95 490.07,117.35 478.1,116.62 469.21,115.24 457.58,112.29 449.1,109.3 443.57,106.97 432.84,101.6 420.08,93.72 408.06,84.76 399.01,76.88 392.58,70.58 374.14,50.87 365.43,42.61 358.61,36.74 351.52,31.21 344.1,26.1 336.35,21.55 328.21,17.7 319.71,14.77 310.9,12.96 304.92,12.47 295.94,12.86 287.1,14.53 278.56,17.33 270.36,21.05 260.01,27.11 252.66,32.29 243.35,39.85 234.54,48 226.19,56.62 218.27,65.63 210.77,75 202.02,87.18 195.56,97.29 189.66,107.74 185.69,115.82 182.2,124.11 179.31,132.63 177.19,141.37 176.01,150.29 175.97,159.29 176.61,165.25 177.8,171.13 179.49,176.88 181.64,182.48 185.59,190.56 190.25,198.26 195.44,205.61 201.05,212.65 206.97,219.42 215.25,228.12 223.84,236.49 241.69,252.53 271.8,277.32 290.73,292.06 295.72,295.39 298.67,295.3 304.07,292.73 316.39,284.19 323.54,278.72 325.73,276.67 329.57,272.06 332.72,266.97 336.6,258.85 338.59,253.19 340.78,244.46 342.3,235.6 343.65,223.67 344.51,211.7 345.17,196.72 345.7,172.73 346.03,118.73" fill="none" stroke="#171820" stroke-width="1"/><polyline id="SvgjsPolyline4718" points="598.23,250.66 534.04,266.01 516.35,269.3 501.45,271.01 492.46,271.37 486.46,271.27 477.49,270.56 471.55,269.69 459.87,266.99 454.15,265.18 445.75,261.94 434.94,256.75 424.58,250.7 414.68,243.91 405.28,236.46 396.39,228.4 388.08,219.75 380.42,210.52 373.5,200.72 367.43,190.37 363.48,182.28 359.05,171.14 355.38,159.71 353.19,150.98 350.97,139.19 349.4,127.3 347.58,109.4 345.14,100.75 342.69,95.27 337.93,87.65 332.02,80.88 327.5,76.93 322.56,73.53 317.25,70.75 311.62,68.68 305.76,67.41 299.78,66.99 296.79,67.12 290.86,68.03 285.12,69.77 279.67,72.26 274.57,75.41 269.86,79.13 265.6,83.34 261.81,87.99 258.54,93.02 255.83,98.37 253.75,103.99 251.91,112.79 251.81,121.78 252.75,127.7 253.53,130.59 254.49,133.43 256.99,138.89 261.99,146.35 268.27,152.78 273.05,156.4 278.23,159.43 286.57,162.77 292.41,164.12 298.38,164.71 307.35,164.15 313.2,162.84 318.8,160.71 323.94,157.62 326.26,155.73 328.4,153.63 332.1,148.91 335.06,143.7 337.38,138.17 339.19,132.45 341.19,123.68 341.88,117.72 341.65,111.73 341.21,108.77 339.7,102.96 337.41,97.42 334.42,92.23 330.79,87.45 326.59,83.17 321.87,79.47 316.69,76.46 311.13,74.23 308.23,73.44 302.3,72.57 299.3,72.51 293.34,73.11 290.42,73.78 284.77,75.78 279.47,78.6 274.62,82.12 272.38,84.12 268.31,88.52 264.83,93.4 260.84,101.45 259.11,107.19 258.56,110.14 258.21,113.12 258.2,119.11 258.53,122.09 259.89,127.93 262.13,133.49 265.17,138.66 266.97,141.06 271.06,145.44 275.72,149.21 280.85,152.31 286.37,154.66 289.23,155.54 295.12,156.68 301.11,156.95 307.07,156.36 310.01,155.74 312.89,154.91 318.45,152.66 323.61,149.61 325.96,147.75 328.13,145.68 331.88,141 334.88,135.82 337.24,130.3" fill="none" stroke="#171820" stroke-width="1"/><polyline id="SvgjsPolyline4719" points="329.1,119.84 329.73,113.88 329.12,107.92 327.34,102.2 324.51,96.92 320.74,92.27 316.16,88.4 310.92,85.51 305.19,83.75 302.22,83.34 296.24,83.51 290.43,84.97 285.05,87.61 280.3,91.26 276.32,95.74 273.25,100.88 271.2,106.51 270.3,112.43 270.63,118.41 271.26,121.35 273.44,126.93 276.72,131.93 280.96,136.17 285.96,139.47 291.51,141.72 297.4,142.83 303.38,142.75 309.24,141.49 314.73,139.09 319.64,135.66 323.76,131.32 326.91,126.22 328.93,120.59" fill="none" stroke="#171820" stroke-width="1"/><polyline id="SvgjsPolyline4720" points="111.71,313.13 113.5,324.98 114.28,327.88 116.32,333.52 125.46,355.71 129.32,367.07 131.43,375.82 132.47,384.75 132.28,390.74 131.83,393.7 130,399.41 128.56,402.03 126.73,404.41 124.54,406.45 122.03,408.09 119.29,409.3 113.42,410.47 110.42,410.52 104.48,409.77 95.89,407.12 90.42,404.66 85.14,401.8 80.03,398.65 72.65,393.51 60.91,384.18 45.27,370.17 28.01,353.49 0.45,325.9" fill="none" stroke="#171820" stroke-width="1"/><polyline id="SvgjsPolyline4721" points="112.58,320.32 113.74,323.08 116.73,328.28 134.39,356.16 143.07,371.93 148.27,382.74 152.79,393.85 155.56,402.41 157.63,411.17 158.82,420.08 159,426.08 158.18,435.03 156.81,440.87 153.43,449.2 150.3,454.31 146.5,458.95 139.74,464.87 134.64,468.02 126.33,471.45 120.5,472.85 111.55,473.62 105.56,473.31 96.71,471.7 88.15,468.95 79.93,465.28 72.08,460.89 64.57,455.93 55.01,448.68 45.89,440.89 37.11,432.71 26.49,422.12 1.96,395.77" fill="none" stroke="#171820" stroke-width="1"/><polyline id="SvgjsPolyline4722" points="111.57,315.02 112.69,317.8 114.33,320.31 130.39,342.01 139.02,354.28 145.6,364.31 151.81,374.58 157.55,385.12 162.69,395.96 167.04,407.14 169.6,415.77 171.9,427.54 172.76,436.49 172.5,445.48 170.98,454.34 168.12,462.87 165.49,468.26 160.55,475.77 154.55,482.47 147.67,488.25 140.04,493.02 131.82,496.67 123.16,499.09 114.24,500.18 105.25,499.92 96.4,498.35 90.64,496.65 85.05,494.49 76.97,490.52 66.81,484.16 57.26,476.89 48.22,469 37.49,458.53 27.21,447.6 15.29,434.11 1.73,418.08" fill="none" stroke="#171820" stroke-width="1"/><polyline id="SvgjsPolyline4723" points="110.92,307.33 128.84,327.53 140.46,341.27 153.48,357.75 164.08,372.3 175.63,389.83 183.17,402.8 189.88,416.21 194.39,427.33 197.81,438.82 199.42,447.67 199.94,453.65 199.95,459.65 198.96,468.58 196.76,477.3 193.43,485.66 189.15,493.57 184.23,501.1 180.61,505.89 176.72,510.46 170.44,516.9 161.33,524.71 154.02,529.95 148.93,533.12 138.24,538.57 132.66,540.76 126.92,542.52 121.06,543.78 115.1,544.48 109.11,544.54 103.14,543.94 94.41,541.78 86.12,538.3 80.89,535.37 75.89,532.06 66.51,524.58 55.74,514.15 43.78,500.7 32.51,486.66 18.12,467.45 0.62,443.09" fill="none" stroke="#171820" stroke-width="1"/><polyline id="SvgjsPolyline4724" points="111.21,312.61 114.67,317.51 129.71,336.21 140.63,350.52 149.31,362.75 157.51,375.31 163.63,385.63 170.57,398.93 175.37,409.92 179.25,421.27 181.88,432.97 182.76,441.92 182.52,450.91 181.03,459.78 178.26,468.34 174.29,476.41 169.27,483.87 163.34,490.63 156.65,496.64 146.85,503.56 141.64,506.53 136.2,509.06 127.69,511.98 118.87,513.71 109.89,514.14 100.94,513.23 95.09,511.9 89.39,510.06 81.15,506.43 70.82,500.34 61.19,493.2 49.94,483.27 39.39,472.62 27.35,459.24 15.77,445.46 0.73,426.75" fill="none" stroke="#171820" stroke-width="1"/><polyline id="SvgjsPolyline4725" points="113.22,323.38 115.9,335.07 116.94,340.98 115.94,343.78 112.99,343.88 110.18,342.85 107.56,341.4 100.26,336.14 91.16,328.33 71.77,309.54 1.79,239.51" fill="none" stroke="#171820" stroke-width="1"/><polyline id="SvgjsPolyline4726" points="598.35,75.6 537.1,90.33 522.42,93.39 507.61,95.75 492.66,96.95 480.67,96.77 468.75,95.36 457.06,92.68 445.72,88.78 434.8,83.82 424.33,77.96 414.33,71.32 407.15,65.9 398.03,58.11 374.6,34.88 358.96,20.87 351.93,15.24 344.66,9.95 337.09,5.08 329.19,0.78" fill="none" stroke="#171820" stroke-width="1"/><polyline id="SvgjsPolyline4727" points="269.63,0.57 261.79,4.98 251.83,11.67 242.35,19.03 231.03,28.87 220.16,39.2 209.62,49.88 168.58,93.64 159.97,102 150.87,109.81 141.03,116.67 133.05,120.81 127.43,122.92 121.62,124.4 112.68,125.36 103.71,124.83 97.81,123.74 92.03,122.13 83.64,118.9 73.03,113.3 63.16,106.49 54.13,98.6 46.08,89.71 40.81,82.42 37.72,77.27 35.01,71.92 31.73,63.55 29.44,54.85 28.18,45.94 27.92,36.95 29,25.01 31.49,13.27 35.15,1.85" fill="none" stroke="#171820" stroke-width="1"/><polyline id="SvgjsPolyline4728" points="287.89,0.33 282.15,2.07 273.83,5.5 268.48,8.22 260.75,12.82 253.34,17.92 246.2,23.41 232.63,35.22 219.8,47.85 207.56,61.05 191.91,79.24 163.24,113.92 153.08,124.95 144.36,133.19 137.19,138.62 129.32,142.96 120.78,145.75 117.82,146.27 111.84,146.71 102.89,145.97 97.02,144.7 91.29,142.92 80.28,138.18 72.41,133.82 67.36,130.58 57.72,123.44 50.94,117.53 46.65,113.33 40.6,106.67 36.86,101.98 30.21,92 27.36,86.72 24.87,81.26 22.76,75.65 21.07,69.89 19.34,61.06 18.73,55.1 18.53,49.1 19.31,37.13 21.45,25.33 24.73,13.79 28.94,2.56" fill="none" stroke="#171820" stroke-width="1"/><polyline id="SvgjsPolyline4729" points="597.59,91.78 539.27,105.85 524.58,108.89 512.73,110.81 500.8,112.04 488.81,112.33 476.84,111.46 465.04,109.33 453.53,105.95 447.92,103.82 439.7,100.16 429.14,94.48 416.58,86.28 407.08,78.95 398.09,71.01 375.14,47.31 361.87,35.15 354.87,29.49 347.6,24.2 342.57,20.92 334.74,16.49 326.53,12.8 317.96,10.06 309.11,8.49 303.12,8.18 297.13,8.47 288.27,9.99 282.5,11.65 274.14,14.97 263.56,20.62 251.19,29.09 239.65,38.66 228.81,49.02 216.6,62.25 205.19,76.16 194.55,90.68 184.76,105.78 178.77,116.18 172.08,129.6 167.59,140.73 164.2,152.23 162.18,164.05 161.73,173.04 162.53,181.99 163.77,187.86 165.54,193.59 167.78,199.16 171.88,207.17 175,212.29 180.12,219.69 191.46,233.66 207.88,251.16 265.61,307.97 274.41,316.13 281.55,321.6 286.74,324.6 292.33,326.76 298.23,327.8 304.21,327.53 310,326 315.43,323.46 320.47,320.2 325.17,316.48 329.44,312.28 332.94,307.41 336.87,299.33 338.8,293.65 340.92,284.9 342.4,276.03 343.44,267.09 344.98,243.14 345.81,204.15" fill="none" stroke="#171820" stroke-width="1"/><polyline id="SvgjsPolyline4730" points="597.28,85.34 536.03,100.05 521.31,102.96 509.44,104.71 497.49,105.71 485.49,105.7 473.56,104.49 461.82,102 450.42,98.29 439.42,93.51 428.86,87.8 416.32,79.58 406.83,72.24 400.05,66.33 376.81,42.91 363.53,30.76 351.79,21.42 344.39,16.31 339.27,13.18 328.56,7.78 322.96,5.65 317.19,3.97 311.31,2.84 305.33,2.29 299.34,2.36 293.38,3.03 287.51,4.28 278.96,7.07 270.76,10.78 262.92,15.19 255.42,20.15 245.86,27.41 236.76,35.23 230.2,41.39 215.59,56.47 201.83,72.33 185.13,93.55 153.22,137.11 145.49,146.28 136.78,154.52 129.46,159.74 124.05,162.31 121.2,163.24 118.28,163.93 112.31,164.53 103.36,163.78 97.52,162.4 91.83,160.52 80.89,155.61 67.99,147.97 55.91,139.07 44.71,129.11 34.53,118.1 29.04,110.98 25.68,106.01 19.82,95.54 17.39,90.05 15.34,84.42 13.01,75.73 11.98,69.82 11.36,63.85 11.34,51.86 12.76,39.95 15.38,28.24 20.03,13.99 25.91,0.19" fill="none" stroke="#171820" stroke-width="1"/><polyline id="SvgjsPolyline4731" points="598.38,89.19 540.06,103.25 525.37,106.32 513.54,108.28 501.61,109.56 489.62,109.92 477.65,109.14 465.83,107.09 454.3,103.79 448.67,101.7 440.43,98.09 427.26,90.93 417.24,84.33 407.7,77.05 400.88,71.18 394.37,64.97 375.62,45.55 366.85,37.35 360.03,31.49 352.95,25.93 345.59,20.75 337.9,16.07 329.85,12.06 321.43,8.9 312.68,6.82 303.72,6.03 297.73,6.26 291.79,7.09 283.08,9.33 274.7,12.6 266.68,16.67 256.53,23.07 244.62,32.18 233.44,42.17 220.82,55.01 208.97,68.55 196.01,85.08 183.97,102.27 174.41,117.53 167.08,130.61 160.49,144.08 155.98,155.2 152.51,166.68 150.95,175.54 150.58,181.53 150.68,187.52 151.78,196.45 154.26,205.09 157.89,213.32 164.03,223.62 171.13,233.29 178.81,242.51 188.91,253.6 199.33,264.39 248.18,313.12 261.36,325.38 268.36,331.03 273.27,334.47 278.44,337.52 283.87,340.06 289.56,341.96 295.45,343.07 301.44,343.31 307.39,342.64 310.32,341.99 316.02,340.11 321.41,337.49 326.23,333.94 330.32,329.57 333.65,324.58 336.27,319.19 338.33,313.55 340.6,304.84 342.18,295.99 343.28,287.05 344.91,263.11 345.76,227.12" fill="none" stroke="#171820" stroke-width="1"/><polyline id="SvgjsPolyline4732" points="598.09,86.97 536.84,101.68 522.13,104.63 510.27,106.42 498.32,107.48 486.32,107.55 474.38,106.42 462.63,104.02 451.2,100.4 440.17,95.68 429.58,90.03 417,81.87 409.81,76.46 400.66,68.7 394.16,62.48 377.46,45.24 364.25,33.02 352.57,23.62 340.09,15.3 332.15,11.07 326.65,8.67 320.99,6.7 315.18,5.21 309.25,4.28 303.27,3.94 297.28,4.22 291.34,5.09 285.51,6.51 277.04,9.52 271.58,12.02 263.71,16.37 256.17,21.28 248.93,26.63 241.97,32.33 233.06,40.37 222.45,50.97 212.34,62.05 202.67,73.52 191.6,87.71 182.77,99.84 174.28,112.2 146.73,155.12 141.51,162.45 137.71,167.08 133.47,171.33 131.14,173.22 123.51,177.97 117.85,179.92 114.89,180.41 111.9,180.59 105.92,180.15 100.06,178.88 94.36,177.02 88.82,174.72 80.78,170.67 73.03,166.1 65.55,161.1 58.31,155.76 51.32,150.08 44.6,144.1 38.17,137.8 28.23,126.58 24.57,121.82 19.51,114.38 15.04,106.57 12.45,101.17 8.33,89.91 6.85,84.09 5.79,78.19 5.14,72.22 4.89,66.23 5.52,54.25 7.46,42.42 11.37,27.94 16.58,13.88 22.83,0.25" fill="none" stroke="#171820" stroke-width="1"/><polyline id="SvgjsPolyline4733" points="191.69,88.61 179.57,105.76 168.19,123.41 157.48,141.47 139.91,172.89 133.3,182.9 129.29,187.35 126.98,189.27 124.44,190.86 118.94,193.23 116.04,194.01 110.07,194.4 104.14,193.55 95.57,190.83 87.39,187.09 76.96,181.16 64.53,172.77 55.02,165.45 45.88,157.67 35.07,147.28 27,138.41 21.36,131.39 14.55,121.52 10.09,113.7 6.31,105.54 3.33,97.05 1.22,88.3 0.04,79.39" fill="none" stroke="#171820" stroke-width="1"/><polyline id="SvgjsPolyline4734" points="599.82,87.86 538.57,102.58 520.92,106.12 509.05,107.85 497.09,108.81 485.1,108.77 473.17,107.52 461.44,104.99 450.05,101.24 439.06,96.42 428.52,90.69 416,82.44 408.85,76.97 399.76,69.15 393.3,62.88 378.77,47.72 363.39,33.43 351.66,24.09 339.12,15.87 331.13,11.74 325.59,9.42 319.9,7.54 314.06,6.16 308.12,5.34 302.13,5.13 293.17,5.93 287.3,7.18 281.57,8.94 275.98,11.13 265.3,16.57 255.23,23.09 243.39,32.3 230.11,44.44 217.66,57.44 205.92,71.08 193.04,87.66 179.32,107.35 168.21,125.17 158.02,143.53 150.18,159.73 144.59,173.64 141.21,185.15 140.15,191.05 139.68,197.03 139.97,203.02 140.42,205.99 141.7,211.85 143.5,217.57 147.29,225.73 153.7,235.86 162.97,247.65 175,261.04 189.6,276.13 229.9,316.44 247.29,332.97 256.45,340.73 263.68,346.08 271.32,350.84 279.42,354.75 287.97,357.51 293.87,358.58 302.86,358.88 308.81,358.18 314.63,356.73 320.13,354.37 325.12,351.04 329.4,346.85 332.91,341.99 335.69,336.68 338.78,328.23 340.91,319.49 342.39,310.62 343.44,301.68 345.09,274.73 345.84,235.74 346.07,166.74" fill="none" stroke="#171820" stroke-width="1"/><polyline id="SvgjsPolyline4735" points="331.21,11.45 325.68,9.13 319.98,7.24 314.15,5.85 308.21,5.02 299.22,4.91 293.26,5.59 287.39,6.84 281.65,8.58 276.07,10.77 270.64,13.33 262.8,17.75 250.47,26.27 236.7,37.85 223.84,50.44 209.78,66.04 196.61,82.39 184.25,99.37 171.07,119.42 158.89,140.1 150.4,155.97 134.58,188.31 130.27,196.21 126.78,201.08 124.65,203.19 122.18,204.88 119.41,206.03 113.53,207.16 107.55,206.93 101.73,205.48 93.41,202.08 85.46,197.86 75.28,191.51 65.47,184.6 53.66,175.35 44.58,167.51 35.85,159.28 27.55,150.62 19.77,141.48 12.68,131.81 7.92,124.17 3.77,116.19 0.34,107.87" fill="none" stroke="#171820" stroke-width="1"/><polyline id="SvgjsPolyline4736" points="143.88,170.85 138.14,184.71 134.25,196.06 132.13,204.8 131.43,210.75 131.39,213.75 131.59,216.74 132.76,222.62 135.94,231.03 138.65,236.39 141.82,241.48 149,251.09 158.84,262.41 171.23,275.47 219.96,324.32 239.52,342.92 253.37,354.41 260.72,359.6 268.43,364.23 276.56,368.09 282.2,370.13 290.95,372.2 296.91,372.84 302.91,372.85 308.87,372.19 314.69,370.73 317.49,369.67 322.76,366.81 327.4,363.02 331.28,358.46 334.41,353.35 337.89,345.06 340.3,336.39 342.4,324.58 343.72,312.65 344.71,297.68 345.71,261.7 346.09,117.7 345.26,108.76 343.74,102.96 340.15,94.71 336.99,89.62 331.21,82.73 324.34,76.93 319.23,73.81 313.75,71.38 307.98,69.74 302.03,68.98 296.04,69.12 290.14,70.18 287.26,71.03 281.72,73.32 276.54,76.33 269.55,81.98 265.48,86.38 260.37,93.78 256.61,101.94 254.41,110.66 254.06,113.64 253.98,119.63 254.74,125.58 255.44,128.5 257.44,134.15 258.74,136.85 260.21,139.46 263.67,144.36 269.96,150.78 277.33,155.92 282.73,158.53 288.41,160.44 294.29,161.6 300.28,161.96 306.26,161.53 312.13,160.3 317.78,158.31 320.47,156.97 323.02,155.4 327.62,151.56 329.64,149.35 333.1,144.45 335.85,139.12 337.99,133.52 339.67,127.76 340.93,121.9 341.26,118.91 341.24,112.92 340.31,107 338.55,101.27 334.51,93.24 330.98,88.39 326.86,84.04 322.2,80.26 317.07,77.17 314.35,75.9 308.66,74.02 305.72,73.43 299.74,72.97 293.77,73.51 287.97,75.02 282.47,77.4 279.87,78.89 277.38,80.56 272.77,84.39 268.69,88.79 265.22,93.68 262.4,98.97 261.26,101.75 259.57,107.5 258.73,113.43 258.78,119.43 259.15,122.4 260.59,128.22 261.65,131.03 262.92,133.75 266.05,138.86 267.89,141.22 272.06,145.53 276.8,149.2 282,152.18 287.58,154.39 293.41,155.79 299.38,156.32 302.38,156.26 308.32,155.47 314.09,153.83 319.56,151.39 322.15,149.88 326.88,146.2 328.97,144.04 330.86,141.72 334.07,136.66" fill="none" stroke="#171820" stroke-width="1"/><polyline id="SvgjsPolyline4737" points="131.59,198.95 127.07,210.07 124.41,215.44 122.71,217.91 120.5,219.94 117.78,221.17 114.81,221.58 108.84,221.17 105.9,220.55 100.25,218.55 92.2,214.54 79.47,206.62 64.9,196.05 48.66,182.74 35.4,170.57 24.95,159.81 15.22,148.4 6.5,136.2 0.53,125.79" fill="none" stroke="#171820" stroke-width="1"/><polyline id="SvgjsPolyline4738" points="122.34,226.89 121.24,229.68 119.77,232.29 117.36,234.05 114.42,234.52 111.44,234.17 105.67,232.55 97.5,228.79 89.79,224.16 79.88,217.4 67.88,208.39 56.22,198.96 42.67,187.12 31.79,176.79 21.41,165.96 13.59,156.87 6.33,147.31 1.37,139.8" fill="none" stroke="#171820" stroke-width="1"/><polyline id="SvgjsPolyline4739" points="126.16,216.42 124.12,225.18 123.68,231.16 123.96,234.14 125.56,239.91 128.2,245.29 133.02,252.89 138.51,260.02 146.44,269.03 163.08,286.31 211.81,335.17 226.86,349.82 237.96,359.9 252.01,371.14 262.02,377.76 272.65,383.3 278.22,385.53 283.95,387.31 292.78,389.02 298.76,389.44 307.74,388.9 313.59,387.61 319.17,385.42 324.26,382.27 328.68,378.22 330.6,375.91 333.87,370.89 336.44,365.47 339.3,356.94 341.27,348.17 342.65,339.27 343.87,327.34 344.8,312.37 345.77,273.38" fill="none" stroke="#171820" stroke-width="1"/><polyline id="SvgjsPolyline4740" points="117.03,247.73 114.16,248.42 111.22,247.86 108.42,246.79 100.4,242.71 92.83,237.85 85.5,232.62 64.27,215.95 43.86,198.27 26.55,181.66 12.4,166.15 6.74,159.15 1.44,151.88" fill="none" stroke="#171820" stroke-width="1"/><polyline id="SvgjsPolyline4741" points="182.41,102.18 169.4,122.35 157.42,143.14 146.53,164.52 137.95,183.69 133.47,194.82 128.35,208.92 121.35,231.87 119.17,240.6 118.25,246.53 118.48,249.51 119.31,252.39 122.09,257.7 125.58,262.58 137.5,276.06 219.84,359.17 233.03,371.42 246.84,382.96 259.08,391.62 269.53,397.51 275,399.97 280.63,402.03 289.36,404.22 295.3,404.99 301.3,405.16 310.23,404.18 313.15,403.47 318.75,401.35 323.89,398.27 326.22,396.38 330.31,392 332.07,389.57 335.03,384.36 338.32,375.99 340.59,367.29 342.59,355.46 344.07,340.53 345.03,322.56 345.59,301.57 346.03,241.57" fill="none" stroke="#171820" stroke-width="1"/><polyline id="SvgjsPolyline4742" points="110.92,281.98 112.56,284.47 114.56,286.71 150.31,323.08 176.73,351.76 239.48,424.41 283.82,473.3 287.62,477.94 289.28,480.44 290.42,483.21 290.61,486.19 289.28,492.02 288.03,494.74 284.67,499.71 278.84,506.56 259.97,525.86 210.47,573.94 197.92,586.84 187.84,597.94" fill="none" stroke="#171820" stroke-width="1"/><polyline id="SvgjsPolyline4743" points="416.88,598.87 407.36,591.57 398.35,583.64 376.96,562.61 320.61,508.68 310,498.08 307.96,495.88 306.24,493.43 305.93,490.48 307.66,484.76 309.15,482.16 314.74,475.12 328.85,459.56 330.75,457.24 333.99,452.19 336.54,446.77 338.54,441.11 340.09,435.32 341.82,426.49 343.04,417.57 344.12,405.62 345.42,375.65 345.94,333.65 346.08,255.65" fill="none" stroke="#171820" stroke-width="1"/><polyline id="SvgjsPolyline4744" points="597.97,398.08 545.48,410.76 527.92,414.7 510.19,417.8 501.25,418.82 492.27,419.35 483.27,419.3 474.3,418.57 468.37,417.69 459.58,415.76 450.97,413.13 442.59,409.86 434.45,406.03 426.57,401.69 416.46,395.22 409.2,389.9 399.97,382.24 391.27,373.98 385.14,367.39 377.58,358.08 370.79,348.19 366.28,340.4 362.31,332.32 358.9,324 356.05,315.46 353.06,303.84 350.88,292.04 349.33,280.15 348.05,265.2 347.27,250.22" fill="none" stroke="#171820" stroke-width="1"/><polyline id="SvgjsPolyline4745" points="597.34,422.83 541.93,436.2 521.39,440.58 509.55,442.49 500.6,443.48 491.62,443.97 482.62,443.87 473.66,443.09 464.79,441.59 456.07,439.37 444.76,435.38 436.55,431.68 426.01,425.96 415.93,419.45 406.34,412.24 397.26,404.4 388.74,395.95 380.86,386.9 375.42,379.73 368.9,369.67 364.6,361.76 360.86,353.58 356.74,342.31 354.29,333.65 351.76,321.92 349.95,310.06 348.69,298.13 347.03,268.18 346.27,220.19" fill="none" stroke="#171820" stroke-width="1"/><polyline id="SvgjsPolyline4746" points="597.93,326.95 545.45,339.67 524.92,344.07 516.04,345.58 504.13,347.02 495.15,347.55 486.15,347.49 477.18,346.75 468.31,345.3 459.57,343.13 448.24,339.2 440.01,335.55 429.43,329.89 421.8,325.13 412.04,318.15 402.77,310.53 394.04,302.31 385.9,293.49 378.43,284.1 373.33,276.69 367.29,266.33 362.17,255.48 357.94,244.25 355.26,235.66 352.48,223.99 350.46,212.16 349.04,200.25 347.27,173.31 346.37,131.32" fill="none" stroke="#171820" stroke-width="1"/><polyline id="SvgjsPolyline4747" points="598.52,108.88 534.33,124.25 522.58,126.67 510.74,128.63 498.81,129.93 486.82,130.31 474.85,129.55 463.03,127.52 451.5,124.23 443.1,121 437.63,118.52 424.47,111.35 412.04,102.96 400.38,93.53 391.66,85.29 385.51,78.72 371.99,62.66 365.82,56.1 359.35,49.85 352.56,43.95 345.42,38.47 337.91,33.5 332.7,30.54 324.54,26.75 316.01,23.9 307.18,22.2 301.19,21.78 295.2,21.96 286.31,23.33 277.69,25.89 269.43,29.46 261.56,33.82 254.08,38.82 246.97,44.34 238.01,52.32 229.62,60.89 221.76,69.96 214.44,79.46 209.31,86.86 203.03,97.08 198.78,105.01 195,113.18 191.79,121.58 189.27,130.22 187.58,139.06 186.89,148.03 187.04,154.02 187.71,159.98 189.67,168.76 191.57,174.45 195.21,182.68 199.62,190.52 204.66,197.98 210.17,205.09 216.07,211.88 224.39,220.52 233.14,228.74 242.22,236.58 254,245.87 263.76,252.85 273.89,259.27 281.83,263.51 287.35,265.84 293.1,267.54 296.06,268.06 302.05,268.24 305.02,267.9 310.84,266.47 319.15,263.03 324.25,259.88 326.55,257.96 330.59,253.53 333.86,248.5 337.51,240.29 340.03,231.65 341.78,222.83 343.33,210.93 344.49,195.98 345.41,172 345.83,145 345.99,118 345.68,112.01 345.22,109.05" fill="none" stroke="#171820" stroke-width="1"/><polyline id="SvgjsPolyline4748" points="597.24,93.68 535.98,108.39 521.27,111.29 509.4,113.04 497.44,114.04 485.45,114.02 473.51,112.81 461.78,110.31 450.37,106.6 439.38,101.81 426.26,94.55 416.29,87.88 406.8,80.53 397.82,72.57 377.09,50.9 363.99,38.56 352.34,29.12 339.85,20.83 329.14,15.42 323.54,13.27 317.79,11.58 311.9,10.42 305.94,9.82 299.94,9.83 293.97,10.43 285.19,12.37 279.5,14.28 273.97,16.61 263.4,22.27 253.45,28.97 244.06,36.43 232.99,46.56 220.59,59.6 210.92,71.06 200.08,85.43 191.74,97.9 184.13,110.82 177.45,124.24 173.02,135.39 169.76,146.93 168.71,152.84 168.13,158.81 168.26,167.8 169.65,176.69 171.26,182.46 173.35,188.09 177.24,196.2 180.24,201.39 185.23,208.88 190.66,216.06 198.41,225.22 208.65,236.18 219.29,246.75 263.15,287.69 284.64,308.62 289.38,312.29 291.97,313.8 294.73,314.97 297.64,315.68 300.63,315.84 303.6,315.44 306.46,314.53 311.66,311.58 318.5,305.73 329.09,295.11 332.66,290.3 335.5,285.01 337.72,279.44 339.46,273.7 341.38,264.91 342.72,256.02 344.52,235.1 345.61,202.12 346,154.12" fill="none" stroke="#171820" stroke-width="1"/><polyline id="SvgjsPolyline4749" points="598.38,98.31 537.12,113.03 525.37,115.44 513.53,117.4 501.6,118.68 489.61,119.04 477.64,118.26 465.82,116.21 454.29,112.91 448.67,110.83 440.43,107.21 427.25,100.05 417.24,93.45 407.7,86.17 398.67,78.26 392.26,71.95 376.01,54.29 369.61,47.96 360.7,39.92 353.71,34.27 346.4,29.01 338.76,24.26 333.45,21.46 325.18,17.92 319.47,16.1 310.65,14.33 304.67,13.86 298.68,13.99 289.78,15.28 283.98,16.81 275.55,19.97 264.9,25.47 254.89,32.08 245.47,39.51 234.43,49.66 224.14,60.57 214.55,72.1 204,86.68 196.09,99.42 190.48,110.03 185.69,121.03 181.99,132.44 180.16,141.24 179.34,150.2 179.67,159.19 181.22,168.05 182.88,173.81 185,179.42 188.92,187.52 191.94,192.7 196.96,200.17 202.44,207.31 214.4,220.75 222.91,229.21 231.73,237.35 243.08,247.15 254.76,256.57 266.74,265.59 276.62,272.39 284.36,276.99 289.83,279.45 292.7,280.3 298.63,281.19 301.63,281.17 307.46,279.84 315.59,276.01 323.26,271.3 325.64,269.47 329.83,265.19 331.63,262.8 334.69,257.64 337.09,252.14 338.96,246.44 341.04,237.69 342.48,228.81 344.41,207.9 345.45,180.92" fill="none" stroke="#171820" stroke-width="1"/><polyline id="SvgjsPolyline4750" points="598.58,238.28 543.17,251.65 528.53,254.91 516.74,257.13 507.84,258.44 492.89,259.67 483.9,259.66 474.92,258.98 468.98,258.13 460.19,256.25 451.57,253.67 443.16,250.45 435.01,246.65 427.11,242.34 416.98,235.91 409.7,230.62 402.7,224.96 396,218.95 389.62,212.61 383.59,205.93 377.95,198.91 372.75,191.57 368.03,183.91 363.84,175.95 359.12,164.92 356.23,156.4 353.88,147.71 351.46,135.96 348.03,109.19 346.55,103.38 344.4,97.78 340.05,89.91 336.47,85.09 332.42,80.68 327.91,76.72 322.99,73.3 314.92,69.33 309.18,67.6 303.26,66.69 297.26,66.66 294.28,66.97 288.42,68.22 282.78,70.27 277.46,73.03 272.5,76.41 267.96,80.32 263.86,84.7 260.24,89.48 257.15,94.62 254.63,100.06 252.75,105.76 251.56,111.63 251.13,117.61 251.2,120.61 251.96,126.56 252.64,129.48 254.58,135.15 258.85,143.06 264.51,150.04 268.93,154.09 273.8,157.59 281.78,161.73 290.37,164.37 299.3,165.36 308.26,164.63 314.09,163.21 316.91,162.19 322.23,159.44 324.67,157.7 329.02,153.59 330.91,151.25 334.11,146.19 337.69,137.94 340.8,126.36 341.8,120.44 342,117.45" fill="none" stroke="#171820" stroke-width="1"/><polyline id="SvgjsPolyline4751" points="597.93,263.03 542.52,276.4 521.99,280.8 504.19,283.46 495.22,284.17 486.22,284.32 477.24,283.82 468.32,282.61 459.54,280.68 450.93,278.05 442.55,274.78 434.41,270.94 426.53,266.6 418.91,261.81 411.56,256.62 402.19,249.12 395.51,243.09 387.12,234.52 379.37,225.36 374.05,218.1 369.2,210.52 364.87,202.63 361.09,194.46 357.88,186.06 355.21,177.47 352.44,165.79 350.43,153.96 349.02,142.05 346.99,112.12 345.06,103.35 342.89,97.76 338.47,89.92 332.84,82.92 326.12,76.95 318.45,72.26 312.9,69.99 307.09,68.5 304.12,68.08 298.13,67.91 292.18,68.64 286.4,70.22 283.61,71.31 278.26,74.03 270.97,79.29 264.68,85.72 259.54,93.08 255.68,101.21 253.94,106.94 252.92,112.85 252.71,115.84 252.69,118.84 253.29,124.81 254.7,130.63 256.9,136.21 258.28,138.87 263.42,146.25 267.58,150.57 272.22,154.36 277.3,157.56 282.72,160.12 291.34,162.64 300.29,163.47 306.27,163.04 312.14,161.84 317.8,159.86 320.49,158.53 325.43,155.14 327.64,153.11 329.66,150.89 333.11,146 335.86,140.66 338,135.06 340.37,126.38 341.43,120.48 341.65,117.49 341.4,111.5 340.27,105.61 339.39,102.74 337.07,97.22 334.04,92.04 330.38,87.29 326.15,83.05 321.39,79.4 316.18,76.44" fill="none" stroke="#171820" stroke-width="1"/><polyline id="SvgjsPolyline4752" points="317.37,117.33 317.96,114.39 318.05,111.39 317.64,108.42 316.75,105.56 315.41,102.88 313.66,100.45 311.55,98.32 309.12,96.56 306.44,95.23 303.57,94.36 300.6,94 297.61,94.15 294.69,94.82 291.92,95.97 289.38,97.57 287.14,99.56 285.24,101.88 283.74,104.47 282.66,107.27 282.06,110.2 281.94,113.19 282.34,116.17 283.22,119.03 284.58,121.7 286.38,124.1 288.55,126.16 291.03,127.84 293.75,129.09 296.64,129.88 299.63,130.18 302.62,130 305.54,129.33 308.31,128.2 310.86,126.62 313.11,124.65 315.01,122.32 316.48,119.71" fill="none" stroke="#171820" stroke-width="1"/><polyline id="SvgjsPolyline4753" points="117,337.99 119.09,346.74 119.48,352.71 118.66,355.59 116.2,357.23 110.23,357.45 107.32,356.74 101.9,354.2 96.86,350.95 85.17,341.56 71.97,329.33 1.84,259.45" fill="none" stroke="#171820" stroke-width="1"/><polyline id="SvgjsPolyline4754" points="112.29,316.78 113.11,322.72 114.37,328.58 119.87,345.72 121.43,351.51 122.49,357.42 122.72,360.41 122.6,363.4 121.92,366.32 120.33,368.85 115.26,371.99 112.33,372.6 109.34,372.47 106.41,371.83 103.58,370.86 98.17,368.27 88.15,361.68 78.79,354.18 69.81,346.21 56.75,333.83 1.49,278.78" fill="none" stroke="#171820" stroke-width="1"/><polyline id="SvgjsPolyline4755" points="111.4,312.93 113.09,315.41 112.41,318.07 113.96,326.93 115.77,332.65 121.99,349.54 124.57,358.15 125.79,364.03 126.31,370 125.64,375.95 124.55,378.74 122.76,381.14 117.89,384.6 115.08,385.64 112.11,386.02 109.12,385.89 103.28,384.54 95.05,380.93 84.88,374.56 75.36,367.27 64,357.47 50.86,345.17 1.89,296.57" fill="none" stroke="#171820" stroke-width="1"/><polyline id="SvgjsPolyline4756" points="114,326.09 116.42,331.58 128.75,355.59 134.77,369.33 137.73,377.83 139.31,383.61 140.5,389.49 141.17,395.45 141.19,401.45 140.1,410.38 138.38,416.11 135.59,421.42 131.71,425.98 129.41,427.89 124.21,430.86 118.49,432.64 115.52,433.1 109.53,433.27 103.58,432.57 97.75,431.17 92.08,429.21 83.9,425.45 78.66,422.54 71.08,417.69 59.06,408.72 43.18,394.98 23.73,376.26 0.57,352.75" fill="none" stroke="#171820" stroke-width="1"/><polyline id="SvgjsPolyline4757" points="115.44,331.18 123.48,350.57 127.48,361.88 129.04,367.68 130.14,373.57 130.58,379.55 130.45,382.55 130.02,385.52 129.2,388.4 127.92,391.11 126.13,393.51 123.84,395.45 121.18,396.82 118.3,397.64 112.34,398.3 109.34,398.22 106.37,397.81 100.59,396.24 92.35,392.64 82.08,386.44 72.43,379.32 60.94,369.68 47.68,357.5 32.61,342.88 0.77,311.08" fill="none" stroke="#171820" stroke-width="1"/><polyline id="SvgjsPolyline4758" points="114.57,326.18 131.02,354.79 136.58,365.42 140.37,373.58 143.72,381.93 146.5,390.49 148.52,399.26 149.32,405.2 149.44,414.19 148.64,420.13 146.07,428.75 143.54,434.18 140.14,439.12 135.92,443.37 131.01,446.8 125.58,449.33 119.8,450.94 113.85,451.67 107.86,451.59 101.91,450.8 96.08,449.4 87.61,446.37 79.5,442.47 74.3,439.48 66.76,434.57 59.51,429.24 50.21,421.66 43.46,415.7 26.12,399.11 1.09,373.24" fill="none" stroke="#171820" stroke-width="1"/><polyline id="SvgjsPolyline4759" points="112.16,317.7 115.21,322.86 130.89,344.84 137.62,354.78 144.04,364.91 150.05,375.3 155.55,385.96 160.36,396.95 163.4,405.42 165.78,414.1 167.34,422.96 167.86,431.94 167.13,440.9 165.85,446.76 163.93,452.44 159.82,460.44 154.38,467.59 147.79,473.7 140.26,478.62 132.24,482.66 123.65,485.34 117.74,486.32 108.75,486.6 99.83,485.51 91.13,483.2 82.78,479.87 74.79,475.73 67.16,470.95 57.51,463.84 48.34,456.1 37.41,445.83 26.93,435.1 14.74,421.85 0.85,406.1" fill="none" stroke="#171820" stroke-width="1"/><polyline id="SvgjsPolyline4760" points="598.71,63.22 534.53,78.6 519.82,81.57 507.97,83.4 496.02,84.5 484.02,84.63 472.08,83.58 460.31,81.25 448.86,77.68 437.81,73 427.22,67.38 414.63,59.23 407.44,53.82 400.53,48.05 368.09,16.87 359.12,8.91 349.85,1.29" fill="none" stroke="#171820" stroke-width="1"/><polyline id="SvgjsPolyline4761" points="247.38,0.11 236.02,9.91 225.04,20.12 175.89,68.55 166.96,76.56 157.63,84.11 150.29,89.3 145.18,92.45 139.89,95.28 134.41,97.72 128.74,99.69 122.92,101.13 116.98,101.99 110.99,102.24 102.03,101.49 93.27,99.49 84.83,96.36 76.82,92.26 69.32,87.3 62.41,81.54 56.17,75.06 50.72,67.91 46.17,60.15 42.65,51.87 40.24,43.21 39.26,37.29 38.72,28.31 39.21,19.33 40.64,10.45 42.88,1.73" fill="none" stroke="#171820" stroke-width="1"/><polyline id="SvgjsPolyline4762" points="0.97,21.2 12.69,0.27" fill="none" stroke="#171820" stroke-width="1"/><polyline id="SvgjsPolyline4763" points="415.45,599.07 406,591.67 399.25,585.72 364.82,552.28 338.47,527.75 322.8,513.77 315.79,508.14 310.76,504.87 308.04,503.61 305.14,502.84 302.15,502.7 299.19,503.16 293.48,504.98 288.15,507.72 280.79,512.89 269.23,522.45 244.73,544.55 220.75,567.22 203.8,584.21 189.68,599.75" fill="none" stroke="#171820" stroke-width="1"/><polyline id="SvgjsPolyline4764" points="442.05,599.14 428.79,592.14 416.17,584.04 404.24,574.95 393.13,564.88 368,539.11 359.96,530.21 352.29,520.98 346.95,513.73 342.2,506.09 339.54,500.72 337.5,495.08 336.78,492.17 336.06,486.22 336.37,480.23 337.61,474.37 340.07,465.71 342.26,453.92 344.11,436.02 345.16,415.05 345.94,364.05 346.09,232.05" fill="none" stroke="#171820" stroke-width="1"/><polyline id="SvgjsPolyline4765" points="423.7,598.88 411.46,590.22 399.99,580.55 363.65,544.77 348.95,529.77 338.87,518.66 331.45,509.24 326.83,501.53 323.84,493.05 323.06,487.12 323.8,481.18 324.67,478.31 327.07,472.82 333.28,462.55 337.11,454.42 338.98,448.72 340.44,442.91 342.87,428.11 344.42,410.18 345.3,389.2 345.82,359.2 346.04,311.2" fill="none" stroke="#171820" stroke-width="1"/><polyline id="SvgjsPolyline4766" points="598.32,385.69 542.91,399.07 522.38,403.49 504.59,406.18 495.62,406.91 486.62,407.09 477.64,406.62 468.72,405.44 459.92,403.54 451.31,400.94 442.92,397.7 434.77,393.88 426.87,389.56 419.24,384.79 409.49,377.81 400.23,370.17 391.52,361.93 383.41,353.08 376.01,343.64 370.98,336.18 365.05,325.75 361.25,317.6 357.05,306.36 354.54,297.72 352.52,288.95 350.49,277.12 349.06,265.21 348.08,253.25 347.28,238.27 346.67,217.28" fill="none" stroke="#171820" stroke-width="1"/><polyline id="SvgjsPolyline4767" points="599.93,434.55 541.59,448.57 524,452.37 506.23,455.19 497.26,456.01 488.27,456.29 479.28,455.95 470.34,454.9 461.52,453.13 452.87,450.66 444.43,447.53 436.24,443.81 428.3,439.58 418.12,433.23 408.42,426.17 399.22,418.47 390.57,410.15 384.49,403.52 376.98,394.16 371.86,386.76 365.81,376.4 361.9,368.3 358.56,359.94 354.96,348.5 352.85,339.75 350.73,327.94 349.23,316.04 347.99,301.09 346.64,265.12" fill="none" stroke="#171820" stroke-width="1"/><polyline id="SvgjsPolyline4768" points="598.28,314.57 542.87,327.95 525.29,331.79 513.47,333.88 504.55,335.06 489.58,335.97 480.59,335.72 471.64,334.78 465.73,333.75 456.99,331.61 448.45,328.78 440.13,325.34 432.07,321.35 424.26,316.87 416.72,311.96 407.09,304.8 397.97,297.01 389.4,288.61 383.39,281.92 375.98,272.48 369.39,262.46 365.04,254.58 361.23,246.43 357.99,238.03 355.31,229.44 352.51,217.78 350.48,205.95 349.06,194.04 348.07,182.08 347.16,164.1" fill="none" stroke="#171820" stroke-width="1"/><polyline id="SvgjsPolyline4769" points="597.63,339.32 542.23,352.7 521.69,357.08 509.85,359.01 500.9,360.01 491.92,360.52 482.92,360.44 473.96,359.69 465.08,358.21 456.35,356.02 447.83,353.15 436.82,348.38 428.86,344.18 421.16,339.52 411.32,332.67 401.96,325.15 393.14,317.02 386.91,310.53 379.18,301.35 372.22,291.58 366.11,281.26 362.17,273.17 357.78,262.01 355.13,253.41 352.38,241.73 350.83,232.86 349.29,220.96 348.03,206.02 347.25,191.04 346.36,149.05" fill="none" stroke="#171820" stroke-width="1"/><polyline id="SvgjsPolyline4770" points="598.21,121.24 534.02,136.61 519.32,139.56 504.47,141.71 489.51,142.61 477.52,142.12 465.66,140.38 454.05,137.36 442.81,133.16 429.37,126.51 416.66,118.56 404.71,109.51 395.72,101.56 387.31,93 381.42,86.2 368.59,69.58 360.55,60.67 349.53,50.51 339.91,43.34 329.54,37.32 324.07,34.85 318.43,32.83 312.63,31.3 306.71,30.33 297.72,29.99 288.79,31.01 280.09,33.31 271.76,36.69 263.84,40.96 256.35,45.94 247.01,53.47 238.37,61.79 232.34,68.47 224.91,77.89 218.21,87.84 212.35,98.31 208.6,106.49 204.66,117.82 202.66,126.59 201.65,135.53 201.76,144.52 203.03,153.42 204.52,159.23 207.64,167.67 211.67,175.71 216.47,183.32 223.8,192.82 229.85,199.48 238.52,207.77 245.4,213.57 255.06,220.69 265.24,227.03 273.25,231.12 281.62,234.44 290.32,236.7 299.27,237.59 305.26,237.33 311.18,236.37 316.89,234.56 322.21,231.81 324.66,230.07 326.93,228.12 330.9,223.63 334.11,218.56 336.63,213.12 338.61,207.46 340.15,201.66 341.86,192.83 343.06,183.91 344.68,162.98 345.6,132.99" fill="none" stroke="#171820" stroke-width="1"/><polyline id="SvgjsPolyline4771" points="598.72,105.55 537.47,120.27 522.77,123.24 510.91,125.07 495.96,126.3 483.97,126.15 472.05,124.78 460.35,122.13 449,118.28 435.38,111.99 425,105.97 412.69,97.42 403.39,89.84 394.61,81.66 388.42,75.13 374.53,59.38 363.87,48.84 352.4,39.18 342.56,32.32 332.06,26.53 326.54,24.16 320.87,22.22 315.05,20.78 309.12,19.88 300.13,19.63 294.16,20.21 285.37,22.13 276.9,25.14 268.8,29.06 261.08,33.69 251.38,40.74 244.51,46.55 235.85,54.86 227.75,63.71 220.2,73.03 213.22,82.79 206.88,92.98 201.3,103.6 197.73,111.86 194.81,120.37 192.69,129.11 191.53,138.03 191.48,147.03 192.1,152.99 194.01,161.78 197,170.26 200.91,178.37 205.56,186.06 212.67,195.73 220.56,204.76 231.25,215.28 242.67,225.01 252.27,232.2 264.89,240.3 275.54,245.82 283.86,249.24 292.57,251.49 298.53,252.1 304.52,251.89 310.43,250.89 316.18,249.17 321.56,246.54 326.37,242.96 330.44,238.56 333.74,233.56 336.34,228.16 338.38,222.52 340.64,213.81 342.2,204.95 343.3,196.01 344.29,184.05 345.4,157.08" fill="none" stroke="#171820" stroke-width="1"/><polyline id="SvgjsPolyline4772" points="598.94,225.89 531.83,241.91 517.1,244.77 502.24,246.76 487.26,247.43 475.29,246.72 469.35,245.89 460.54,244.04 449.08,240.49 440.75,237.09 430.03,231.7 419.77,225.48 409.99,218.54 400.71,210.93 391.97,202.72 383.83,193.9 376.38,184.5 371.32,177.06 366.75,169.31 361.5,158.52 358.22,150.14 355.49,141.57 353.28,132.84 351.53,124.02 348.64,106.26 345.66,97.78 342.92,92.44 337.82,85.04 331.66,78.49 327.01,74.71 321.97,71.45 316.58,68.82 310.9,66.9 305.01,65.77 302.03,65.51 296.03,65.65 290.12,66.64 284.4,68.43 278.95,70.95 273.85,74.09 269.13,77.79 264.83,81.97 260.98,86.57 257.61,91.54 254.78,96.82 252.53,102.38 250.91,108.15 250,114.08 250.06,123.07 250.47,126.04 251.88,131.87 255.38,140.14 260.37,147.62 266.6,154.1 271.32,157.79 276.43,160.93 284.69,164.49 290.48,166.03 296.42,166.84 302.42,166.92 308.38,166.24 314.2,164.83 319.74,162.53 324.77,159.28 327.03,157.31 329.11,155.14 332.67,150.33 335.51,145.04 337.73,139.47 339.46,133.73 341.39,124.94 342.2,119 342.15,113 341.8,110.03 340.46,104.18 338.33,98.58 335.5,93.29 332.02,88.41 327.96,84 323.37,80.14 318.3,76.93 312.84,74.47 307.06,72.86 304.1,72.4 298.11,72.22 295.12,72.5 289.27,73.77 283.67,75.92 278.45,78.87 271.48,84.54 267.49,89.02 264.1,93.96 260.24,102.08 258.6,107.85 258.09,110.8 257.71,116.78 257.86,119.78 258.24,122.75 259.67,128.57 260.72,131.39 263.43,136.73 266.89,141.63 271.01,145.98 275.69,149.73 280.84,152.8 283.56,154.06 289.23,156.01 295.12,157.13 298.11,157.38 304.1,157.22 310.01,156.2 315.72,154.36 318.46,153.14 323.63,150.1 325.97,148.24 328.14,146.17 331.89,141.49 334.89,136.3 337.25,130.78" fill="none" stroke="#171820" stroke-width="1"/><polyline id="SvgjsPolyline4773" points="597.63,275.39 545.14,288.07 527.58,292 509.84,295.07 494.91,296.48 485.92,296.61 479.92,296.33 470.98,295.34 465.08,294.28 459.24,292.89 450.64,290.24 442.27,286.95 434.14,283.09 423.7,277.18 413.73,270.51 404.25,263.15 393.14,253.08 384.91,244.35 377.37,235.02 370.6,225.11 364.74,214.65 360.97,206.48 356.83,195.22 354.36,186.56 351.82,174.84 350.39,165.95 348.99,154.04 347.67,136.09 346.85,115.1 345.48,106.22 343.65,100.51 341.15,95.06 338.05,89.93 332.38,82.95 327.99,78.86 323.16,75.32 317.93,72.39 312.36,70.17 306.53,68.76 303.55,68.38 297.56,68.3 291.62,69.11 285.87,70.79 280.39,73.23 275.28,76.37 270.58,80.09 266.34,84.33 262.59,89.01 259.38,94.08 256.77,99.47 254.09,108.05 253.09,116.98 253.45,122.97 253.94,125.93 254.63,128.85 256.63,134.5 261,142.35 266.82,149.2 273.8,154.86 281.69,159.16 290.25,161.91 299.17,162.96 305.16,162.67 311.06,161.6 316.77,159.77 319.5,158.53 324.56,155.32 326.84,153.37 330.82,148.9 332.52,146.43 335.39,141.16 338.57,132.75" fill="none" stroke="#171820" stroke-width="1"/><polyline id="SvgjsPolyline4774" points="305.85,113.97 306.28,111.03 305.32,108.22 303.19,106.14 300.35,105.28 297.43,105.82 295.08,107.65 293.82,110.34 293.93,113.31 295.39,115.89 297.88,117.52 300.83,117.83 303.61,116.76 305.58,114.54" fill="none" stroke="#171820" stroke-width="1"/><polyline id="SvgjsPolyline4775" points="599.07,50.84 534.89,66.22 523.14,68.65 511.31,70.64 499.38,71.98 487.39,72.41 475.42,71.7 463.59,69.73 452.04,66.5 440.87,62.11 430.15,56.74 417.39,48.86 407.73,41.75 398.57,34 364.29,0.4" fill="none" stroke="#171820" stroke-width="1"/><polyline id="SvgjsPolyline4776" points="227.99,0.99 200.65,28.81 185.63,43.48 169.98,57.48 158.13,66.66 150.63,71.64 145.44,74.65 134.55,79.67 128.86,81.56 123.02,82.95 117.09,83.8 111.09,84.05 102.13,83.32 96.26,82.09 90.53,80.31 82.32,76.66 77.14,73.62 69.94,68.23 63.52,61.93 59.75,57.27 54.97,49.66 52.41,44.23 50.4,38.58 48.44,29.8 47.83,23.84 47.89,14.84 48.54,8.88 50.33,0.06" fill="none" stroke="#171820" stroke-width="1"/><polyline id="SvgjsPolyline4777" points="396.01,598.92 379.16,581.84 366.02,569.53 352.32,557.85 337.96,547.02 327.84,540.58 322.54,537.75 317.07,535.31 308.47,532.69 302.53,531.88 299.53,531.8 296.53,531.95 290.61,532.89 282.06,535.66 276.61,538.17 271.35,541.05 261.27,547.56 246.94,558.45 231.05,572.17 215.94,586.75 203.75,599.99" fill="none" stroke="#171820" stroke-width="1"/><polyline id="SvgjsPolyline4778" points="407.06,598.94 398.06,590.99 381.04,574.08 365.72,559.72 347.66,543.91 335.95,534.54 326.13,527.65 318.29,523.24 309.92,519.96 304.09,518.58 301.1,518.31 298.1,518.35 292.19,519.33 289.33,520.21 283.8,522.54 275.97,526.97 263.74,535.64 247.5,548.95 227.44,567.03 210.31,583.83 196.12,599.31" fill="none" stroke="#171820" stroke-width="1"/><polyline id="SvgjsPolyline4779" points="599.39,576.15 541.06,590.2 526.39,593.31 514.56,595.32 502.63,596.67 490.65,597.12 481.66,596.73 469.77,595.11 458.13,592.22 444.07,587.03 433.21,581.92 420.28,574.32 408.1,565.58 398.92,557.85 390.3,549.51 378.1,536.28 370.4,527.07 364.98,519.89 360.02,512.38 357.06,507.16 354.49,501.74 352.41,496.12 350.96,490.3 350.08,484.37 348.78,472.44 347.88,460.47 346.73,430.5 346.22,385.5 346.09,286.5" fill="none" stroke="#171820" stroke-width="1"/><polyline id="SvgjsPolyline4780" points="598.67,373.31 543.26,386.68 522.74,391.11 504.95,393.84 495.98,394.59 486.99,394.79 478,394.35 469.07,393.2 460.27,391.33 451.65,388.75 443.25,385.54 432.43,380.36 424.61,375.91 414.6,369.29 405.07,362 396.07,354.07 389.68,347.73 381.72,338.75 374.48,329.19 369.6,321.63 365.22,313.77 360.24,302.86 357.16,294.4 353.9,282.86 352.01,274.06 350.13,262.21 348.81,250.28 347.73,235.32 346.52,196.34" fill="none" stroke="#171820" stroke-width="1"/><polyline id="SvgjsPolyline4781" points="599.59,446.9 541.26,460.93 523.66,464.72 505.89,467.51 496.92,468.31 487.93,468.58 478.94,468.21 470,467.13 461.19,465.34 452.54,462.84 444.12,459.68 435.93,455.95 428,451.7 417.83,445.33 408.15,438.25 398.97,430.52 390.34,422.19 382.32,413.26 375.02,403.74 370.08,396.22 364.29,385.71 360.6,377.51 357.46,369.07 354.12,357.55 352.19,348.76 350.25,336.92 348.9,325 347.97,313.03 347.21,298.05 346.63,277.06" fill="none" stroke="#171820" stroke-width="1"/><polyline id="SvgjsPolyline4782" points="598.63,302.19 540.3,316.24 519.74,320.53 507.89,322.36 498.93,323.27 489.94,323.66 480.95,323.44 472,322.52 463.15,320.89 454.46,318.54 443.21,314.39 435.05,310.59 424.57,304.75 414.56,298.14 407.37,292.72 398.24,284.95 389.65,276.57 383.62,269.89 376.2,260.47 369.57,250.46 365.2,242.6 361.37,234.45 357.15,223.23 353.21,208.76 350.12,191.03 348.55,176.12 347.57,161.15 346.21,113.17 344.49,104.35 341.15,96.01 338.14,90.82 332.58,83.76 328.25,79.61 323.46,76 318.26,73.01 312.72,70.73 306.91,69.26 300.94,68.66" fill="none" stroke="#171820" stroke-width="1"/><polyline id="SvgjsPolyline4783" points="597.34,351.68 541.93,365.06 524.34,368.87 506.57,371.72 497.61,372.56 488.62,372.86 479.63,372.54 470.69,371.53 461.86,369.79 453.2,367.34 444.76,364.23 436.55,360.54 428.6,356.33 418.41,350 408.69,342.96 399.48,335.27 390.82,326.97 382.77,318.08 375.42,308.59 370.45,301.09 365.97,293.29 360.86,282.43 356.74,271.17 354.29,262.51 352.32,253.73 350.35,241.89 348.96,229.97 348.01,218.01 347.24,203.03 346.65,182.04" fill="none" stroke="#171820" stroke-width="1"/><polyline id="SvgjsPolyline4784" points="597.9,133.6 533.72,148.97 516.05,152.41 504.17,154.03 489.2,154.9 477.21,154.38 465.35,152.61 453.75,149.56 445.29,146.49 439.78,144.11 426.5,137.15 413.96,128.94 402.17,119.67 391.22,109.43 383.14,100.56 375.76,91.1 365.54,76.29 359.84,69.33 351.5,60.7 342.33,52.97 332.33,46.35 327.01,43.57 321.5,41.22 315.8,39.35 309.95,38.02 301,37.16 295.01,37.37 286.14,38.84 277.57,41.58 269.42,45.38 261.73,50.06 254.52,55.43 247.78,61.39 241.5,67.83 233.86,77.09 228.72,84.47 224.12,92.2 220.14,100.27 216.88,108.66 214.47,117.33 213.05,126.21 212.73,132.2 212.93,138.19 214.26,147.09 216.77,155.72 219.06,161.27 221.77,166.62 226.53,174.25 232.01,181.39 238.07,188.04 244.62,194.21 254.03,201.64 261.55,206.59 269.45,210.89 277.73,214.42 283.44,216.25 292.25,218.05 298.23,218.53 304.22,218.4 310.16,217.58 315.93,215.93 321.33,213.34 326.17,209.81 330.27,205.44 333.6,200.46 336.24,195.07 339.16,186.56 341.17,177.79 342.58,168.91 343.83,156.97 344.91,139.01 345.53,118.02 345.24,112.03 343.31,103.25 341.11,97.67 336.61,89.89 330.84,83 326.37,79 318.83,74.11 313.33,71.72 307.55,70.13 301.6,69.42 295.61,69.64 289.72,70.76 284.06,72.74 276.21,77.1 271.49,80.8 267.24,85.03 261.85,92.23 258.98,97.49 255.91,105.94 254.78,111.83 254.52,114.81 254.63,120.81 255,123.79 255.58,126.73 257.38,132.45 259.96,137.86 261.53,140.41 263.26,142.86 267.2,147.39 274.09,153.15 281.95,157.51 290.5,160.28 293.45,160.82 299.43,161.3 302.42,161.24 308.37,160.51 311.3,159.85 316.99,157.95 319.71,156.69 324.74,153.44 329.08,149.31 330.96,146.97 334.16,141.9 337.72,133.64" fill="none" stroke="#171820" stroke-width="1"/><polyline id="SvgjsPolyline4785" points="599.31,213.51 535.12,228.89 520.43,231.88 505.6,234.11 490.64,235.12 478.65,234.74 466.76,233.12 455.13,230.22 446.63,227.26 435.67,222.38 427.75,218.11 417.59,211.72 407.92,204.63 398.75,196.89 390.13,188.54 382.14,179.59 376.6,172.5 369.93,162.53 365.52,154.69 361.65,146.56 359.38,141.01 356.45,132.5 353.36,120.91 350.4,106.21 348.56,100.5 346.13,95.02 341.48,87.32 335.75,80.39 329.07,74.38 324.12,70.98 318.83,68.15 313.24,65.99 307.42,64.56 301.46,63.94 298.46,63.94 292.49,64.58 286.67,66.01 281.09,68.19 275.8,71.02 270.87,74.43 266.31,78.33 262.17,82.67 258.47,87.39 253.83,95.09 251.41,100.58 249.58,106.29 248.09,115.16 248.25,124.14 250.12,132.93 252.29,138.52 255.12,143.81 260.49,151.02 264.71,155.28 269.36,159.06 274.4,162.32 279.76,165.01 288.28,167.88 294.18,168.94 300.16,169.28 306.15,168.9 312.04,167.79 314.92,166.94 320.4,164.53 322.96,162.96 327.57,159.13 329.6,156.92 333.06,152.03 335.82,146.7 337.97,141.11 340.35,132.43 342,123.59 342.62,117.62 342.36,111.64 341.24,105.75 339.33,100.06 336.69,94.68 333.39,89.67 329.5,85.11 325.07,81.07 320.15,77.64 314.81,74.92 309.13,73.01 303.22,72.01 297.23,71.97 294.25,72.32 291.31,72.9 285.6,74.74 280.23,77.41 275.28,80.79 270.81,84.79 266.88,89.31 262.11,96.93 258.87,105.31 257.69,111.19 257.42,114.18 257.36,117.17 257.93,123.14 259.4,128.95 260.46,131.76 261.73,134.48 264.85,139.6 268.66,144.22 273.08,148.28 278,151.7 283.34,154.42 286.14,155.5 291.93,157.06 297.88,157.79 303.88,157.66 306.85,157.28 312.68,155.88 315.51,154.89 320.92,152.31 323.45,150.7 327.99,146.79 329.98,144.54 333.37,139.6 336.05,134.24 338.16,128.62" fill="none" stroke="#171820" stroke-width="1"/><polyline id="SvgjsPolyline4786" points="597.34,287.75 541.93,301.12 524.34,304.94 506.57,307.78 497.61,308.62 488.62,308.93 479.62,308.61 470.68,307.59 461.86,305.85 453.2,303.4 444.75,300.29 436.55,296.6 428.6,292.39 418.4,286.06 408.69,279.02 399.48,271.33 390.82,263.03 382.77,254.14 375.42,244.65 370.44,237.15 365.97,229.35 360.86,218.49 356.74,207.23 354.29,198.57 352.32,189.79 350.35,177.95 348.96,166.03 348.01,154.07 347.24,139.09 346.65,118.1" fill="none" stroke="#171820" stroke-width="1"/><polyline id="SvgjsPolyline4787" points="599.44,38.46 538.18,53.17 514.64,57.84 502.75,59.38 490.77,60.09 478.78,59.73 469.85,58.64 458.13,56.07 446.75,52.28 435.79,47.41 422.72,40.05 412.8,33.31 401.09,23.94 392.33,15.75 377.84,0.54" fill="none" stroke="#171820" stroke-width="1"/><polyline id="SvgjsPolyline4788" points="211.02,1.18 196.77,16.6 181.85,31.38 168.33,43.25 156.33,52.25 148.73,57.06 143.46,59.94 138.03,62.49 132.44,64.65 126.69,66.37 120.82,67.57 111.85,68.31 105.86,68.03 97.02,66.43 91.31,64.59 85.83,62.15 80.64,59.14 75.8,55.6 71.37,51.56 67.41,47.06 63.97,42.15 61.1,36.88 58.85,31.32 57.22,25.55 56.23,19.63 55.85,13.65 56.05,7.65 56.78,1.7" fill="none" stroke="#171820" stroke-width="1"/><polyline id="SvgjsPolyline4789" points="378.86,598.65 368.23,588.07 359.23,580.13 347.39,570.93 337.38,564.32 326.81,558.64 318.47,555.29 309.76,553.02 300.82,552.12 291.85,552.74 283.1,554.78 274.68,557.96 264.03,563.48 253.95,569.98 242.03,579.08 230.78,589 220.21,599.64" fill="none" stroke="#171820" stroke-width="1"/><polyline id="SvgjsPolyline4790" points="599.76,563.76 541.43,577.8 520.89,582.15 509.04,584.03 500.09,585 491.1,585.46 482.11,585.32 473.15,584.51 464.28,582.96 455.57,580.71 444.28,576.66 436.09,572.94 425.57,567.18 415.51,560.63 405.94,553.39 396.88,545.53 388.39,537.05 380.54,527.98 375.11,520.81 370.12,513.32 364.32,502.81 359.51,491.83 356.56,483.33 354.14,474.66 351.65,462.92 349.88,451.05 348.39,436.13 346.92,406.17 346.25,358.17" fill="none" stroke="#171820" stroke-width="1"/><polyline id="SvgjsPolyline4791" points="599.07,588.52 552.4,599.75" fill="none" stroke="#171820" stroke-width="1"/><polyline id="SvgjsPolyline4792" points="599.27,459.26 543.85,472.61 523.33,477.07 505.55,479.84 496.59,480.62 487.59,480.86 478.6,480.47 469.67,479.37 460.86,477.54 452.23,475.02 443.81,471.84 435.63,468.08 427.71,463.81 420.05,459.09 410.26,452.16 400.96,444.58 392.2,436.38 384.04,427.58 376.58,418.19 371.5,410.76 365.5,400.38 361.63,392.25 358.33,383.88 354.78,372.42 352.71,363.66 350.63,351.85 349.16,339.94 348.14,327.98 347.32,313 346.69,292.01" fill="none" stroke="#171820" stroke-width="1"/><polyline id="SvgjsPolyline4793" points="597.61,145.96 533.42,161.33 518.71,164.25 503.86,166.36 488.89,167.2 476.91,166.65 465.05,164.84 459.22,163.45 450.62,160.8 442.24,157.51 436.8,154.99 423.68,147.74 411.29,139.28 404.23,133.7 397.46,127.77 388.93,119.34 379.17,107.96 372.2,98.19 362.82,82.83 357.47,75.6 349.44,66.69 340.44,58.77 335.58,55.25 330.48,52.08 322.41,48.11 316.77,46.07 310.96,44.58 302.04,43.51 296.04,43.62 290.09,44.38 284.26,45.76 275.82,48.88 270.45,51.56 262.84,56.34 255.75,61.89 249.2,68.06 243.21,74.77 237.79,81.95 232.99,89.56 228.89,97.57 225.59,105.93 223.89,111.69 222.23,120.53 221.77,126.51 221.86,132.51 222.53,138.47 223.77,144.33 226.65,152.85 229.19,158.29 233.8,166.01 237.35,170.85 243.26,177.63 249.79,183.82 256.85,189.39 261.83,192.74 269.68,197.14 277.95,200.68 283.67,202.49 292.49,204.23 298.47,204.68 304.47,204.53 310.4,203.67 316.15,201.99 321.54,199.36 326.35,195.79 330.42,191.39 333.72,186.39 336.33,180.99 339.22,172.47 341.22,163.7 342.97,151.83 344.08,139.89 345.17,115.91 344.6,109.95 342.27,101.27 339.83,95.79 335,88.21 331.08,83.67 326.66,79.62 319.18,74.64 313.71,72.17 307.95,70.52 302.01,69.74 296.02,69.9 290.12,70.97 284.44,72.9 279.09,75.61 274.14,78.99 269.64,82.95 263.83,89.8 260.65,94.89 257.08,103.14 256.23,106.02 255.12,111.91 254.83,117.89 255,120.89 255.99,126.8 256.8,129.69 259.03,135.25 260.44,137.9 265.69,145.19 269.95,149.42 274.7,153.07 282.61,157.33 288.28,159.29 294.15,160.49 297.14,160.78 303.13,160.76 306.12,160.45 311.99,159.22 317.64,157.22 320.33,155.9 325.29,152.54 327.51,150.53 331.38,145.95 333.02,143.44 335.78,138.12 338.84,129.66" fill="none" stroke="#171820" stroke-width="1"/><polyline id="SvgjsPolyline4794" points="599.68,201.13 529.63,217.78 511.92,220.98 497.01,222.57 488.02,222.84 482.02,222.67 476.04,222.2 467.14,220.89 461.28,219.62 452.63,217.12 444.2,213.98 438.71,211.55 425.49,204.48 417.91,199.64 410.6,194.39 403.56,188.78 396.82,182.82 390.4,176.51 384.32,169.87 378.63,162.9 373.37,155.6 368.59,147.98 364.33,140.05 360.63,131.85 357.49,123.42 354.89,114.8 352.74,106.06 350.88,100.36 348.46,94.88 343.87,87.15 340.23,82.38 336.17,77.96 331.72,73.94 326.9,70.37 321.73,67.33 316.26,64.88 307.59,62.5 301.63,61.88 295.64,62.06 289.72,63.05 283.98,64.79 278.5,67.21 273.32,70.23 268.48,73.77 261.92,79.93 256.28,86.93 253.08,92 250.37,97.35 248.2,102.94 246.07,111.68 245.48,117.65 245.61,123.64 246.48,129.57 249.13,138.16 251.74,143.56 254.95,148.62 260.75,155.5 265.18,159.54 270,163.11 275.16,166.16 280.61,168.67 289.21,171.28 298.13,172.4 304.12,172.26 310.06,171.43 315.83,169.8 321.24,167.23 326.09,163.71 328.25,161.62 330.21,159.35 333.55,154.38 336.2,149 338.27,143.37 339.89,137.59 341.68,128.77 342.91,119.86 342.97,113.87 342.16,107.93 340.53,102.16 338.16,96.65 335.12,91.48 331.46,86.73 327.25,82.46 322.53,78.76 317.37,75.71 311.83,73.43 306.01,72 300.03,71.51 297.04,71.63 291.12,72.58 288.23,73.4 282.69,75.68 277.52,78.72 272.8,82.42 268.58,86.68 264.92,91.43 261.87,96.59 259.49,102.09 257.86,107.86 257.03,113.8 256.95,116.8 257.08,119.79 258.02,125.71 258.83,128.6 261.07,134.16 262.5,136.8 265.89,141.74 269.94,146.16 274.56,149.99 279.64,153.17 285.1,155.64 290.85,157.33 293.8,157.87 296.79,158.21 302.78,158.24 305.76,157.94 311.63,156.7 314.49,155.78 319.97,153.37 322.55,151.84 327.22,148.09 329.28,145.9 332.81,141.06 335.62,135.76 337.81,130.18 339.51,124.43 340.39,118.5 340.48,115.5 339.96,109.53" fill="none" stroke="#171820" stroke-width="1"/><polyline id="SvgjsPolyline4795" points="599.81,26.08 538.56,40.79 517.98,44.99 506.11,46.72 494.15,47.69 485.16,47.77 476.18,47.19 464.33,45.3 452.76,42.14 441.57,37.82 430.81,32.51 420.52,26.35 410.7,19.45 401.38,11.89 390.49,1.59" fill="none" stroke="#171820" stroke-width="1"/><polyline id="SvgjsPolyline4796" points="194.15,1.89 184.05,12.98 173.32,23.45 161.88,33.15 152.12,40.13 141.73,46.12 136.28,48.63 130.66,50.73 121.95,52.98 113.01,53.94 107.02,53.77 101.09,52.91 92.48,50.31 87.08,47.7 82.05,44.44 75.41,38.39 71.69,33.69 70.08,31.16 68.63,28.53 66.28,23.01 64.12,14.29 63.56,8.32 63.68,2.32" fill="none" stroke="#171820" stroke-width="1"/><polyline id="SvgjsPolyline4797" points="362.12,598.8 353.01,591 345.79,585.63 338.23,580.76 330.31,576.48 322.03,572.96 316.32,571.14 307.5,569.36 301.52,568.9 292.54,569.36 286.64,570.4 278.01,572.94 269.73,576.46 261.81,580.73 254.25,585.61 247.02,590.98 237.91,598.77" fill="none" stroke="#171820" stroke-width="1"/><polyline id="SvgjsPolyline4798" points="597.22,552.04 541.81,565.41 524.22,569.22 506.45,572.06 497.49,572.89 488.49,573.19 479.5,572.86 470.56,571.84 464.66,570.75 455.95,568.52 447.43,565.62 439.15,562.1 431.11,558.05 423.34,553.52 415.83,548.56 406.24,541.34 397.17,533.49 388.66,525.04 380.78,515.99 373.64,506.35 367.34,496.14 363.24,488.13 359.69,479.86 356.71,471.37 353.55,459.8 351.74,450.98 349.94,439.12 348.68,427.19 347.65,412.22 346.93,394.24" fill="none" stroke="#171820" stroke-width="1"/><polyline id="SvgjsPolyline4799" points="598.94,471.62 540.61,485.66 523.01,489.42 505.22,492.16 496.26,492.93 487.26,493.15 478.27,492.73 469.35,491.6 460.54,489.75 451.91,487.2 443.5,484 435.34,480.22 427.42,475.94 419.77,471.2 409.99,464.25 400.71,456.65 391.97,448.43 383.83,439.62 376.38,430.21 371.32,422.77 366.75,415.02 361.5,404.24 358.22,395.86 354.7,384.39 352.65,375.63 350.58,363.81 349.12,351.9 347.92,336.95 346.68,303.97" fill="none" stroke="#171820" stroke-width="1"/><polyline id="SvgjsPolyline4800" points="597.31,158.32 536.06,173.04 524.32,175.51 512.49,177.55 497.59,179.19 485.59,179.46 473.63,178.57 464.76,177.07 458.93,175.67 450.34,172.99 441.97,169.68 433.85,165.81 425.98,161.43 418.38,156.61 408.67,149.57 401.71,143.86 395.06,137.81 388.73,131.41 382.75,124.69 377.17,117.62 368.88,105.13 358.89,86.67 353.76,79.28 349.95,74.65 343.7,68.18 336.82,62.38 329.34,57.38 321.3,53.35 315.66,51.32 309.84,49.88 300.9,48.95 291.93,49.57 286.06,50.82 280.36,52.69 274.87,55.1 269.62,57.99 264.62,61.31 259.89,65 255.43,69.01 251.25,73.31 243.75,82.67 240.47,87.7 236.2,95.61 233.83,101.12 231.1,109.69 229.9,115.57 229.23,121.53 229.15,127.53 229.68,133.5 230.81,139.39 232.54,145.13 234.81,150.68 239.16,158.56 242.6,163.47 248.46,170.29 255.04,176.43 259.77,180.11 267.34,184.98 272.67,187.74 281.03,191.05 286.82,192.63 292.73,193.66 301.71,194.08 307.68,193.56 313.54,192.28 319.12,190.1 324.22,186.95 326.52,185.03 330.56,180.61 333.84,175.59 336.42,170.18 338.45,164.53 340.68,155.82 342.23,146.95 343.61,135.03 344.65,120.07 344.66,114.07 343.85,108.13 342.25,102.36 338.53,94.18 335.26,89.15 329.31,82.41 324.71,78.56 322.25,76.85 317.01,73.94 311.41,71.78 305.57,70.46 302.58,70.14 296.59,70.21 290.68,71.2 284.98,73.06 282.25,74.3 274.63,79.06 268.02,85.15 264.26,89.82 261.07,94.9 257.48,103.14 255.99,108.95 255.29,114.9 255.25,117.9 255.83,123.87 257.27,129.68 258.31,132.5 260.96,137.87 262.57,140.41 264.34,142.83 268.35,147.29 272.9,151.19 277.92,154.47 280.57,155.87 286.13,158.12 291.94,159.62 297.89,160.31 300.89,160.36 306.86,159.82 312.7,158.49 318.32,156.38 323.5,153.38 325.86,151.52 330.02,147.21 333.4,142.26 336.08,136.9 338.18,131.28 339.81,125.51 340.84,119.6 341,116.6 340.63,110.62 339.38,104.76 337.31,99.13 334.51,93.83 331.03,88.95 326.95,84.55 322.33,80.73 317.23,77.59 311.71,75.24 305.9,73.77 299.93,73.28 296.93,73.42 291.02,74.42 285.35,76.37 280.04,79.15 277.55,80.82 272.94,84.65 268.88,89.06 265.42,93.96 262.63,99.26 260.58,104.9 259.35,110.76 259.06,113.75 259,116.75 259.59,122.71 260.23,125.64 262.19,131.31 263.49,134.01 266.7,139.07 270.62,143.61 275.15,147.53 277.61,149.25 282.87,152.13 288.48,154.23 294.34,155.5 300.32,155.9 306.3,155.41 309.24,154.83 314.97,153.05 320.38,150.46 322.93,148.89 325.33,147.09 329.57,142.86" fill="none" stroke="#171820" stroke-width="1"/><polyline id="SvgjsPolyline4801" points="597.13,189.4 530.01,205.4 512.31,208.63 497.4,210.25 488.41,210.54 482.41,210.39 476.43,209.94 467.52,208.66 458.75,206.67 453,204.95 441.8,200.65 433.68,196.77 425.83,192.38 418.23,187.56 410.91,182.33 401.57,174.79 394.92,168.72 388.6,162.32 382.63,155.59 373.59,143.63 367.3,133.41 363.2,125.4 360.78,119.91 357.61,111.49 353.9,100.08 351.47,94.6 348.55,89.36 345.2,84.39 339.4,77.51 335.07,73.36 330.38,69.61 322.74,64.88 314.44,61.42 305.67,59.48 299.68,59.13 293.7,59.56 284.95,61.61 279.38,63.84 274.09,66.65 266.74,71.83 262.26,75.83 256.24,82.51 252.72,87.36 248.25,95.17 244.88,103.5 243.33,109.3 242.16,118.21 242.23,124.21 243.01,130.15 245.46,138.8 249.36,146.9 252.66,151.91 256.46,156.55 260.69,160.8 265.31,164.63 270.26,168.01 275.52,170.89 281.04,173.25 286.77,175.02 295.63,176.5 301.63,176.66 307.6,176.14 313.46,174.86 316.3,173.9 321.67,171.25 324.15,169.56 328.59,165.53 332.25,160.79 335.18,155.55 337.47,150.01 339.26,144.29 341.24,135.51 342.63,126.62 343.5,117.67 343.47,114.67 342.76,108.71 341.24,102.92 338.97,97.36 336.03,92.14 332.47,87.31 328.36,82.95 323.74,79.13 318.66,75.94 313.19,73.48 307.43,71.86 301.47,71.14 295.49,71.39 292.52,71.87 286.76,73.5 281.29,75.96 276.22,79.16 271.6,82.99 267.49,87.35 263.94,92.18 261,97.41 258.74,102.96 257.23,108.76 256.53,114.72 256.69,120.71 257.11,123.68 257.74,126.61 259.67,132.29 260.93,135.01 264.04,140.13 265.86,142.52 269.96,146.89 274.61,150.68 279.72,153.82 282.42,155.13 288.05,157.18 293.91,158.44 299.89,158.88 305.87,158.48 308.83,157.96 311.74,157.24 317.38,155.21 322.66,152.37 325.07,150.6 327.31,148.6 331.21,144.05 334.35,138.95 336.83,133.48 338.76,127.81 340.15,121.97 340.51,119 340.52,113 340.18,110.02 338.84,104.18" fill="none" stroke="#171820" stroke-width="1"/><polyline id="SvgjsPolyline4802" points="597.27,14.35 541.86,27.73 518.37,32.62 506.5,34.38 497.54,35.21 488.55,35.51 479.55,35.19 470.62,34.17 461.79,32.42 450.29,29 441.93,25.68 431.16,20.4 423.38,15.87 413.43,9.17 403.97,1.79" fill="none" stroke="#171820" stroke-width="1"/><polyline id="SvgjsPolyline4803" points="179.34,0.48 171.18,9.27 162.43,17.47 153.03,24.94 145.53,29.91 137.62,34.18 129.28,37.56 120.57,39.79 111.62,40.61 102.67,39.76 99.75,39.08 94.09,37.1 88.79,34.3 86.32,32.6 81.81,28.65 79.81,26.42 76.37,21.51 73.76,16.11 71.99,10.38 71.43,7.44 70.93,1.46" fill="none" stroke="#171820" stroke-width="1"/><polyline id="SvgjsPolyline4804" points="343.38,598.72 333.17,592.44 327.79,589.78 322.23,587.52 316.51,585.7 310.66,584.39 304.71,583.63 298.72,583.45 289.77,584.31 283.91,585.59 278.18,587.37 272.61,589.6 267.22,592.23 256.98,598.47" fill="none" stroke="#171820" stroke-width="1"/><polyline id="SvgjsPolyline4805" points="597.55,539.66 542.15,553.04 524.56,556.86 512.74,558.92 503.81,560.06 494.84,560.74 485.84,560.87 476.86,560.34 467.94,559.1 459.16,557.13 450.57,554.48 442.19,551.18 434.07,547.32 426.2,542.96 416.11,536.46 406.51,529.26 399.64,523.45 390.97,515.16 382.91,506.27 375.55,496.8 370.56,489.31 364.7,478.84 360.94,470.67 357.75,462.25 354.34,450.75 352.36,441.97 350.38,430.14 348.98,418.22 347.84,403.27 346.6,367.29" fill="none" stroke="#171820" stroke-width="1"/><polyline id="SvgjsPolyline4806" points="598.63,483.98 543.22,497.34 522.69,501.77 504.9,504.49 495.93,505.24 486.94,505.43 477.95,504.99 469.03,503.84 463.14,502.67 454.46,500.32 445.98,497.31 437.74,493.69 429.75,489.55 419.5,483.31 409.74,476.34 400.47,468.72 391.74,460.49 383.62,451.66 376.19,442.24 371.14,434.79 366.6,427.03 361.37,416.23 358.11,407.84 354.62,396.36 352.58,387.6 350.53,375.78 349.09,363.86 347.9,348.91 346.67,315.94" fill="none" stroke="#171820" stroke-width="1"/><polyline id="SvgjsPolyline4807" points="599.9,170.04 535.72,185.4 521.03,188.41 509.18,190.3 497.24,191.49 485.24,191.74 473.29,190.81 461.5,188.61 452.85,186.14 444.41,183 436.21,179.29 428.27,175.05 420.6,170.36 413.19,165.26 403.73,157.87 396.99,151.91 390.56,145.62 384.47,138.99 378.77,132.02 373.5,124.73 365.8,111.87 363.13,106.49 358.35,95.49 355.57,90.17 352.39,85.08 348.85,80.24 342.91,73.49 336.25,67.45 328.91,62.24 323.67,59.33 318.17,56.94 312.45,55.14 303.57,53.7 294.59,53.87 288.68,54.87 282.92,56.55 277.37,58.83 272.08,61.64 267.06,64.93 262.33,68.62 257.91,72.67 253.8,77.04 250.02,81.7 246.59,86.62 242.15,94.45 239.72,99.93 237.75,105.59 236.29,111.41 235.4,117.34 235.12,123.34 235.48,129.32 236.48,135.23 238.12,141 240.35,146.57 243.13,151.88 246.41,156.91 250.12,161.62 256.41,168.05 261.02,171.89 265.92,175.34 273.78,179.73 279.3,182.07 285.01,183.89 290.88,185.14 296.84,185.79 305.83,185.57 311.73,184.54 317.42,182.64 322.69,179.8 325.11,178.02 329.39,173.83 332.9,168.97 335.69,163.66 337.87,158.07 340.28,149.41 341.95,140.57 343.13,131.64 344.18,119.69 344.16,113.7 343.31,107.76 341.66,102 339.29,96.49 336.27,91.31 330.64,84.3 323.84,78.42 318.75,75.26 313.27,72.82 307.5,71.21 301.55,70.49 295.56,70.72 289.68,71.88 286.82,72.79 281.34,75.22 276.23,78.36 273.85,80.18 267.41,86.45 263.78,91.23 260.75,96.4 257.45,104.76 256.71,107.67 255.84,113.6 255.72,116.6 256.13,122.58 257.42,128.43 259.54,134.04 260.9,136.71 264.17,141.74 266.05,144.07 270.27,148.34 275,152.01 280.18,155.05 285.7,157.38 291.49,158.95 294.45,159.43 300.43,159.79 306.41,159.31 312.26,158.03 317.89,155.96 320.57,154.62 325.5,151.22 327.71,149.18 329.72,146.96 333.16,142.05" fill="none" stroke="#171820" stroke-width="1"/><polyline id="SvgjsPolyline4808" points="597.6,1.97 542.2,15.35 524.61,19.17 512.79,21.23 503.86,22.38 488.89,23.22 479.9,22.92 470.96,21.92 462.12,20.2 453.46,17.78 445.01,14.69 436.8,11.01 426.24,5.31 418.63,0.5" fill="none" stroke="#171820" stroke-width="1"/><polyline id="SvgjsPolyline4809" points="162.67,0.82 156.23,7.11 149.33,12.88 141.94,18.01 136.73,20.99 128.51,24.64 122.78,26.39 116.88,27.49 110.9,27.83 104.93,27.28 99.13,25.78 93.68,23.28 88.81,19.79 84.72,15.42 83.02,12.95 80.38,7.57 78.79,1.79" fill="none" stroke="#171820" stroke-width="1"/><polyline id="SvgjsPolyline4810" points="320.5,599.71 314.75,597.98 308.87,596.8 299.91,596.12 290.94,596.82 285.07,598.03 279.33,599.77" fill="none" stroke="#171820" stroke-width="1"/><polyline id="SvgjsPolyline4811" points="597.89,527.27 542.48,540.65 524.9,544.49 507.14,547.38 498.18,548.24 489.19,548.59 480.19,548.31 471.25,547.34 465.34,546.29 456.61,544.11 448.08,541.26 439.77,537.79 431.72,533.78 423.93,529.28 413.95,522.62 404.46,515.28 395.49,507.31 387.09,498.74 379.35,489.58 374.03,482.32 367.68,472.14 363.54,464.15 359.94,455.9 356.92,447.43 354.43,438.78 351.87,427.06 350.03,415.2 348.74,403.27 347.69,388.31 346.95,370.33" fill="none" stroke="#171820" stroke-width="1"/><polyline id="SvgjsPolyline4812" points="598.32,496.34 542.91,509.7 522.38,514.12 504.59,516.82 495.62,517.54 486.62,517.72 477.63,517.25 471.68,516.55 462.83,514.89 454.15,512.51 445.68,509.48 437.45,505.85 429.47,501.69 419.24,495.42 409.48,488.44 400.23,480.81 391.52,472.56 383.41,463.71 376.01,454.27 370.98,446.81 366.44,439.04 361.25,428.23 357.05,416.99 354.54,408.35 352.52,399.58 350.49,387.75 349.06,375.84 348.08,363.88 347.28,348.9 346.67,327.91" fill="none" stroke="#171820" stroke-width="1"/><polyline id="SvgjsPolyline4813" points="553.89,0.17 533.45,4.98 515.78,8.4 500.9,10.3 488.92,10.86 476.94,10.31 465.08,8.5 453.49,5.42 442.27,1.18" fill="none" stroke="#171820" stroke-width="1"/><polyline id="SvgjsPolyline4814" points="144.12,1.71 136.86,7.03 128.97,11.33 120.48,14.28 114.57,15.27 111.57,15.4 105.61,14.85 102.7,14.13 97.22,11.71 94.74,10.02 90.53,5.77 87.54,0.59" fill="none" stroke="#171820" stroke-width="1"/><polyline id="SvgjsPolyline4815" points="598.24,514.89 542.83,528.27 522.3,532.68 510.46,534.64 501.52,535.67 492.54,536.22 483.54,536.19 474.57,535.48 465.69,534.05 456.95,531.91 448.41,529.08 437.38,524.36 429.4,520.2 419.17,513.93 411.81,508.75 402.43,501.27 393.58,493.17 385.32,484.47 379.57,477.55 372.55,467.82 367.86,460.14 362.42,449.45 359,441.13 356.13,432.6 353.12,420.98 350.92,409.19 349.36,397.29 348.07,382.35 347.28,367.37 346.4,328.38" fill="none" stroke="#171820" stroke-width="1"/><polyline id="SvgjsPolyline4816" points="124.04,0.39 118.38,2.35 112.45,3.22 106.49,2.69 103.63,1.79 100.95,0.45" fill="none" stroke="#171820" stroke-width="1"/></g></svg>