<?xml version="1.0" standalone="no"?>
<svg id="SvgjsSvg1001" width="600" height="600" xmlns="http://www.w3.org/2000/svg" version="1.1" xmlns:xlink="http://www.w3.org/1999/xlink" xmlns:svgjs="http://svgjs.com/svgjs" class="svg-paper" viewBox="0 0 600 600"><title id="SvgjsTitle8710">x=x|y=y|dTest=0.0|sd=0.2|sm=0.05|ts=0.05 | generated with FlowLines</title><g id="SvgjsG8711"><polyline id="SvgjsPolyline8712" points="301.89,298.61 0,521.08" fill="none" stroke="#171820" stroke-width="1"/><polyline id="SvgjsPolyline8713" points="298.62,297.08 158.7,1.53" fill="none" stroke="#171820" stroke-width="1"/><polyline id="SvgjsPolyline8714" points="302.38,302.18 598.48,574.07" fill="none" stroke="#171820" stroke-width="1"/><polyline id="SvgjsPolyline8715" points="299.57,302.4 246.78,597.72" fill="none" stroke="#171820" stroke-width="1"/><polyline id="SvgjsPolyline8716" points="297.58,299.7 2.85,263.05" fill="none" stroke="#171820" stroke-width="1"/><polyline id="SvgjsPolyline8717" points="296.84,305.01 111.22,599.37" fill="none" stroke="#171820" stroke-width="1"/><polyline id="SvgjsPolyline8718" points="294.28,301.53 1.62,380.01" fill="none" stroke="#171820" stroke-width="1"/><polyline id="SvgjsPolyline8719" points="294.7,305.69 22.91,597.81" fill="none" stroke="#171820" stroke-width="1"/><polyline id="SvgjsPolyline8720" points="292.99,303.37 1.07,443.94" fill="none" stroke="#171820" stroke-width="1"/><polyline id="SvgjsPolyline8721" points="285.65,312.77 1.07,566.1" fill="none" stroke="#171820" stroke-width="1"/><polyline id="SvgjsPolyline8722" points="283.55,309.92 0.98,480.38" fill="none" stroke="#171820" stroke-width="1"/><polyline id="SvgjsPolyline8723" points="271.3,323.25 0.91,542.32" fill="none" stroke="#171820" stroke-width="1"/><polyline id="SvgjsPolyline8724" points="269.3,320.52 2.43,498.92" fill="none" stroke="#171820" stroke-width="1"/><polyline id="SvgjsPolyline8725" points="302.8,294.54 453.17,0.79" fill="none" stroke="#171820" stroke-width="1"/><polyline id="SvgjsPolyline8726" points="295.26,296.26 1.04,63.76" fill="none" stroke="#171820" stroke-width="1"/><polyline id="SvgjsPolyline8727" points="299.84,294.25 291.9,0.36" fill="none" stroke="#171820" stroke-width="1"/><polyline id="SvgjsPolyline8728" points="295.38,294.04 67.31,0.16" fill="none" stroke="#171820" stroke-width="1"/><polyline id="SvgjsPolyline8729" points="298.26,292.73 228.27,1.01" fill="none" stroke="#171820" stroke-width="1"/><polyline id="SvgjsPolyline8730" points="291.71,286.47 117.76,2.51" fill="none" stroke="#171820" stroke-width="1"/><polyline id="SvgjsPolyline8731" points="294.72,285.07 194.62,2.26" fill="none" stroke="#171820" stroke-width="1"/><polyline id="SvgjsPolyline8732" points="285.48,273.13 138.59,1.27" fill="none" stroke="#171820" stroke-width="1"/><polyline id="SvgjsPolyline8733" points="287.2,269.01 176.13,0.04" fill="none" stroke="#171820" stroke-width="1"/><polyline id="SvgjsPolyline8734" points="306.05,298.95 598.64,247.96" fill="none" stroke="#171820" stroke-width="1"/><polyline id="SvgjsPolyline8735" points="302.17,305.63 415.53,599.53" fill="none" stroke="#171820" stroke-width="1"/><polyline id="SvgjsPolyline8736" points="305.45,301.85 598.01,401.3" fill="none" stroke="#171820" stroke-width="1"/><polyline id="SvgjsPolyline8737" points="304.32,306.18 508.9,598.75" fill="none" stroke="#171820" stroke-width="1"/><polyline id="SvgjsPolyline8738" points="306.42,303.82 597.87,476.97" fill="none" stroke="#171820" stroke-width="1"/><polyline id="SvgjsPolyline8739" points="310.47,311.93 561.85,598.23" fill="none" stroke="#171820" stroke-width="1"/><polyline id="SvgjsPolyline8740" points="312.7,309.47 598.88,522.89" fill="none" stroke="#171820" stroke-width="1"/><polyline id="SvgjsPolyline8741" points="321.37,321.83 592.1,598.37" fill="none" stroke="#171820" stroke-width="1"/><polyline id="SvgjsPolyline8742" points="325.81,321.4 598.33,547.35" fill="none" stroke="#171820" stroke-width="1"/><polyline id="SvgjsPolyline8743" points="300.35,304.02 326.11,599.9" fill="none" stroke="#171820" stroke-width="1"/><polyline id="SvgjsPolyline8744" points="296.56,308.95 185.75,597.39" fill="none" stroke="#171820" stroke-width="1"/><polyline id="SvgjsPolyline8745" points="299.42,312.2 285.65,599.87" fill="none" stroke="#171820" stroke-width="1"/><polyline id="SvgjsPolyline8746" points="295.2,317.35 217.56,597.8" fill="none" stroke="#171820" stroke-width="1"/><polyline id="SvgjsPolyline8747" points="296.99,326.66 266.41,597.94" fill="none" stroke="#171820" stroke-width="1"/><polyline id="SvgjsPolyline8748" points="292.08,334.83 232.24,598.12" fill="none" stroke="#171820" stroke-width="1"/><polyline id="SvgjsPolyline8749" points="296.27,298.48 1.84,178.33" fill="none" stroke="#171820" stroke-width="1"/><polyline id="SvgjsPolyline8750" points="290.44,300.63 0.07,319.87" fill="none" stroke="#171820" stroke-width="1"/><polyline id="SvgjsPolyline8751" points="288.17,296.94 0.61,222.66" fill="none" stroke="#171820" stroke-width="1"/><polyline id="SvgjsPolyline8752" points="282.01,299.45 0.14,290.83" fill="none" stroke="#171820" stroke-width="1"/><polyline id="SvgjsPolyline8753" points="273.65,294.98 2.53,243.3" fill="none" stroke="#171820" stroke-width="1"/><polyline id="SvgjsPolyline8754" points="264.39,297.25 1.17,276.9" fill="none" stroke="#171820" stroke-width="1"/><polyline id="SvgjsPolyline8755" points="291.7,316.54 150.36,598.05" fill="none" stroke="#171820" stroke-width="1"/><polyline id="SvgjsPolyline8756" points="288.74,314.65 71.15,597.68" fill="none" stroke="#171820" stroke-width="1"/><polyline id="SvgjsPolyline8757" points="283.66,328.91 131.62,597.92" fill="none" stroke="#171820" stroke-width="1"/><polyline id="SvgjsPolyline8758" points="279.31,329.7 92.37,597.99" fill="none" stroke="#171820" stroke-width="1"/><polyline id="SvgjsPolyline8759" points="281.75,303.03 0.6,349.75" fill="none" stroke="#171820" stroke-width="1"/><polyline id="SvgjsPolyline8760" points="282.67,306.42 1.36,410.64" fill="none" stroke="#171820" stroke-width="1"/><polyline id="SvgjsPolyline8761" points="267.55,307.05 0.76,364.97" fill="none" stroke="#171820" stroke-width="1"/><polyline id="SvgjsPolyline8762" points="265.51,310.97 2.49,394.63" fill="none" stroke="#171820" stroke-width="1"/><polyline id="SvgjsPolyline8763" points="277.34,326.75 46.63,599.18" fill="none" stroke="#171820" stroke-width="1"/><polyline id="SvgjsPolyline8764" points="274.95,324.52 0.53,593.14" fill="none" stroke="#171820" stroke-width="1"/><polyline id="SvgjsPolyline8765" points="269.16,316.67 2.59,460.72" fill="none" stroke="#171820" stroke-width="1"/><polyline id="SvgjsPolyline8766" points="267.74,313.72 2.7,426.42" fill="none" stroke="#171820" stroke-width="1"/><polyline id="SvgjsPolyline8767" points="304.79,296.46 599.17,78.98" fill="none" stroke="#171820" stroke-width="1"/><polyline id="SvgjsPolyline8768" points="301.05,295.51 369.78,0.41" fill="none" stroke="#171820" stroke-width="1"/><polyline id="SvgjsPolyline8769" points="302.93,296.55 553.31,1.46" fill="none" stroke="#171820" stroke-width="1"/><polyline id="SvgjsPolyline8770" points="304.44,287.93 410.14,0.76" fill="none" stroke="#171820" stroke-width="1"/><polyline id="SvgjsPolyline8771" points="308.76,286.83 498.12,2.03" fill="none" stroke="#171820" stroke-width="1"/><polyline id="SvgjsPolyline8772" points="311.05,274.82 431.61,0.11" fill="none" stroke="#171820" stroke-width="1"/><polyline id="SvgjsPolyline8773" points="315.39,273.7 474.46,1.81" fill="none" stroke="#171820" stroke-width="1"/><polyline id="SvgjsPolyline8774" points="288.92,293.48 1.89,124.64" fill="none" stroke="#171820" stroke-width="1"/><polyline id="SvgjsPolyline8775" points="291.01,290.94 3.64,1.32" fill="none" stroke="#171820" stroke-width="1"/><polyline id="SvgjsPolyline8776" points="279.84,286.18 0.25,94.47" fill="none" stroke="#171820" stroke-width="1"/><polyline id="SvgjsPolyline8777" points="279.56,281.77 1.94,34.15" fill="none" stroke="#171820" stroke-width="1"/><polyline id="SvgjsPolyline8778" points="261.17,271.38 0.35,79.16" fill="none" stroke="#171820" stroke-width="1"/><polyline id="SvgjsPolyline8779" points="301.22,287.56 329.29,0.93" fill="none" stroke="#171820" stroke-width="1"/><polyline id="SvgjsPolyline8780" points="298.02,284.76 261.22,2.14" fill="none" stroke="#171820" stroke-width="1"/><polyline id="SvgjsPolyline8781" points="300.94,272.89 310.35,0.06" fill="none" stroke="#171820" stroke-width="1"/><polyline id="SvgjsPolyline8782" points="297.43,267.04 276.71,0.85" fill="none" stroke="#171820" stroke-width="1"/><polyline id="SvgjsPolyline8783" points="280.94,278.27 37.63,0.86" fill="none" stroke="#171820" stroke-width="1"/><polyline id="SvgjsPolyline8784" points="283.58,276.25 94.23,2.33" fill="none" stroke="#171820" stroke-width="1"/><polyline id="SvgjsPolyline8785" points="294.23,268.74 244.67,0.27" fill="none" stroke="#171820" stroke-width="1"/><polyline id="SvgjsPolyline8786" points="290.98,269.52 211.81,1.99" fill="none" stroke="#171820" stroke-width="1"/><polyline id="SvgjsPolyline8787" points="304.6,300.33 597.84,321.42" fill="none" stroke="#171820" stroke-width="1"/><polyline id="SvgjsPolyline8788" points="304.16,298.22 599.45,172.33" fill="none" stroke="#171820" stroke-width="1"/><polyline id="SvgjsPolyline8789" points="312.84,299.33 597.46,284.5" fill="none" stroke="#171820" stroke-width="1"/><polyline id="SvgjsPolyline8790" points="315.18,295.53 597.22,212.55" fill="none" stroke="#171820" stroke-width="1"/><polyline id="SvgjsPolyline8791" points="327.32,296.9 598.58,266.14" fill="none" stroke="#171820" stroke-width="1"/><polyline id="SvgjsPolyline8792" points="329.68,293.09 598.49,230.5" fill="none" stroke="#171820" stroke-width="1"/><polyline id="SvgjsPolyline8793" points="302.95,312.52 370.29,598.7" fill="none" stroke="#171820" stroke-width="1"/><polyline id="SvgjsPolyline8794" points="305.99,311.27 459.51,599.99" fill="none" stroke="#171820" stroke-width="1"/><polyline id="SvgjsPolyline8795" points="307.23,323.35 392.46,598.45" fill="none" stroke="#171820" stroke-width="1"/><polyline id="SvgjsPolyline8796" points="311.36,324.93 435.81,597.9" fill="none" stroke="#171820" stroke-width="1"/><polyline id="SvgjsPolyline8797" points="312.25,302.52 597.27,361.19" fill="none" stroke="#171820" stroke-width="1"/><polyline id="SvgjsPolyline8798" points="313.97,306.41 597.56,436.5" fill="none" stroke="#171820" stroke-width="1"/><polyline id="SvgjsPolyline8799" points="326.17,307.13 598.24,381.3" fill="none" stroke="#171820" stroke-width="1"/><polyline id="SvgjsPolyline8800" points="330.72,312.21 598.36,418.58" fill="none" stroke="#171820" stroke-width="1"/><polyline id="SvgjsPolyline8801" points="315.11,324.63 482.93,598.27" fill="none" stroke="#171820" stroke-width="1"/><polyline id="SvgjsPolyline8802" points="317.82,322.71 534.5,598.85" fill="none" stroke="#171820" stroke-width="1"/><polyline id="SvgjsPolyline8803" points="328.15,314.77 599.12,456.93" fill="none" stroke="#171820" stroke-width="1"/><polyline id="SvgjsPolyline8804" points="326.44,317.64 598.46,499.12" fill="none" stroke="#171820" stroke-width="1"/><polyline id="SvgjsPolyline8805" points="336.94,344.79 546.9,599.39" fill="none" stroke="#171820" stroke-width="1"/><polyline id="SvgjsPolyline8806" points="345.25,349.04 575.13,598.19" fill="none" stroke="#171820" stroke-width="1"/><polyline id="SvgjsPolyline8807" points="345.87,344.22 598.57,587.83" fill="none" stroke="#171820" stroke-width="1"/><polyline id="SvgjsPolyline8808" points="303.56,322.18 347.73,597.66" fill="none" stroke="#171820" stroke-width="1"/><polyline id="SvgjsPolyline8809" points="300.5,325.43 305.83,598.38" fill="none" stroke="#171820" stroke-width="1"/><polyline id="SvgjsPolyline8810" points="286.31,330.99 167.5,599.92" fill="none" stroke="#171820" stroke-width="1"/><polyline id="SvgjsPolyline8811" points="289.39,332.17 201.02,599.96" fill="none" stroke="#171820" stroke-width="1"/><polyline id="SvgjsPolyline8812" points="279.87,290.03 0.24,151.63" fill="none" stroke="#171820" stroke-width="1"/><polyline id="SvgjsPolyline8813" points="275.86,292 2.49,201.36" fill="none" stroke="#171820" stroke-width="1"/><polyline id="SvgjsPolyline8814" points="266.35,303.9 1.12,334.64" fill="none" stroke="#171820" stroke-width="1"/><polyline id="SvgjsPolyline8815" points="266.13,300.61 2.18,305.39" fill="none" stroke="#171820" stroke-width="1"/><polyline id="SvgjsPolyline8816" points="311.44,289.34 598.96,21.42" fill="none" stroke="#171820" stroke-width="1"/><polyline id="SvgjsPolyline8817" points="313.55,292.2 599.53,127.53" fill="none" stroke="#171820" stroke-width="1"/><polyline id="SvgjsPolyline8818" points="323.31,280.66 598.06,52.7" fill="none" stroke="#171820" stroke-width="1"/><polyline id="SvgjsPolyline8819" points="325.34,283.4 598.86,104.2" fill="none" stroke="#171820" stroke-width="1"/><polyline id="SvgjsPolyline8820" points="304.24,274.35 349.28,2.05" fill="none" stroke="#171820" stroke-width="1"/><polyline id="SvgjsPolyline8821" points="307.45,275.11 389.14,2.07" fill="none" stroke="#171820" stroke-width="1"/><polyline id="SvgjsPolyline8822" points="317.37,276.93 524.87,1.31" fill="none" stroke="#171820" stroke-width="1"/><polyline id="SvgjsPolyline8823" points="319.93,279.11 585.02,1.29" fill="none" stroke="#171820" stroke-width="1"/><polyline id="SvgjsPolyline8824" points="338.43,251.71 538.34,0.56" fill="none" stroke="#171820" stroke-width="1"/><polyline id="SvgjsPolyline8825" points="259.47,278.08 0.87,138.22" fill="none" stroke="#171820" stroke-width="1"/><polyline id="SvgjsPolyline8826" points="258.6,273.67 0.38,109.47" fill="none" stroke="#171820" stroke-width="1"/><polyline id="SvgjsPolyline8827" points="262.52,259.83 21.01,1" fill="none" stroke="#171820" stroke-width="1"/><polyline id="SvgjsPolyline8828" points="260.13,262.19 1.08,16.55" fill="none" stroke="#171820" stroke-width="1"/><polyline id="SvgjsPolyline8829" points="258.16,264.95 0.61,49.16" fill="none" stroke="#171820" stroke-width="1"/><polyline id="SvgjsPolyline8830" points="266.25,259.02 54.56,1.97" fill="none" stroke="#171820" stroke-width="1"/><polyline id="SvgjsPolyline8831" points="325.76,303.54 599.18,341.16" fill="none" stroke="#171820" stroke-width="1"/><polyline id="SvgjsPolyline8832" points="325.98,300.26 598.97,302.96" fill="none" stroke="#171820" stroke-width="1"/><polyline id="SvgjsPolyline8833" points="325.85,287.12 599.74,150.67" fill="none" stroke="#171820" stroke-width="1"/><polyline id="SvgjsPolyline8834" points="327.18,290.24 598.24,192.93" fill="none" stroke="#171820" stroke-width="1"/><polyline id="SvgjsPolyline8835" points="260.16,282.08 0.25,165.15" fill="none" stroke="#171820" stroke-width="1"/><polyline id="SvgjsPolyline8836" points="343.48,261.89 598.42,38.45" fill="none" stroke="#171820" stroke-width="1"/><polyline id="SvgjsPolyline8837" points="338.99,261.47 599.32,4.2" fill="none" stroke="#171820" stroke-width="1"/><polyline id="SvgjsPolyline8838" points="337.46,258.29 567.99,1.62" fill="none" stroke="#171820" stroke-width="1"/></g></svg>