<?xml version="1.0" standalone="no"?>
<svg id="SvgjsSvg1001" width="600" height="600" xmlns="http://www.w3.org/2000/svg" version="1.1" xmlns:xlink="http://www.w3.org/1999/xlink" xmlns:svgjs="http://svgjs.com/svgjs" class="svg-paper" viewBox="0 0 600 600"><title id="SvgjsTitle3961">x=sqrt(x*x + y*y)|y=max(sin(x/x)/cos(x),sqrt(x*x + y*y))|dTest=0.2|sd=0.4|sm=0.2|ts=0.05 | generated with FlowLines</title><g id="SvgjsG3962"><polyline id="SvgjsPolyline3963" points="0,521.08 10.5,510.37 13.56,505.23 14.59,502.41 15.89,496.56 16.56,490.6 17,481.61 17.26,433.61 17.26,1.61" fill="none" stroke="#0b0b11" stroke-width="1"/><polyline id="SvgjsPolyline3964" points="1.16,562.02 9.46,553.37 12.47,548.2 14.41,542.53 15.58,536.65 16.44,530.71 16.98,521.73" fill="none" stroke="#0b0b11" stroke-width="1"/><polyline id="SvgjsPolyline3965" points="29.27,515.26 205.34,339.19 206.45,336.63 207.11,315.64 208.11,297.67 209.46,282.73 211.09,270.84 213.46,259.08 215.9,250.42 219.07,242 223.1,233.96 228.01,226.43 231.76,221.74 235.84,217.35 380.09,73.1 384.19,68.72 385.98,66.32 387.55,63.76 390.02,58.3 391.67,52.53 392.72,46.63 393.86,31.68 394.23,1.68" fill="none" stroke="#0b0b11" stroke-width="1"/><polyline id="SvgjsPolyline3966" points="30.7,481.32 194.04,317.98" fill="none" stroke="#0b0b11" stroke-width="1"/><polyline id="SvgjsPolyline3967" points="30.79,448.1 196.25,282.64" fill="none" stroke="#0b0b11" stroke-width="1"/><polyline id="SvgjsPolyline3968" points="30.79,415.1 204.74,241.15 205.82,238.59 206.28,190.59 206.7,178.6 207.53,166.63 208.64,157.7 210.52,148.9 212.4,143.21 214.95,137.78 218.22,132.76 222.18,128.26 349.46,0.98" fill="none" stroke="#0b0b11" stroke-width="1"/><polyline id="SvgjsPolyline3969" points="30.79,382.1 192.01,220.88" fill="none" stroke="#0b0b11" stroke-width="1"/><polyline id="SvgjsPolyline3970" points="30.79,349.1 194.13,185.76" fill="none" stroke="#0b0b11" stroke-width="1"/><polyline id="SvgjsPolyline3971" points="30.79,316.1 196.25,150.63" fill="none" stroke="#0b0b11" stroke-width="1"/><polyline id="SvgjsPolyline3972" points="30.79,283.1 204.74,109.15 205.84,106.59 206.18,85.59 207.16,70.63 208.69,61.77 210.53,56.06 211.79,53.34 215.08,48.33 217.09,46.11 261.63,1.56" fill="none" stroke="#0b0b11" stroke-width="1"/><polyline id="SvgjsPolyline3973" points="30.79,250.1 194.13,86.76" fill="none" stroke="#0b0b11" stroke-width="1"/><polyline id="SvgjsPolyline3974" points="30.79,217.1 202.62,45.27" fill="none" stroke="#0b0b11" stroke-width="1"/><polyline id="SvgjsPolyline3975" points="30.79,184.1 204.74,10.15 205.86,7.59 205.95,1.59" fill="none" stroke="#0b0b11" stroke-width="1"/><polyline id="SvgjsPolyline3976" points="30.79,151.1 181.41,0.48" fill="none" stroke="#0b0b11" stroke-width="1"/><polyline id="SvgjsPolyline3977" points="30.79,118.1 147.46,1.43" fill="none" stroke="#0b0b11" stroke-width="1"/><polyline id="SvgjsPolyline3978" points="30.79,85.1 115.64,0.25" fill="none" stroke="#0b0b11" stroke-width="1"/><polyline id="SvgjsPolyline3979" points="30.79,52.1 81.7,1.19" fill="none" stroke="#0b0b11" stroke-width="1"/><polyline id="SvgjsPolyline3980" points="30.79,19.1 49.88,0.01" fill="none" stroke="#0b0b11" stroke-width="1"/><polyline id="SvgjsPolyline3981" points="13.46,598.25 15.09,592.48 16.02,586.56 16.9,574.6 17.14,565.6" fill="none" stroke="#0b0b11" stroke-width="1"/><polyline id="SvgjsPolyline3982" points="26.69,558.33 204.88,380.14 205.98,377.58 206.25,356.58" fill="none" stroke="#0b0b11" stroke-width="1"/><polyline id="SvgjsPolyline3983" points="218.63,355.68 223.95,344.93 233.18,329.47 267.93,276.93 278.53,262.39 288.47,251.16 375.42,164.16 379.35,159.63 382.8,154.73 385.71,149.48 389.02,141.12 390.57,135.33 392.15,126.47 393.09,117.52 393.62,108.54 394.2,75.54" fill="none" stroke="#0b0b11" stroke-width="1"/><polyline id="SvgjsPolyline3984" points="220.01,315.12 226.23,301.48 235.07,285.8 239.97,278.26 245.21,270.94 254.67,259.3 262.87,250.54 377.42,135.99" fill="none" stroke="#0b0b11" stroke-width="1"/><polyline id="SvgjsPolyline3985" points="219.3,204.89 222.73,199.97 228.75,193.29 379.35,42.66" fill="none" stroke="#0b0b11" stroke-width="1"/><polyline id="SvgjsPolyline3986" points="224.93,265.28 231.32,255.13 234.94,250.35 240.84,243.56 380.8,103.5" fill="none" stroke="#0b0b11" stroke-width="1"/><polyline id="SvgjsPolyline3987" points="405.75,67.85 471.51,2.09" fill="none" stroke="#0b0b11" stroke-width="1"/><polyline id="SvgjsPolyline3988" points="407.56,34.63 441.5,0.69" fill="none" stroke="#0b0b11" stroke-width="1"/><polyline id="SvgjsPolyline3989" points="219.65,172.4 223.61,167.91 380.59,10.93" fill="none" stroke="#0b0b11" stroke-width="1"/><polyline id="SvgjsPolyline3990" points="219.34,99.96 319.04,0.26" fill="none" stroke="#0b0b11" stroke-width="1"/><polyline id="SvgjsPolyline3991" points="206.82,33.8 208.06,27.94 209.1,25.12 210.48,22.46 212.21,20.02 231.21,0.83" fill="none" stroke="#0b0b11" stroke-width="1"/><polyline id="SvgjsPolyline3992" points="36.22,598.66 203.81,431.08 205.58,428.81 206.74,426.26 208.14,408.31 210.38,393.49" fill="none" stroke="#0b0b11" stroke-width="1"/><polyline id="SvgjsPolyline3993" points="221.01,387.53 226.15,380.14 233.67,370.8 262.43,340.19 268.21,333.29 273.5,326.02 278.11,318.29 281.85,310.11 283.86,304.46 288.91,287.18 292.13,278.78 294.77,273.4 297.78,268.21 302.96,260.85 306.77,256.22 312.93,249.66 372.29,190.22 376.22,185.69 379.79,180.87 384.33,173.11" fill="none" stroke="#0b0b11" stroke-width="1"/><polyline id="SvgjsPolyline3994" points="397.03,167.6 564.61,0.02" fill="none" stroke="#0b0b11" stroke-width="1"/><polyline id="SvgjsPolyline3995" points="404.67,126.56 529.83,1.4" fill="none" stroke="#0b0b11" stroke-width="1"/><polyline id="SvgjsPolyline3996" points="220.74,67.42 286.5,1.66" fill="none" stroke="#0b0b11" stroke-width="1"/><polyline id="SvgjsPolyline3997" points="66.64,599.39 204.53,461.5 206.32,459.23 206.91,447.25" fill="none" stroke="#0b0b11" stroke-width="1"/><polyline id="SvgjsPolyline3998" points="218.56,438.38 224.48,431.62 307.21,348.88 315.19,339.93 324.11,327.87 344.75,294.78 370.2,257.68 374.84,249.97 379.04,242.01 381.54,236.55 384.79,228.16 388.16,216.65 390.97,201.92 392.82,184.02" fill="none" stroke="#0b0b11" stroke-width="1"/><polyline id="SvgjsPolyline3999" points="220.1,413.49 223.77,408.75 227.79,404.29 280.8,351.24 286.9,344.62 290.65,339.94 294.09,335.02 297.15,329.87 299.77,324.47 302.01,318.9 304.58,310.28 306.81,295.46 308.85,286.7 312.16,278.34 316.58,270.5 321.83,263.2 329.73,254.17 367.77,215.84 373.59,208.99 378.79,201.65" fill="none" stroke="#0b0b11" stroke-width="1"/><polyline id="SvgjsPolyline4000" points="406.23,189.54 582.3,13.47 583.55,10.92 584.54,5.01 585.4,2.13" fill="none" stroke="#0b0b11" stroke-width="1"/><polyline id="SvgjsPolyline4001" points="406.07,94.02 499.41,0.68" fill="none" stroke="#0b0b11" stroke-width="1"/><polyline id="SvgjsPolyline4002" points="99.18,597.99 205.25,491.92 206.4,489.36 207.22,477.39" fill="none" stroke="#0b0b11" stroke-width="1"/><polyline id="SvgjsPolyline4003" points="217.83,470.7 338.64,349.69 346.83,340.92 354.44,331.64 361.44,321.9 367.81,311.73 372.13,303.84 377.25,292.99 381.59,281.81 384.31,273.23 387.26,261.6 389.49,249.81" fill="none" stroke="#0b0b11" stroke-width="1"/><polyline id="SvgjsPolyline4004" points="398.23,240.48 580.66,58.05 582.43,55.78 583.7,53.24 584.73,47.33 586.79,41.71 588.36,39.16 590.29,36.86 598.77,28.37" fill="none" stroke="#0b0b11" stroke-width="1"/><polyline id="SvgjsPolyline4005" points="129.6,598.71 203.85,524.46 205.63,522.19 206.84,519.64 208.46,507.76" fill="none" stroke="#0b0b11" stroke-width="1"/><polyline id="SvgjsPolyline4006" points="219.92,498.85 353.56,365.21 361.79,356.48 367.34,349.4 370.69,344.42 375.17,336.62 377.78,331.22 380.1,325.68 383.06,317.19 385.48,308.52 387.42,299.73" fill="none" stroke="#0b0b11" stroke-width="1"/><polyline id="SvgjsPolyline4007" points="396.01,291.06 582.69,104.39 583.52,101.69 584.92,92.8 586.94,87.17 588.45,84.58 590.3,82.22 598.77,73.72" fill="none" stroke="#0b0b11" stroke-width="1"/><polyline id="SvgjsPolyline4008" points="160.02,599.43 204.57,554.88 206.38,552.61 207.13,543.65 208.03,537.72" fill="none" stroke="#0b0b11" stroke-width="1"/><polyline id="SvgjsPolyline4009" points="220.29,530 368.65,381.38 372.41,376.71 375.8,371.76 378.78,366.55 381.35,361.13 385.35,349.83 388.13,338.16" fill="none" stroke="#0b0b11" stroke-width="1"/><polyline id="SvgjsPolyline4010" points="396.59,328.91 581.15,144.35 582.95,142.09 583.48,130.1 584.71,121.19" fill="none" stroke="#0b0b11" stroke-width="1"/><polyline id="SvgjsPolyline4011" points="192.56,598.03 205.29,585.3 206.49,582.75 207.51,573.81 208.81,567.95" fill="none" stroke="#0b0b11" stroke-width="1"/><polyline id="SvgjsPolyline4012" points="219.88,562.33 372.57,409.55 378.16,402.5 382.62,394.7 385.97,386.35 389,374.75" fill="none" stroke="#0b0b11" stroke-width="1"/><polyline id="SvgjsPolyline4013" points="399.09,365.76 581.53,183.33 583.34,181.07 583.84,175.09 584.76,169.16 586.42,163.4 587.64,160.66 591.02,155.72 599.48,147.21" fill="none" stroke="#0b0b11" stroke-width="1"/><polyline id="SvgjsPolyline4014" points="213.6,599.19 376.87,435.78 382.19,428.54 384.98,423.23 388.09,414.79 390.16,406.04" fill="none" stroke="#0b0b11" stroke-width="1"/><polyline id="SvgjsPolyline4015" points="399.51,398.16 581.94,215.73 583.1,213.17 583.59,204.19 584.28,198.23" fill="none" stroke="#0b0b11" stroke-width="1"/><polyline id="SvgjsPolyline4016" points="244.02,599.91 379.71,464.07 383.31,459.28 387.39,451.27 389.29,445.58 391.2,436.79" fill="none" stroke="#0b0b11" stroke-width="1"/><polyline id="SvgjsPolyline4017" points="400.74,429.48 581.05,249.17 582.84,246.9 583.13,231.9" fill="none" stroke="#0b0b11" stroke-width="1"/><polyline id="SvgjsPolyline4018" points="276.57,598.51 380.5,494.56 384.26,489.9 387.23,484.69 389.41,479.1 391.51,470.36" fill="none" stroke="#0b0b11" stroke-width="1"/><polyline id="SvgjsPolyline4019" points="402.94,461.76 581.13,283.57 582.92,281.31 583.48,266.32" fill="none" stroke="#0b0b11" stroke-width="1"/><polyline id="SvgjsPolyline4020" points="306.99,599.24 383.28,522.8 386.74,517.91 389.29,512.49 391.03,506.75 392.17,500.86" fill="none" stroke="#0b0b11" stroke-width="1"/><polyline id="SvgjsPolyline4021" points="404.03,492.16 582.22,313.97 583.4,311.42 584.27,302.46 585.4,296.57" fill="none" stroke="#0b0b11" stroke-width="1"/><polyline id="SvgjsPolyline4022" points="337.4,599.96 381.95,555.41 385.93,550.93 387.56,548.41 390.06,542.97 391.68,537.2 392.68,531.28" fill="none" stroke="#0b0b11" stroke-width="1"/><polyline id="SvgjsPolyline4023" points="402.85,524.47 581.05,346.28 582.83,344.01 583.02,332.02" fill="none" stroke="#0b0b11" stroke-width="1"/><polyline id="SvgjsPolyline4024" points="369.95,598.56 384.78,583.69 388.32,578.86 389.66,576.18 391.58,570.5 393.08,561.64" fill="none" stroke="#0b0b11" stroke-width="1"/><polyline id="SvgjsPolyline4025" points="403.7,554.49 581.89,376.3 583.03,373.74 583.66,361.76" fill="none" stroke="#0b0b11" stroke-width="1"/><polyline id="SvgjsPolyline4026" points="400.97,598.62 581.28,418.3 583.09,416.04 583.59,407.05 584.28,401.09 585.49,395.22 587.55,389.59 590.71,384.51 599.07,375.91" fill="none" stroke="#0b0b11" stroke-width="1"/><polyline id="SvgjsPolyline4027" points="431.39,599.34 582.01,448.72 583.17,446.17 584.24,434.22" fill="none" stroke="#0b0b11" stroke-width="1"/><polyline id="SvgjsPolyline4028" points="463.93,597.94 582.73,479.14 584.48,464.37" fill="none" stroke="#0b0b11" stroke-width="1"/><polyline id="SvgjsPolyline4029" points="494.35,598.66 581.33,511.68 583.14,509.42 583.85,500.45 584.91,494.55" fill="none" stroke="#0b0b11" stroke-width="1"/><polyline id="SvgjsPolyline4030" points="524.77,599.38 582.05,542.1 583.24,539.55 584.22,530.61 585.71,524.81" fill="none" stroke="#0b0b11" stroke-width="1"/><polyline id="SvgjsPolyline4031" points="557.31,597.98 580.65,574.65 582.42,572.38 583.69,569.83 584.76,563.94 586.87,558.33 588.44,555.78 590.37,553.49 598.85,545" fill="none" stroke="#0b0b11" stroke-width="1"/><polyline id="SvgjsPolyline4032" points="587.73,598.7 589.61,596.36 598.08,587.87" fill="none" stroke="#0b0b11" stroke-width="1"/></g></svg>